<svg width="28" height="28" viewBox="0 0 28 28" fill="none" xmlns="http://www.w3.org/2000/svg">
<path d="M22.8808 6.53434C21.3084 5.82521 19.6229 5.30107 17.8603 5.00303C17.8446 5.00002 17.8284 5.00196 17.8139 5.00859C17.7993 5.01522 17.7872 5.02621 17.7792 5.04003C17.5633 5.41926 17.3228 5.9136 17.1543 6.30413C15.285 6.02483 13.3845 6.02483 11.5152 6.30413C11.3274 5.87132 11.1157 5.4493 10.8811 5.04003C10.8731 5.02604 10.8611 5.0148 10.8466 5.00782C10.8321 5.00084 10.8158 4.99846 10.7999 5.00098C9.03836 5.29902 7.35289 5.82316 5.77944 6.53331C5.7659 6.53899 5.75443 6.54867 5.74655 6.56106C2.54827 11.2629 1.67162 15.8486 2.10224 20.3768C2.10344 20.3879 2.10688 20.3986 2.11236 20.4083C2.11783 20.418 2.12523 20.4265 2.1341 20.4333C4.00085 21.7924 6.08296 22.8277 8.29325 23.4959C8.30866 23.5007 8.32514 23.5006 8.34054 23.4959C8.35594 23.4911 8.36955 23.4818 8.37958 23.4692C8.85439 22.832 9.27782 22.1588 9.63957 21.4518C9.66116 21.4107 9.6406 21.3613 9.59744 21.3449C8.93353 21.0949 8.29026 20.7932 7.67354 20.4425C7.66245 20.4362 7.65312 20.4272 7.64636 20.4164C7.6396 20.4056 7.63564 20.3933 7.63483 20.3805C7.63401 20.3678 7.63637 20.3551 7.64169 20.3435C7.64701 20.3319 7.65513 20.3218 7.66531 20.3141C7.79481 20.2185 7.9243 20.1188 8.04763 20.0191C8.05873 20.0102 8.0721 20.0044 8.08625 20.0026C8.10041 20.0008 8.11479 20.003 8.12779 20.0088C12.1637 21.8218 16.5346 21.8218 20.5232 20.0088C20.5362 20.0026 20.5508 20.0002 20.5651 20.0018C20.5795 20.0035 20.5931 20.0091 20.6044 20.0181C20.7277 20.1188 20.8562 20.2185 20.9867 20.3141C20.997 20.3216 21.0052 20.3316 21.0107 20.3431C21.0162 20.3546 21.0188 20.3672 21.0181 20.38C21.0175 20.3927 21.0138 20.4051 21.0072 20.416C21.0006 20.4269 20.9915 20.436 20.9805 20.4425C20.3659 20.7961 19.7267 21.0951 19.0556 21.3439C19.0453 21.3476 19.0359 21.3535 19.028 21.3612C19.0202 21.3688 19.0141 21.3781 19.0101 21.3883C19.0061 21.3985 19.0043 21.4094 19.0049 21.4204C19.0055 21.4313 19.0084 21.442 19.0135 21.4518C19.3834 22.1578 19.8069 22.8299 20.2724 23.4682C20.2821 23.4813 20.2956 23.4911 20.311 23.4962C20.3265 23.5014 20.3431 23.5016 20.3587 23.4969C22.5728 22.8306 24.6583 21.7948 26.5272 20.4333C26.5363 20.4269 26.5439 20.4187 26.5496 20.4091C26.5553 20.3995 26.5588 20.3889 26.56 20.3778C27.0739 15.1426 25.6988 10.5939 22.9126 6.56312C22.9058 6.55002 22.8945 6.53981 22.8808 6.53434ZM10.2428 17.6194C9.02808 17.6194 8.02605 16.5207 8.02605 15.1734C8.02605 13.825 9.00855 12.7274 10.2428 12.7274C11.4864 12.7274 12.4792 13.8343 12.4597 15.1734C12.4597 16.5218 11.4771 17.6194 10.2428 17.6194ZM18.439 17.6194C17.2232 17.6194 16.2222 16.5207 16.2222 15.1734C16.2222 13.825 17.2036 12.7274 18.439 12.7274C19.6825 12.7274 20.6753 13.8343 20.6558 15.1734C20.6558 16.5218 19.6835 17.6194 18.439 17.6194Z" fill="#DAB689"/>
</svg>
