<svg width="28" height="28" viewBox="0 0 28 28" fill="none" xmlns="http://www.w3.org/2000/svg">
<path d="M14.0027 7.8467C10.5974 7.8467 7.85075 10.594 7.85075 14C7.85075 17.406 10.5974 20.1533 14.0027 20.1533C17.4079 20.1533 20.1546 17.406 20.1546 14C20.1546 10.594 17.4079 7.8467 14.0027 7.8467ZM14.0027 18.0004C11.8021 18.0004 10.0031 16.2064 10.0031 14C10.0031 11.7936 11.7968 9.99955 14.0027 9.99955C16.2086 9.99955 18.0022 11.7936 18.0022 14C18.0022 16.2064 16.2032 18.0004 14.0027 18.0004V18.0004ZM21.8412 7.595C21.8412 8.39295 21.1987 9.03024 20.4062 9.03024C19.6085 9.03024 18.9713 8.38759 18.9713 7.595C18.9713 6.80241 19.6138 6.15977 20.4062 6.15977C21.1987 6.15977 21.8412 6.80241 21.8412 7.595ZM25.9157 9.05166C25.8247 7.12909 25.3856 5.42609 23.9775 4.02298C22.5747 2.61988 20.8721 2.18074 18.9499 2.08435C16.9689 1.97188 11.0311 1.97188 9.05008 2.08435C7.1333 2.17539 5.43068 2.61453 4.02253 4.01763C2.61439 5.42073 2.1807 7.12373 2.08433 9.0463C1.97189 11.0278 1.97189 16.9669 2.08433 18.9483C2.17535 20.8709 2.61439 22.5739 4.02253 23.977C5.43068 25.3801 7.12794 25.8193 9.05008 25.9157C11.0311 26.0281 16.9689 26.0281 18.9499 25.9157C20.8721 25.8246 22.5747 25.3855 23.9775 23.977C25.3803 22.5739 25.8193 20.8709 25.9157 18.9483C26.0281 16.9669 26.0281 11.0331 25.9157 9.05166V9.05166ZM23.3564 21.0744C22.9388 22.1241 22.1303 22.9327 21.0755 23.3558C19.496 23.9824 15.7481 23.8378 14.0027 23.8378C12.2572 23.8378 8.50396 23.977 6.92984 23.3558C5.88042 22.9381 5.07195 22.1294 4.64897 21.0744C4.02253 19.4946 4.16709 15.7458 4.16709 14C4.16709 12.2542 4.02789 8.50006 4.64897 6.92558C5.06659 5.87593 5.87507 5.06728 6.92984 4.6442C8.50931 4.01763 12.2572 4.16222 14.0027 4.16222C15.7481 4.16222 19.5014 4.02298 21.0755 4.6442C22.1249 5.06192 22.9334 5.87058 23.3564 6.92558C23.9828 8.50541 23.8383 12.2542 23.8383 14C23.8383 15.7458 23.9828 19.4999 23.3564 21.0744Z" fill="#DAB689"/>
</svg>
