<svg width="28" height="28" viewBox="0 0 28 28" fill="none" xmlns="http://www.w3.org/2000/svg">
<path d="M3.42759 15.3323L3.51411 15.2025L8.57539 7.27753C8.5922 7.25143 8.61572 7.23033 8.64349 7.21644C8.67125 7.20255 8.70224 7.19639 8.73321 7.19861C8.76418 7.20082 8.79398 7.21132 8.81949 7.22901C8.845 7.2467 8.86528 7.27093 8.87821 7.29916C9.74338 9.19822 10.4572 11.5558 10.1154 13.0223C9.87948 13.7843 9.54345 14.5116 9.11613 15.1852C9.05989 15.2934 8.995 15.4015 8.93012 15.5054C8.91358 15.5291 8.8916 15.5486 8.86602 15.5621C8.84043 15.5757 8.81198 15.5829 8.78304 15.5832H3.59198C3.56161 15.585 3.53132 15.5787 3.50415 15.565C3.47698 15.5513 3.4539 15.5307 3.43723 15.5053C3.42056 15.4799 3.4109 15.4505 3.4092 15.4201C3.40751 15.3897 3.41385 15.3595 3.42759 15.3323V15.3323Z" fill="#DAB689"/>
<path d="M26 16.8031V18.0576C26.0002 18.0926 25.9901 18.1269 25.9708 18.1561C25.9516 18.1854 25.9241 18.2083 25.8919 18.2219C25.4982 18.3907 24.1615 19.0093 23.5991 19.7836C22.1759 21.7648 21.0772 24.5983 18.6547 24.5983H8.53209C7.67396 24.5994 6.82405 24.4313 6.03102 24.1034C5.238 23.7755 4.51746 23.2944 3.91067 22.6876C3.30388 22.0808 2.82278 21.3603 2.49491 20.5673C2.16705 19.7743 1.99887 18.9243 2.00001 18.0662V17.9494C2.00001 17.9035 2.01824 17.8595 2.05069 17.8271C2.08314 17.7946 2.12715 17.7764 2.17304 17.7764H7.8313C7.8579 17.7773 7.88401 17.7839 7.90793 17.7955C7.93185 17.8072 7.95306 17.8238 7.97018 17.8442C7.98731 17.8646 7.99996 17.8883 8.00733 17.9139C8.01471 17.9395 8.01663 17.9663 8.01298 17.9927C7.97449 18.3666 8.0451 18.7438 8.2163 19.0785C8.38112 19.4104 8.63519 19.6899 8.95001 19.8855C9.26482 20.0812 9.62792 20.1852 9.99856 20.1859H12.8017V17.997H10.0332C10.0009 17.997 9.96929 17.9883 9.94165 17.9717C9.91401 17.9551 9.89141 17.9313 9.87629 17.9028C9.86116 17.8744 9.85408 17.8423 9.85581 17.8101C9.85754 17.7779 9.86801 17.7468 9.88609 17.7201C9.91637 17.6726 9.95098 17.625 9.98991 17.5731C10.2495 17.201 10.6258 16.6214 10.9978 15.9638C11.2566 15.5133 11.4892 15.0482 11.6943 14.5709C11.7332 14.4844 11.7678 14.3935 11.7981 14.307C11.8284 14.2205 11.9063 14.0172 11.9495 13.8744C11.9928 13.7317 12.0188 13.6279 12.0534 13.5111C12.1447 13.0919 12.1896 12.6639 12.1875 12.2349C12.1875 12.0576 12.1875 11.8759 12.1615 11.7028C12.1355 11.5298 12.1312 11.3222 12.1053 11.1318C12.0793 10.9415 12.062 10.7987 12.0274 10.6257C11.9885 10.3705 11.9322 10.1196 11.8673 9.86434L11.8457 9.76917C11.7981 9.59613 11.7592 9.42742 11.703 9.25439C11.5602 8.70933 11.3612 8.19022 11.1709 7.67977C11.1017 7.48078 11.0195 7.29044 10.9416 7.1001C10.8205 6.81459 10.7037 6.55504 10.5912 6.30846C10.535 6.19599 10.4874 6.09649 10.4398 5.99267C10.3922 5.88885 10.3317 5.75475 10.2754 5.64228C10.2192 5.5298 10.1889 5.47789 10.1543 5.3957L9.82985 4.76412C9.82031 4.74507 9.81638 4.7237 9.81851 4.7025C9.82064 4.6813 9.82875 4.66114 9.84189 4.64437C9.85504 4.6276 9.87268 4.6149 9.89275 4.60777C9.91283 4.60063 9.93453 4.59935 9.95531 4.60406L12.1182 5.18373L12.4038 5.2616L12.7109 5.35244L12.8277 5.38272V4.11091C12.8253 3.89236 12.8881 3.67806 13.0081 3.49539C13.1281 3.31273 13.2999 3.17002 13.5015 3.08549C13.703 3.00097 13.9252 2.97847 14.1396 3.02089C14.354 3.06331 14.5509 3.1687 14.7051 3.3236C14.9095 3.53451 15.0229 3.81723 15.0209 4.11091V5.997L15.2502 6.06189L15.3021 6.08784L15.54 6.26953C15.6179 6.33442 15.7044 6.41228 15.8082 6.49015C16.0159 6.65886 16.2408 6.87083 16.5306 7.1174C16.6042 7.17797 16.6734 7.24285 16.7383 7.30774C17.0844 7.63218 17.4737 8.01286 17.8457 8.43247C17.9495 8.54783 18.0534 8.66895 18.1572 8.79585C18.261 8.9213 18.3735 9.05107 18.4686 9.17652C18.5638 9.30197 18.7282 9.51827 18.8493 9.69996L19.0224 9.95951C19.1738 10.1888 19.3079 10.4267 19.4549 10.6646C19.5069 10.7771 19.5631 10.8939 19.6107 11.015C19.753 11.3241 19.8618 11.6475 19.9351 11.9797C19.9587 12.0484 19.9747 12.1195 19.9827 12.1917C20.0047 12.2912 20.0177 12.3926 20.0216 12.4945C20.0568 12.8284 20.0378 13.1659 19.9654 13.4938C19.9346 13.64 19.8956 13.7844 19.8486 13.9263C19.801 14.0648 19.7534 14.2032 19.6929 14.3589C19.572 14.6432 19.4273 14.9167 19.2603 15.1765C19.2084 15.2717 19.1435 15.3755 19.0786 15.4707C19.0137 15.5659 18.9358 15.6697 18.871 15.7648C18.8061 15.86 18.6893 16.0071 18.5941 16.1196C18.5117 16.2388 18.4221 16.3529 18.3259 16.4613C18.1918 16.617 18.062 16.7684 17.9279 16.8939C17.7938 17.0193 17.7635 17.0842 17.677 17.1708C17.5905 17.2573 17.4996 17.3524 17.4218 17.4346C17.3439 17.5168 17.1752 17.6726 17.08 17.7591L16.8594 17.9581C16.8277 17.9872 16.7857 18.0028 16.7426 18.0013H15.0209V20.1902H17.1839C17.6606 20.1901 18.1214 20.0181 18.4816 19.7057C18.9507 19.301 19.3943 18.8676 19.8097 18.408C19.8306 18.3821 19.8595 18.3638 19.8919 18.356L25.814 16.6473C25.8592 16.6437 25.9041 16.658 25.9389 16.6871C25.9737 16.7163 25.9956 16.7579 26 16.8031Z" fill="#DAB689"/>
</svg>
