<svg width="38" height="38" viewBox="0 0 38 38" fill="none" xmlns="http://www.w3.org/2000/svg">
<path fill-rule="evenodd" clip-rule="evenodd" d="M23.514 16.757C23.514 20.4888 20.4888 23.514 16.757 23.514C13.0252 23.514 10 20.4888 10 16.757C10 13.0252 13.0252 10 16.757 10C20.4888 10 23.514 13.0252 23.514 16.757ZM22.2018 23.616C20.707 24.8042 18.8149 25.514 16.757 25.514C11.9206 25.514 8 21.5934 8 16.757C8 11.9206 11.9206 8 16.757 8C21.5934 8 25.514 11.9206 25.514 16.757C25.514 18.8149 24.8042 20.707 23.616 22.2018L29.1401 27.7259L27.7259 29.1401L22.2018 23.616Z" fill="#DAB689"/>
</svg>
