<svg width="28" height="28" viewBox="0 0 28 28" fill="none" xmlns="http://www.w3.org/2000/svg">
<path d="M27 6.49098C26.0071 6.91193 24.9405 7.19635 23.8191 7.32491C24.9761 6.66254 25.8417 5.62005 26.2544 4.39195C25.1674 5.00971 23.9777 5.44453 22.737 5.67754C21.9027 4.82526 20.7977 4.26035 19.5934 4.07053C18.3891 3.8807 17.1531 4.07658 16.0771 4.62774C15.0011 5.17891 14.1454 6.05452 13.6429 7.11865C13.1403 8.18277 13.019 9.37587 13.2979 10.5127C11.0952 10.4069 8.9405 9.85916 6.97346 8.90504C5.00643 7.95093 3.27106 6.61176 1.87999 4.97445C1.40434 5.75945 1.13085 6.6696 1.13085 7.63891C1.13032 8.51151 1.35491 9.37074 1.78471 10.1404C2.21451 10.91 2.83623 11.5662 3.59469 12.0509C2.71507 12.0241 1.85487 11.7967 1.08566 11.3876V11.4558C1.08557 12.6797 1.52805 13.8659 2.33801 14.8132C3.14798 15.7604 4.27554 16.4104 5.52938 16.6528C4.71339 16.8641 3.85788 16.8952 3.02748 16.7438C3.38124 17.7969 4.07033 18.7177 4.99828 19.3775C5.92623 20.0372 7.04659 20.4028 8.2025 20.4231C6.24027 21.8969 3.81692 22.6963 1.32229 22.6928C0.880397 22.6929 0.438873 22.6682 0 22.6188C2.53219 24.1765 5.47984 25.0032 8.49027 25C18.681 25 24.252 16.9247 24.252 9.92111C24.252 9.69357 24.246 9.46376 24.2353 9.23622C25.3189 8.48645 26.2543 7.55801 26.9976 6.4944L27 6.49098V6.49098Z" fill="#DAB689"/>
</svg>
