<svg width="162" height="168" viewBox="0 0 162 168" fill="none" xmlns="http://www.w3.org/2000/svg">
<g clip-path="url(#clip0_285:4700)">
<path d="M77.6591 67.7067C71.9732 63.8569 65.7831 60.8097 59.2637 58.651C48.466 55.085 34.9452 55.4291 31.0017 62.3969C27.0582 69.3646 44.8667 108.974 76.548 78.3265" stroke="#DAB689" stroke-width="1.12" stroke-linecap="round" stroke-linejoin="round"/>
<path d="M90.0764 57.3137C90.0764 57.3137 91.4927 57.9941 90.945 59.2766C90.3972 60.5591 88.9419 60.2932 87.0327 60.3323C85.3926 60.5052 83.7854 60.9107 82.2598 61.5366" stroke="#DAB689" stroke-width="1.12" stroke-linecap="round" stroke-linejoin="round"/>
<path d="M55.6331 89.7517C55.6331 89.7517 52.5033 93.5289 53.2857 98.174C54.0682 102.819 59.2323 102.467 63.1133 101.075C66.9942 99.6833 70.2336 103.507 72.5574 102.983C73.9283 102.691 75.1366 101.889 75.9376 100.739" stroke="#DAB689" stroke-width="1.12" stroke-linecap="round" stroke-linejoin="round"/>
<path d="M77.158 79.8671C77.158 79.8671 62.7453 90.0333 54.0444 100.098" stroke="#DAB689" stroke-width="1.12" stroke-linecap="round" stroke-linejoin="round"/>
<path d="M76.6571 83.089C69.6778 88.3033 63.6619 94.6942 58.8799 101.975" stroke="#DAB689" stroke-width="1.12" stroke-linecap="round" stroke-linejoin="round"/>
<path d="M76.2269 86.6471C76.2269 86.6471 68.2381 94.7331 65.1943 100.778" stroke="#DAB689" stroke-width="1.12" stroke-linecap="round" stroke-linejoin="round"/>
<path d="M80.9999 67.214H84.0124C85.0765 63.8201 83.4333 62.1935 82.1814 61.4741C81.8246 61.2682 81.4198 61.1598 81.0077 61.1598C80.5957 61.1598 80.1909 61.2682 79.8341 61.4741C78.59 62.1935 76.9468 63.8201 78.011 67.214H80.9999Z" stroke="#DAB689" stroke-width="1.12" stroke-linecap="round" stroke-linejoin="round"/>
<path d="M84.0125 67.2141C88.7541 73.9159 84.3568 80.7664 84.3568 80.7664C84.3568 80.7664 83.4257 81.8064 81.0001 81.8064C78.5745 81.8064 77.659 80.7664 77.659 80.7664C77.659 80.7664 73.2538 73.9159 78.0033 67.2141" stroke="#DAB689" stroke-width="1.12" stroke-linecap="round" stroke-linejoin="round"/>
<path d="M84.3568 104.031C84.4599 106.101 84.1046 108.168 83.3162 110.084C83.112 110.526 82.7853 110.901 82.3749 111.163C81.9645 111.426 81.4874 111.565 81.0001 111.565C80.5128 111.565 80.0358 111.426 79.6253 111.163C79.2149 110.901 78.8882 110.526 78.6841 110.084C77.8956 108.168 77.5403 106.101 77.6434 104.031" stroke="#DAB689" stroke-width="1.12" stroke-linecap="round" stroke-linejoin="round"/>
<path d="M85.7339 96.7195C85.7339 96.7195 86.7041 101.412 85.3505 102.811L85.3035 102.858C84.16 103.995 82.6128 104.633 81 104.633C79.3873 104.633 77.8401 103.995 76.6966 102.858L76.6575 102.811C75.296 101.419 76.2662 96.7195 76.2662 96.7195" stroke="#DAB689" stroke-width="1.12" stroke-linecap="round" stroke-linejoin="round"/>
<path d="M91.884 102.483C90.2721 97.1026 86.0704 91.5816 86.0704 91.5816C86.8528 95.4135 85.5853 97.4389 84.1221 98.5103C83.2103 99.1658 82.1155 99.5184 80.9923 99.5184C79.8691 99.5184 78.7743 99.1658 77.8625 98.5103C76.3993 97.4389 75.1317 95.3822 75.9142 91.5816C75.9142 91.5816 71.7124 97.1026 70.0928 102.483" stroke="#DAB689" stroke-width="1.12" stroke-linecap="round" stroke-linejoin="round"/>
<path d="M85.4131 85.4897C88.5429 94.4516 81.0001 93.3881 81.0001 93.3881C81.0001 93.3881 73.4808 94.4516 76.5871 85.4897" stroke="#DAB689" stroke-width="1.12" stroke-linecap="round" stroke-linejoin="round"/>
<path d="M84.3568 80.7664C88.1438 87.3744 81.0001 86.6159 81.0001 86.6159C81.0001 86.6159 73.8485 87.3979 77.6434 80.7664" stroke="#DAB689" stroke-width="1.12" stroke-linecap="round" stroke-linejoin="round"/>
<path d="M84.3564 67.7067C90.0423 63.8569 96.2325 60.8097 102.752 58.651C113.55 55.0851 127.07 55.4291 131.014 62.3969C134.957 69.3646 117.141 108.989 85.4832 78.3421" stroke="#DAB689" stroke-width="1.12" stroke-linecap="round" stroke-linejoin="round"/>
<path d="M71.9156 57.3137C71.9156 57.3137 70.5072 57.9941 71.0471 59.2766C71.587 60.5591 73.0502 60.2932 74.9593 60.3323C76.5995 60.5052 78.2066 60.9107 79.7323 61.5366" stroke="#DAB689" stroke-width="1.12" stroke-linecap="round" stroke-linejoin="round"/>
<path d="M106.367 89.7517C106.367 89.7517 109.497 93.5289 108.714 98.174C107.932 102.819 102.768 102.467 98.8869 101.075C95.006 99.6833 91.7432 103.507 89.3958 102.983C88.0234 102.69 86.8129 101.888 86.0078 100.739" stroke="#DAB689" stroke-width="1.12" stroke-linecap="round" stroke-linejoin="round"/>
<path d="M84.8418 79.8671C84.8418 79.8671 99.2545 90.0333 107.955 100.098" stroke="#DAB689" stroke-width="1.12" stroke-linecap="round" stroke-linejoin="round"/>
<path d="M85.335 83.089C92.3242 88.3019 98.3506 94.6928 103.143 101.975" stroke="#DAB689" stroke-width="1.12" stroke-linecap="round" stroke-linejoin="round"/>
<path d="M85.7729 86.6471C85.7729 86.6471 93.7618 94.7331 96.7977 100.778" stroke="#DAB689" stroke-width="1.12" stroke-linecap="round" stroke-linejoin="round"/>
<path d="M43.1528 56.5396C51.5172 60.5826 46.6191 69.8338 50.6878 73.1339C54.7565 76.434 65.5543 70.0058 66.9471 85.8338" stroke="#DAB689" stroke-width="1.12" stroke-linecap="round" stroke-linejoin="round"/>
<path d="M58.88 89.2199C58.88 89.2199 57.4872 79.9687 51.7519 80.7664C46.0165 81.564 40.7976 79.7654 41.6348 69.2316C42.472 58.6979 34.2798 59.0655 34.2798 59.0655" stroke="#DAB689" stroke-width="1.12" stroke-linecap="round" stroke-linejoin="round"/>
<path d="M49.6475 56.6334C49.6475 56.6334 52.9807 59.3626 52.4564 64.8758C51.9322 70.389 52.5425 72.3128 58.497 71.6637C64.4514 71.0146 71.2274 72.6568 70.1867 83.7067" stroke="#DAB689" stroke-width="1.12" stroke-linecap="round" stroke-linejoin="round"/>
<path d="M60.4997 59.1046C60.4997 59.1046 58.0428 65.2825 65.0536 67.7067C72.0643 70.131 73.6605 72.7351 73.8874 80.8055" stroke="#DAB689" stroke-width="1.12" stroke-linecap="round" stroke-linejoin="round"/>
<path d="M118.761 56.5396C110.397 60.5826 115.295 69.8338 111.226 73.1339C107.157 76.434 96.3596 70.0058 94.9668 85.8338" stroke="#DAB689" stroke-width="1.12" stroke-linecap="round" stroke-linejoin="round"/>
<path d="M103.057 89.2199C103.057 89.2199 104.45 79.9687 110.185 80.7664C115.921 81.564 121.14 79.7654 120.302 69.2316C119.465 58.6979 127.657 59.0655 127.657 59.0655" stroke="#DAB689" stroke-width="1.12" stroke-linecap="round" stroke-linejoin="round"/>
<path d="M112.266 56.6334C112.266 56.6334 108.933 59.3626 109.457 64.8758C109.982 70.389 109.371 72.3128 103.417 71.6637C97.4626 71.0146 90.6866 72.6568 91.7272 83.7067" stroke="#DAB689" stroke-width="1.12" stroke-linecap="round" stroke-linejoin="round"/>
<path d="M101.414 59.1046C101.414 59.1046 103.871 65.2825 96.8602 67.7067C89.8495 70.131 88.2533 72.7351 88.0264 80.8055" stroke="#DAB689" stroke-width="1.12" stroke-linecap="round" stroke-linejoin="round"/>
</g>
<defs>
<clipPath id="clip0_285:4700">
<rect width="102" height="56" fill="white" transform="translate(30 56)"/>
</clipPath>
</defs>
</svg>
