<svg width="355" height="460" viewBox="0 0 355 460" fill="none" xmlns="http://www.w3.org/2000/svg">
<path d="M174.243 142.033H173.57V176.347H174.243V142.033Z" fill="#DAB689" stroke="#DAB689"/>
<path d="M145.35 106.237L144.687 106.354L157.293 177.825L157.957 177.708L145.35 106.237Z" fill="#DAB689" stroke="#DAB689"/>
<path d="M130.595 149.51L129.961 149.741L141.701 181.985L142.335 181.755L130.595 149.51Z" fill="#DAB689" stroke="#DAB689"/>
<path d="M87.8302 126.521L87.2439 126.857L123.543 189.996L124.129 189.659L87.8302 126.521Z" fill="#DAB689" stroke="#DAB689"/>
<path d="M92.1456 171.464L91.6294 171.897L113.693 198.183L114.21 197.75L92.1456 171.464Z" fill="#DAB689" stroke="#DAB689"/>
<path d="M47.002 162.608L46.5688 163.124L102.182 209.773L102.615 209.257L47.002 162.608Z" fill="#DAB689" stroke="#DAB689"/>
<path d="M63.5235 205.231L63.1865 205.814L92.9133 222.971L93.2502 222.387L63.5235 205.231Z" fill="#DAB689" stroke="#DAB689"/>
<path d="M18.0708 212.348L17.8403 212.981L86.0599 237.802L86.2903 237.169L18.0708 212.348Z" fill="#DAB689" stroke="#DAB689"/>
<path d="M330.322 211.913L262.098 236.722L262.328 237.355L330.552 212.546L330.322 211.913Z" fill="#DAB689" stroke="#DAB689"/>
<path d="M284.754 204.669L255.027 221.826L255.364 222.409L285.091 205.252L284.754 204.669Z" fill="#DAB689" stroke="#DAB689"/>
<path d="M301.185 161.809L245.581 208.467L246.014 208.983L301.619 162.325L301.185 161.809Z" fill="#DAB689" stroke="#DAB689"/>
<path d="M255.842 170.571L233.783 196.861L234.299 197.294L256.358 171.004L255.842 170.571Z" fill="#DAB689" stroke="#DAB689"/>
<path d="M256.63 124.687L220.331 187.537L220.914 187.873L257.213 125.023L256.63 124.687Z" fill="#DAB689" stroke="#DAB689"/>
<path d="M217.125 148.434L205.39 180.68L206.023 180.911L217.758 148.664L217.125 148.434Z" fill="#DAB689" stroke="#DAB689"/>
<path d="M202.15 105.038L189.531 176.506L190.195 176.623L202.814 105.155L202.15 105.038Z" fill="#DAB689" stroke="#DAB689"/>
<path d="M173.904 355.801C162.542 355.828 151.287 353.603 140.79 349.256C130.293 344.908 120.763 338.523 112.75 330.471C104.695 322.46 98.3084 312.933 93.96 302.44C89.6116 291.946 87.3874 280.695 87.4161 269.337C87.3868 257.979 89.6108 246.728 93.9592 236.235C98.3076 225.742 104.694 216.214 112.75 208.204C120.762 200.151 130.292 193.765 140.789 189.417C151.286 185.069 162.541 182.845 173.904 182.874C185.266 182.844 196.522 185.068 207.019 189.416C217.516 193.764 227.046 200.15 235.058 208.204C243.115 216.213 249.503 225.74 253.852 236.234C258.202 246.727 260.426 257.979 260.397 269.337C260.426 280.696 258.201 291.947 253.852 302.441C249.502 312.934 243.114 322.461 235.058 330.471C227.045 338.524 217.515 344.909 207.018 349.257C196.521 353.605 185.266 355.829 173.904 355.801ZM173.904 183.513C126.577 183.513 88.0729 222.005 88.0729 269.321C88.0729 316.636 126.577 355.128 173.904 355.128C221.23 355.128 259.74 316.636 259.74 269.321C259.74 222.005 221.236 183.519 173.904 183.519V183.513Z" fill="#DAB689" stroke="#DAB689"/>
<path d="M173.881 297.917C147.93 297.917 126.566 280.324 126.357 280.143L126.045 279.888L126.357 279.628C126.566 279.453 147.93 261.86 173.881 261.86C199.832 261.86 221.196 279.453 221.406 279.628L221.717 279.888L221.406 280.143C221.196 280.313 199.832 297.917 173.881 297.917ZM127.11 279.888C129.862 282.068 149.907 297.243 173.881 297.243C197.856 297.243 217.901 282.068 220.653 279.888C217.901 277.709 197.856 262.533 173.881 262.533C149.907 262.533 129.862 277.709 127.087 279.888H127.11Z" fill="#DAB689" stroke="#DAB689"/>
<path d="M222.844 278.434C217.272 274.104 197.272 259.975 173.881 259.975C151.163 259.975 132.109 272.853 124.969 278.394L124.556 277.862C131.747 272.281 150.954 259.302 173.881 259.302C196.808 259.302 216.06 272.321 223.257 277.902L222.844 278.434Z" fill="#DAB689" stroke="#DAB689"/>
<path d="M122.121 276.985L121.696 276.458C129.408 270.232 149.929 255.781 173.881 255.781C197.397 255.781 217.725 269.858 225.375 275.909L224.956 276.436C217.363 270.43 197.21 256.454 173.881 256.454C150.144 256.454 129.777 270.809 122.121 276.985Z" fill="#DAB689" stroke="#DAB689"/>
<path d="M173.881 297.617C169.179 297.611 164.672 295.741 161.348 292.418C158.023 289.094 156.152 284.589 156.146 279.889C156.152 275.188 158.023 270.683 161.348 267.359C164.672 264.036 169.179 262.166 173.881 262.16C178.587 262.16 183.1 264.027 186.43 267.351C189.759 270.675 191.632 275.185 191.638 279.889C191.632 284.593 189.759 289.102 186.43 292.426C183.1 295.75 178.587 297.617 173.881 297.617V297.617ZM173.881 262.834C169.358 262.838 165.021 264.636 161.822 267.834C158.624 271.031 156.825 275.367 156.82 279.889C156.826 284.41 158.626 288.744 161.824 291.942C165.022 295.139 169.358 296.938 173.881 296.944C178.404 296.938 182.74 295.139 185.938 291.942C189.137 288.744 190.936 284.41 190.942 279.889C190.938 275.367 189.139 271.031 185.94 267.834C182.742 264.636 178.405 262.838 173.881 262.834V262.834Z" fill="#DAB689" stroke="#DAB689"/>
<path d="M178.678 280.682C179.111 278.012 177.298 275.497 174.628 275.064C171.958 274.631 169.442 276.443 169.009 279.113C168.575 281.782 170.388 284.297 173.059 284.73C175.729 285.163 178.245 283.351 178.678 280.682Z" fill="#DAB689" stroke="#DAB689"/>
<path d="M109.462 263.707L108.981 264.178L121.541 276.982L122.022 276.51L109.462 263.707Z" fill="#DAB689" stroke="#DAB689"/>
<path d="M173.87 219.237H173.196V256.12H173.87V219.237Z" fill="#DAB689" stroke="#DAB689"/>
<path d="M151.123 240.788L150.475 240.972L155.546 258.815L156.194 258.631L151.123 240.788Z" fill="#DAB689" stroke="#DAB689"/>
<path d="M126.885 251.062L126.35 251.471L137.632 266.234L138.167 265.825L126.885 251.062Z" fill="#DAB689" stroke="#DAB689"/>
<path d="M237.499 263.123L224.937 275.925L225.418 276.396L237.98 263.595L237.499 263.123Z" fill="#DAB689" stroke="#DAB689"/>
<path d="M196.008 242.726L190.836 258.61L191.477 258.818L196.649 242.934L196.008 242.726Z" fill="#DAB689" stroke="#DAB689"/>
<path d="M220.742 250.748L209.327 265.935L209.866 266.339L221.281 251.152L220.742 250.748Z" fill="#DAB689" stroke="#DAB689"/>
<path d="M107.523 262.941C107.523 262.641 107.643 262.353 107.855 262.141C108.067 261.928 108.355 261.809 108.656 261.809C108.956 261.809 109.244 261.928 109.457 262.141C109.669 262.353 109.788 262.641 109.788 262.941C109.788 263.241 109.669 263.529 109.457 263.742C109.244 263.954 108.956 264.073 108.656 264.073C108.355 264.073 108.067 263.954 107.855 263.742C107.643 263.529 107.523 263.241 107.523 262.941Z" fill="#DAB689" stroke="#DAB689"/>
<path d="M124.765 250.313C124.765 250.012 124.885 249.724 125.097 249.512C125.309 249.3 125.598 249.18 125.898 249.18C126.198 249.18 126.486 249.3 126.699 249.512C126.911 249.724 127.03 250.012 127.03 250.313C127.03 250.613 126.911 250.901 126.699 251.113C126.486 251.325 126.198 251.445 125.898 251.445C125.598 251.445 125.309 251.325 125.097 251.113C124.885 250.901 124.765 250.613 124.765 250.313Z" fill="#DAB689" stroke="#DAB689"/>
<path d="M222.312 250.313C222.312 250.012 222.192 249.724 221.98 249.512C221.768 249.3 221.479 249.18 221.179 249.18C220.879 249.18 220.591 249.3 220.378 249.512C220.166 249.724 220.047 250.012 220.047 250.313C220.047 250.613 220.166 250.901 220.378 251.113C220.591 251.325 220.879 251.445 221.179 251.445C221.479 251.445 221.768 251.325 221.98 251.113C222.192 250.901 222.312 250.613 222.312 250.313Z" fill="#DAB689" stroke="#DAB689"/>
<path d="M239.106 262.8C239.106 262.499 238.987 262.211 238.775 261.999C238.562 261.787 238.274 261.667 237.974 261.667C237.673 261.667 237.385 261.787 237.173 261.999C236.961 262.211 236.841 262.499 236.841 262.8C236.841 263.1 236.961 263.388 237.173 263.6C237.385 263.812 237.673 263.932 237.974 263.932C238.274 263.932 238.562 263.812 238.775 263.6C238.987 263.388 239.106 263.1 239.106 262.8Z" fill="#DAB689" stroke="#DAB689"/>
<path d="M197.776 241.731C197.776 241.431 197.657 241.143 197.445 240.931C197.232 240.719 196.944 240.599 196.644 240.599C196.344 240.599 196.056 240.719 195.843 240.931C195.631 241.143 195.511 241.431 195.511 241.731C195.511 242.032 195.631 242.32 195.843 242.532C196.056 242.744 196.344 242.864 196.644 242.864C196.944 242.864 197.232 242.744 197.445 242.532C197.657 242.32 197.776 242.032 197.776 241.731Z" fill="#DAB689" stroke="#DAB689"/>
<path d="M149.51 240.333C149.51 240.033 149.629 239.745 149.842 239.533C150.054 239.32 150.342 239.201 150.642 239.201C150.943 239.201 151.231 239.32 151.443 239.533C151.656 239.745 151.775 240.033 151.775 240.333C151.775 240.633 151.656 240.921 151.443 241.134C151.231 241.346 150.943 241.465 150.642 241.465C150.342 241.465 150.054 241.346 149.842 241.134C149.629 240.921 149.51 240.633 149.51 240.333Z" fill="#DAB689" stroke="#DAB689"/>
<path d="M173.535 219.271C174.155 219.271 174.657 218.769 174.657 218.15C174.657 217.531 174.155 217.029 173.535 217.029C172.916 217.029 172.414 217.531 172.414 218.15C172.414 218.769 172.916 219.271 173.535 219.271Z" fill="#DAB689" stroke="#DAB689"/>
<path d="M162.545 244.165L163.893 247.052L165.246 249.933L163.502 250.211L161.752 250.482L162.149 247.324L162.545 244.165Z" fill="#DAB689" stroke="#DAB689"/>
<path d="M140.773 249.939L142.851 252.345L144.935 254.756L143.332 255.492L141.73 256.233L141.249 253.086L140.773 249.939Z" fill="#DAB689" stroke="#DAB689"/>
<path d="M121.532 261.362L123.989 263.383L126.447 265.409L124.986 266.405L123.531 267.402L122.534 264.385L121.532 261.362Z" fill="#DAB689" stroke="#DAB689"/>
<path d="M184.526 244.165L183.173 247.052L181.825 249.933L183.569 250.211L185.313 250.482L184.917 247.324L184.526 244.165Z" fill="#DAB689" stroke="#DAB689"/>
<path d="M206.298 249.939L204.214 252.345L202.131 254.756L203.739 255.492L205.341 256.233L205.817 253.086L206.298 249.939Z" fill="#DAB689" stroke="#DAB689"/>
<path d="M225.534 261.362L223.082 263.383L220.624 265.409L222.079 266.405L223.54 267.402L224.537 264.385L225.534 261.362Z" fill="#DAB689" stroke="#DAB689"/>
<path d="M236.196 328.993V364.609C236.196 367.496 229.91 370.235 218.501 372.318C206.966 374.418 191.627 375.579 175.302 375.579C158.977 375.579 143.638 374.447 132.104 372.318C120.694 370.235 114.409 367.496 114.409 364.609V331.597C114.169 331.522 113.942 331.411 113.735 331.269V364.609C113.735 367.682 120.184 370.558 131.906 372.692C143.502 374.809 158.915 375.975 175.302 375.975C191.689 375.975 207.102 374.809 218.699 372.692C230.42 370.558 236.87 367.682 236.87 364.609L236.937 328.427C236.729 328.662 236.477 328.854 236.196 328.993Z" fill="#DAB689" stroke="#DAB689"/>
<path d="M127.002 301.308C118.004 303.101 108.913 304.391 99.7713 305.174C90.5995 306.035 81.3717 306.13 72.1841 305.457C69.8795 305.248 67.5749 304.964 65.2873 304.568C62.9884 304.188 60.7181 303.651 58.4924 302.961C56.2001 302.268 54.0159 301.258 52.0033 299.961C50.9653 299.267 50.0393 298.42 49.257 297.447C48.8581 296.941 48.5198 296.391 48.2491 295.806C47.968 295.218 47.7661 294.596 47.6489 293.955C47.4265 292.692 47.4943 291.395 47.8471 290.162C48.1791 288.987 48.6788 287.866 49.3307 286.834C50.5968 284.853 52.1201 283.049 53.8606 281.468C57.2889 278.389 61.0403 275.69 65.0494 273.419C61.3439 276.073 57.8733 279.04 54.6759 282.289C53.1134 283.879 51.764 285.666 50.6613 287.604C50.1419 288.538 49.7496 289.538 49.4948 290.576C49.2482 291.561 49.2328 292.589 49.4496 293.581C49.8799 295.523 51.3691 297.085 53.1471 298.24C55.015 299.378 57.0335 300.249 59.1436 300.827C63.4785 302.025 67.9233 302.784 72.4106 303.091C76.9405 303.504 81.4704 303.657 86.0003 303.657C90.5303 303.657 95.1055 303.521 99.6637 303.329C108.769 302.915 117.874 302.134 127.002 301.308Z" fill="#DAB689" stroke="#DAB689"/>
<path d="M273.115 219.967C277.595 220.001 282.062 220.475 286.45 221.382C288.678 221.854 290.849 222.562 292.927 223.493C293.993 223.976 295.003 224.572 295.94 225.271C296.921 225.996 297.766 226.889 298.437 227.908C299.129 228.975 299.547 230.196 299.654 231.463C299.744 232.71 299.578 233.962 299.167 235.143C298.787 236.278 298.27 237.364 297.627 238.375C297.01 239.365 296.323 240.311 295.572 241.205C294.084 242.942 292.455 244.553 290.702 246.022C289.003 247.499 287.174 248.852 285.334 250.171C281.637 252.723 277.808 255.077 273.862 257.224C271.892 258.294 269.898 259.318 267.9 260.315C265.901 261.311 263.879 262.273 261.841 263.19C253.71 266.876 245.372 270.089 236.87 272.813C245.012 269.168 253.115 265.5 261.048 261.492C265.012 259.477 268.942 257.445 272.769 255.232C276.597 253.018 280.391 250.748 283.981 248.207C287.603 245.776 290.926 242.926 293.879 239.716C295.306 238.179 296.438 236.393 297.22 234.446C297.563 233.526 297.723 232.547 297.69 231.565C297.648 230.6 297.368 229.661 296.874 228.831C296.35 227.967 295.679 227.201 294.892 226.567C294.065 225.908 293.178 225.328 292.242 224.835C290.302 223.838 288.264 223.043 286.161 222.463C281.881 221.307 277.52 220.472 273.115 219.967Z" fill="#DAB689" stroke="#DAB689"/>
<path d="M226.796 86.5835C226.796 86.7336 226.737 86.8776 226.63 86.9837C226.524 87.0899 226.38 87.1495 226.23 87.1495C226.08 87.1495 225.936 87.0899 225.83 86.9837C225.724 86.8776 225.664 86.7336 225.664 86.5835C225.664 86.4334 225.724 86.2894 225.83 86.1833C225.936 86.0771 226.08 86.0175 226.23 86.0175C226.38 86.0175 226.524 86.0771 226.63 86.1833C226.737 86.2894 226.796 86.4334 226.796 86.5835Z" fill="#DAB689" stroke="#DAB689"/>
<path d="M232.408 82.5193C232.408 82.6694 232.348 82.8134 232.242 82.9195C232.136 83.0257 231.992 83.0853 231.841 83.0853C231.691 83.0853 231.547 83.0257 231.441 82.9195C231.335 82.8134 231.275 82.6694 231.275 82.5193C231.275 82.3692 231.335 82.2252 231.441 82.119C231.547 82.0129 231.691 81.9532 231.841 81.9532C231.992 81.9532 232.136 82.0129 232.242 82.119C232.348 82.2252 232.408 82.3692 232.408 82.5193Z" fill="#DAB689" stroke="#DAB689"/>
<path d="M226.264 59.6737C226.262 60.012 226.127 60.3359 225.887 60.5746C225.647 60.8133 225.323 60.9473 224.984 60.9473C224.646 60.9473 224.322 60.8131 224.083 60.5743C223.844 60.3354 223.71 60.0115 223.71 59.6737C223.71 59.3354 223.844 59.0108 224.083 58.7711C224.322 58.5313 224.646 58.3959 224.984 58.3944C225.324 58.3944 225.649 58.5292 225.889 58.7691C226.129 59.009 226.264 59.3344 226.264 59.6737Z" fill="#DAB689" stroke="#DAB689"/>
<path d="M210.539 50.0848C210.538 50.4591 210.388 50.8176 210.123 51.0818C209.858 51.3459 209.498 51.4942 209.124 51.4942C208.75 51.4942 208.391 51.3458 208.127 51.0814C207.862 50.8171 207.714 50.4586 207.714 50.0848C207.713 49.8992 207.749 49.7153 207.82 49.5437C207.89 49.372 207.994 49.216 208.125 49.0845C208.256 48.953 208.412 48.8487 208.583 48.7775C208.754 48.7063 208.938 48.6697 209.124 48.6697C209.499 48.6697 209.859 48.8188 210.125 49.0842C210.39 49.3495 210.539 49.7095 210.539 50.0848Z" fill="#DAB689" stroke="#DAB689"/>
<path d="M224.99 50.3056C224.991 50.37 224.979 50.4339 224.954 50.4936C224.93 50.5533 224.895 50.6077 224.849 50.6535C224.804 50.6993 224.75 50.7356 224.691 50.7604C224.631 50.7853 224.567 50.798 224.503 50.798C224.372 50.798 224.247 50.7462 224.155 50.6538C224.062 50.5614 224.01 50.4362 224.01 50.3056C224.01 50.175 224.062 50.0497 224.155 49.9574C224.247 49.865 224.372 49.8131 224.503 49.8131C224.567 49.8131 224.631 49.8259 224.691 49.8507C224.75 49.8755 224.804 49.9119 224.849 49.9577C224.895 50.0035 224.93 50.0578 224.954 50.1175C224.979 50.1773 224.991 50.2412 224.99 50.3056V50.3056Z" fill="#DAB689" stroke="#DAB689"/>
<path d="M213.631 63.936C213.631 64.0229 213.614 64.109 213.581 64.1894C213.547 64.2697 213.499 64.3428 213.437 64.4043C213.376 64.4657 213.303 64.5145 213.222 64.5478C213.142 64.5811 213.056 64.5982 212.969 64.5982C212.793 64.5982 212.624 64.5285 212.5 64.4043C212.376 64.2801 212.306 64.1116 212.306 63.936C212.306 63.7603 212.376 63.5919 212.5 63.4677C212.624 63.3435 212.793 63.2737 212.969 63.2737C213.056 63.2737 213.142 63.2908 213.222 63.3241C213.303 63.3574 213.376 63.4062 213.437 63.4677C213.499 63.5292 213.547 63.6022 213.581 63.6825C213.614 63.7629 213.631 63.849 213.631 63.936V63.936Z" fill="#DAB689" stroke="#DAB689"/>
<path d="M211.258 57.2453C211.257 57.6092 211.111 57.9576 210.853 58.2143C210.596 58.471 210.246 58.6152 209.882 58.6152C209.519 58.6137 209.172 58.4689 208.915 58.2123C208.659 57.9557 208.514 57.6082 208.512 57.2453C208.512 56.882 208.657 56.5336 208.914 56.2767C209.171 56.0198 209.519 55.8755 209.882 55.8755C210.063 55.8748 210.242 55.9096 210.409 55.9781C210.576 56.0467 210.727 56.1474 210.855 56.2747C210.983 56.402 211.084 56.5532 211.154 56.7198C211.223 56.8864 211.258 57.065 211.258 57.2453V57.2453Z" fill="#DAB689" stroke="#DAB689"/>
<path d="M180.359 17.1296C180.359 17.4073 180.249 17.6736 180.052 17.87C179.856 18.0664 179.589 18.1767 179.311 18.1767C179.174 18.1767 179.038 18.1496 178.911 18.0969C178.785 18.0442 178.67 17.967 178.573 17.8697C178.476 17.7724 178.399 17.6569 178.347 17.5299C178.295 17.4028 178.269 17.2668 178.27 17.1296C178.27 16.8533 178.379 16.5884 178.575 16.3931C178.77 16.1978 179.035 16.088 179.311 16.088C179.449 16.0873 179.585 16.1137 179.712 16.1657C179.839 16.2177 179.954 16.2943 180.052 16.3911C180.149 16.4879 180.226 16.6029 180.279 16.7297C180.332 16.8564 180.359 16.9923 180.359 17.1296V17.1296Z" fill="#DAB689" stroke="#DAB689"/>
<path d="M160.24 16.1899C160.24 16.2995 160.197 16.4046 160.119 16.4821C160.042 16.5596 159.937 16.6031 159.827 16.6031C159.717 16.6031 159.611 16.5597 159.533 16.4824C159.454 16.4051 159.409 16.3 159.408 16.1899C159.408 16.0788 159.452 15.9722 159.531 15.8937C159.609 15.8151 159.716 15.771 159.827 15.771C159.937 15.7725 160.042 15.8173 160.12 15.8957C160.197 15.9741 160.24 16.0798 160.24 16.1899V16.1899Z" fill="#DAB689" stroke="#DAB689"/>
<path d="M150.937 14.8824C151.331 14.8824 151.651 14.5631 151.651 14.1692C151.651 13.7753 151.331 13.4559 150.937 13.4559C150.543 13.4559 150.224 13.7753 150.224 14.1692C150.224 14.5631 150.543 14.8824 150.937 14.8824Z" fill="#DAB689" stroke="#DAB689"/>
<path d="M142.46 2.04439C142.46 2.25457 142.377 2.45614 142.228 2.60476C142.08 2.75337 141.878 2.83686 141.668 2.83686C141.458 2.83537 141.258 2.75122 141.111 2.60276C140.963 2.45431 140.881 2.25359 140.881 2.04439C140.881 1.83572 140.964 1.63559 141.111 1.48804C141.259 1.34048 141.459 1.25759 141.668 1.25759C141.772 1.25684 141.875 1.27665 141.971 1.31586C142.067 1.35506 142.154 1.4129 142.228 1.48603C142.302 1.55917 142.36 1.64616 142.4 1.74199C142.44 1.83782 142.46 1.94059 142.46 2.04439V2.04439Z" fill="#DAB689" stroke="#DAB689"/>
<path d="M138.565 19.0767C138.565 19.214 138.539 19.35 138.487 19.477C138.435 19.6041 138.358 19.7195 138.261 19.8169C138.165 19.9142 138.049 19.9914 137.923 20.0441C137.796 20.0968 137.66 20.1239 137.523 20.1239C137.245 20.1239 136.978 20.0136 136.782 19.8172C136.585 19.6208 136.475 19.3545 136.475 19.0767C136.475 18.799 136.585 18.5326 136.782 18.3363C136.978 18.1399 137.245 18.0295 137.523 18.0295C137.66 18.0295 137.796 18.0567 137.923 18.1094C138.049 18.1621 138.165 18.2393 138.261 18.3366C138.358 18.4339 138.435 18.5494 138.487 18.6764C138.539 18.8034 138.565 18.9395 138.565 19.0767Z" fill="#DAB689" stroke="#DAB689"/>
<path d="M125.094 30.7543C125.553 30.7543 125.926 30.3817 125.926 29.9222C125.926 29.4626 125.553 29.0901 125.094 29.0901C124.634 29.0901 124.261 29.4626 124.261 29.9222C124.261 30.3817 124.634 30.7543 125.094 30.7543Z" fill="#DAB689" stroke="#DAB689"/>
<path d="M125.484 56.8037C125.484 57.2136 125.321 57.6066 125.032 57.8964C124.742 58.1862 124.348 58.349 123.938 58.349C123.528 58.349 123.134 58.1864 122.843 57.8968C122.553 57.6071 122.388 57.2141 122.387 56.8037C122.388 56.3934 122.553 56.0003 122.843 55.7107C123.134 55.421 123.528 55.2584 123.938 55.2584C124.348 55.2584 124.742 55.4212 125.032 55.711C125.321 56.0008 125.484 56.3939 125.484 56.8037V56.8037Z" fill="#DAB689" stroke="#DAB689"/>
<path d="M108.225 55.7C108.225 56.1098 108.063 56.5029 107.773 56.7927C107.483 57.0825 107.09 57.2453 106.68 57.2453C106.27 57.2453 105.876 57.0825 105.587 56.7927C105.297 56.5029 105.134 56.1098 105.134 55.7C105.134 55.2901 105.297 54.8971 105.587 54.6073C105.876 54.3175 106.27 54.1547 106.68 54.1547C107.09 54.1547 107.483 54.3175 107.773 54.6073C108.063 54.8971 108.225 55.2901 108.225 55.7V55.7Z" fill="#DAB689" stroke="#DAB689"/>
<path d="M103.577 55.5924C103.577 55.6374 103.568 55.6821 103.55 55.7237C103.533 55.7652 103.507 55.8029 103.475 55.8345C103.443 55.8662 103.405 55.8911 103.363 55.9078C103.321 55.9245 103.276 55.9327 103.231 55.932C103.141 55.932 103.055 55.8962 102.991 55.8325C102.927 55.7688 102.891 55.6824 102.891 55.5924C102.891 55.5023 102.927 55.4159 102.991 55.3522C103.055 55.2885 103.141 55.2527 103.231 55.2527C103.276 55.252 103.321 55.2602 103.363 55.2769C103.405 55.2937 103.443 55.3186 103.475 55.3502C103.507 55.3818 103.533 55.4195 103.55 55.4611C103.568 55.5027 103.577 55.5473 103.577 55.5924V55.5924Z" fill="#DAB689" stroke="#DAB689"/>
<path d="M121.991 89.8157C121.991 89.9718 121.96 90.1263 121.9 90.2706C121.84 90.4148 121.753 90.5458 121.642 90.6562C121.532 90.7666 121.401 90.8541 121.257 90.9139C121.112 90.9736 120.958 91.0044 120.802 91.0044C120.645 91.0044 120.491 90.9736 120.347 90.9139C120.202 90.8541 120.071 90.7666 119.961 90.6562C119.85 90.5458 119.763 90.4148 119.703 90.2706C119.643 90.1263 119.613 89.9718 119.613 89.8157C119.613 89.5004 119.738 89.198 119.961 88.9751C120.184 88.7522 120.486 88.627 120.802 88.627C121.117 88.627 121.419 88.7522 121.642 88.9751C121.865 89.198 121.991 89.5004 121.991 89.8157Z" fill="#DAB689" stroke="#DAB689"/>
<path d="M105.978 116.839C105.978 117.121 105.865 117.392 105.666 117.591C105.466 117.791 105.195 117.903 104.913 117.903C104.63 117.903 104.359 117.791 104.158 117.592C103.958 117.392 103.844 117.122 103.843 116.839C103.844 116.556 103.958 116.285 104.158 116.086C104.359 115.887 104.63 115.775 104.913 115.775C105.195 115.775 105.466 115.887 105.666 116.086C105.865 116.286 105.978 116.557 105.978 116.839V116.839Z" fill="#DAB689" stroke="#DAB689"/>
<path d="M77.6766 123.761C78.4616 123.761 79.0979 123.125 79.0979 122.341C79.0979 121.556 78.4616 120.92 77.6766 120.92C76.8917 120.92 76.2554 121.556 76.2554 122.341C76.2554 123.125 76.8917 123.761 77.6766 123.761Z" fill="#DAB689" stroke="#DAB689"/>
<path d="M69.2682 129.009C69.2682 129.233 69.1795 129.448 69.0215 129.607C68.8634 129.766 68.6488 129.856 68.4246 129.858C68.1993 129.858 67.9832 129.768 67.824 129.609C67.6647 129.45 67.5752 129.234 67.5752 129.009C67.5752 128.784 67.6647 128.568 67.824 128.408C67.9832 128.249 68.1993 128.16 68.4246 128.16C68.6488 128.161 68.8634 128.251 69.0215 128.41C69.1795 128.569 69.2682 128.785 69.2682 129.009Z" fill="#DAB689" stroke="#DAB689"/>
<path d="M74.9928 164.84C74.9935 164.956 74.9712 165.071 74.9272 165.179C74.8831 165.287 74.8181 165.385 74.736 165.468C74.6539 165.55 74.5563 165.616 74.4488 165.661C74.3412 165.705 74.2259 165.728 74.1094 165.728C73.9929 165.728 73.8776 165.705 73.7701 165.661C73.6625 165.616 73.5649 165.55 73.4828 165.468C73.4007 165.385 73.3357 165.287 73.2917 165.179C73.2476 165.071 73.2253 164.956 73.2261 164.84C73.2261 164.605 73.3192 164.381 73.4848 164.215C73.6505 164.05 73.8751 163.957 74.1094 163.957C74.3437 163.957 74.5684 164.05 74.734 164.215C74.8997 164.381 74.9928 164.605 74.9928 164.84V164.84Z" fill="#DAB689" stroke="#DAB689"/>
<path d="M32.8417 146.828C32.8417 147.23 32.6818 147.616 32.3972 147.901C32.1126 148.185 31.7267 148.345 31.3242 148.345C30.9217 148.345 30.5357 148.185 30.2512 147.901C29.9666 147.616 29.8066 147.23 29.8066 146.828C29.8066 146.425 29.9664 146.039 30.2508 145.753C30.5352 145.468 30.9212 145.307 31.3242 145.305C31.7272 145.307 32.1131 145.468 32.3976 145.753C32.682 146.039 32.8418 146.425 32.8417 146.828V146.828Z" fill="#DAB689" stroke="#DAB689"/>
<path d="M32.0773 170.24C32.0781 170.32 32.0628 170.4 32.0324 170.475C32.002 170.55 31.9571 170.618 31.9002 170.675C31.8434 170.733 31.7757 170.778 31.7011 170.809C31.6266 170.841 31.5466 170.857 31.4658 170.857C31.385 170.857 31.305 170.841 31.2304 170.809C31.1559 170.778 31.0882 170.733 31.0314 170.675C30.9745 170.618 30.9295 170.55 30.8991 170.475C30.8687 170.4 30.8535 170.32 30.8543 170.24C30.8543 170.077 30.9187 169.922 31.0334 169.807C31.1481 169.693 31.3036 169.628 31.4658 169.628C31.628 169.628 31.7835 169.693 31.8982 169.807C32.0129 169.922 32.0773 170.077 32.0773 170.24V170.24Z" fill="#DAB689" stroke="#DAB689"/>
<path d="M15.3337 180.174C15.3337 180.324 15.274 180.468 15.1678 180.574C15.0616 180.68 14.9176 180.74 14.7674 180.74C14.6172 180.74 14.4732 180.68 14.367 180.574C14.2608 180.468 14.2012 180.324 14.2012 180.174C14.2012 180.024 14.2608 179.88 14.367 179.773C14.4732 179.667 14.6172 179.608 14.7674 179.608C14.9176 179.608 15.0616 179.667 15.1678 179.773C15.274 179.88 15.3337 180.024 15.3337 180.174Z" fill="#DAB689" stroke="#DAB689"/>
<path d="M35.7977 188.551C35.7985 188.762 35.7575 188.97 35.6772 189.165C35.597 189.36 35.479 189.537 35.33 189.686C35.1811 189.834 35.0041 189.952 34.8094 190.033C34.6146 190.113 34.4059 190.154 34.1952 190.153C33.7702 190.153 33.3626 189.984 33.0621 189.684C32.7616 189.383 32.5928 188.976 32.5928 188.551C32.5928 188.126 32.7616 187.719 33.0621 187.418C33.3626 187.118 33.7702 186.949 34.1952 186.949C34.6202 186.949 35.0279 187.118 35.3284 187.418C35.6289 187.719 35.7977 188.126 35.7977 188.551V188.551Z" fill="#DAB689" stroke="#DAB689"/>
<path d="M3.27841 190.442C3.27841 190.715 3.16982 190.977 2.97656 191.17C2.78329 191.363 2.5212 191.472 2.24788 191.472C1.97456 191.472 1.7124 191.363 1.51914 191.17C1.32587 190.977 1.21729 190.715 1.21729 190.442C1.21878 190.17 1.32804 189.909 1.52114 189.717C1.71425 189.525 1.97554 189.417 2.24788 189.417C2.52022 189.417 2.78145 189.525 2.97455 189.717C3.16766 189.909 3.27691 190.17 3.27841 190.442V190.442Z" fill="#DAB689" stroke="#DAB689"/>
<path d="M36.075 207.412C36.075 207.587 36.0052 207.756 35.881 207.88C35.7568 208.004 35.5882 208.074 35.4125 208.074C35.2378 208.073 35.0707 208.002 34.9477 207.878C34.8247 207.754 34.7556 207.586 34.7556 207.412C34.7549 207.325 34.7714 207.239 34.804 207.159C34.8367 207.078 34.885 207.005 34.9461 206.944C35.0071 206.882 35.0798 206.833 35.1599 206.8C35.2399 206.767 35.3258 206.75 35.4125 206.75C35.5882 206.75 35.7568 206.819 35.881 206.943C36.0052 207.068 36.075 207.236 36.075 207.412V207.412Z" fill="#DAB689" stroke="#DAB689"/>
<path d="M27.9949 214.363C27.9949 214.392 27.9891 214.42 27.9779 214.447C27.9668 214.473 27.9504 214.497 27.9298 214.517C27.9092 214.537 27.8849 214.553 27.8581 214.563C27.8314 214.574 27.8027 214.579 27.774 214.578C27.7169 214.578 27.6622 214.555 27.6219 214.515C27.5815 214.475 27.5588 214.42 27.5588 214.363C27.5588 214.306 27.5815 214.251 27.6219 214.211C27.6622 214.17 27.7169 214.148 27.774 214.148C27.8027 214.147 27.8314 214.152 27.8581 214.163C27.8849 214.173 27.9092 214.189 27.9298 214.209C27.9504 214.229 27.9668 214.253 27.9779 214.279C27.9891 214.306 27.9949 214.334 27.9949 214.363Z" fill="#DAB689" stroke="#DAB689"/>
<path d="M60.9499 230.92C60.9499 231.137 60.9072 231.352 60.8241 231.552C60.741 231.753 60.6192 231.935 60.4656 232.089C60.3121 232.242 60.1298 232.364 59.9292 232.447C59.7286 232.53 59.5136 232.573 59.2965 232.573C58.858 232.573 58.4374 232.399 58.1273 232.089C57.8173 231.779 57.6431 231.358 57.6431 230.92C57.6431 230.482 57.8173 230.061 58.1273 229.751C58.4374 229.441 58.858 229.267 59.2965 229.267C59.5136 229.267 59.7286 229.31 59.9292 229.393C60.1298 229.476 60.3121 229.598 60.4656 229.751C60.6192 229.905 60.741 230.087 60.8241 230.287C60.9072 230.488 60.9499 230.703 60.9499 230.92V230.92Z" fill="#DAB689" stroke="#DAB689"/>
<path d="M63.0451 247.482C63.0451 247.621 62.9901 247.753 62.8925 247.851C62.7948 247.948 62.6623 248.003 62.5241 248.003C62.3859 248.003 62.2535 247.948 62.1558 247.851C62.0581 247.753 62.0032 247.621 62.0032 247.482C62.0025 247.414 62.0154 247.345 62.0412 247.281C62.0671 247.218 62.1053 247.16 62.1538 247.111C62.2022 247.062 62.2599 247.023 62.3234 246.996C62.387 246.97 62.4552 246.956 62.5241 246.956C62.593 246.956 62.6612 246.97 62.7248 246.996C62.7883 247.023 62.8461 247.062 62.8945 247.111C62.943 247.16 62.9812 247.218 63.0071 247.281C63.0329 247.345 63.0458 247.414 63.0451 247.482Z" fill="#DAB689" stroke="#DAB689"/>
<path d="M24.031 256.018C24.031 256.065 24.0218 256.112 24.0039 256.155C23.986 256.198 23.9597 256.237 23.9265 256.271C23.8934 256.304 23.8541 256.33 23.8108 256.348C23.7675 256.366 23.7212 256.375 23.6743 256.375C23.5807 256.374 23.4914 256.335 23.4257 256.269C23.3601 256.202 23.3232 256.112 23.3232 256.018C23.3232 255.925 23.3603 255.836 23.4261 255.77C23.4919 255.704 23.5812 255.667 23.6743 255.667C23.7679 255.667 23.8579 255.704 23.9246 255.77C23.9913 255.836 24.0296 255.925 24.031 256.018V256.018Z" fill="#DAB689" stroke="#DAB689"/>
<path d="M34.4216 277.228C34.8375 277.228 35.1747 276.891 35.1747 276.475C35.1747 276.059 34.8375 275.722 34.4216 275.722C34.0056 275.722 33.6685 276.059 33.6685 276.475C33.6685 276.891 34.0056 277.228 34.4216 277.228Z" fill="#DAB689" stroke="#DAB689"/>
<path d="M26.2961 286.483C26.2961 286.882 26.1374 287.265 25.8549 287.548C25.5725 287.83 25.1893 287.989 24.7898 287.989C24.3904 287.989 24.0073 287.83 23.7248 287.548C23.4424 287.265 23.2837 286.882 23.2837 286.483C23.2837 286.084 23.4424 285.701 23.7248 285.418C24.0073 285.136 24.3904 284.977 24.7898 284.977C25.1893 284.977 25.5725 285.136 25.8549 285.418C26.1374 285.701 26.2961 286.084 26.2961 286.483Z" fill="#DAB689" stroke="#DAB689"/>
<path d="M69.5341 293.853C69.7405 293.853 69.9078 293.686 69.9078 293.479C69.9078 293.273 69.7405 293.106 69.5341 293.106C69.3277 293.106 69.1604 293.273 69.1604 293.479C69.1604 293.686 69.3277 293.853 69.5341 293.853Z" fill="#DAB689" stroke="#DAB689"/>
<path d="M68.8773 331.903C68.878 331.954 68.8686 332.004 68.8495 332.051C68.8305 332.098 68.8021 332.141 68.7662 332.177C68.7303 332.213 68.6876 332.241 68.6405 332.26C68.5935 332.279 68.543 332.288 68.4922 332.288C68.4419 332.288 68.3921 332.278 68.3457 332.258C68.2993 332.239 68.2573 332.21 68.222 332.175C68.1867 332.139 68.1588 332.096 68.1401 332.05C68.1213 332.003 68.1121 331.953 68.1128 331.903C68.1128 331.802 68.1528 331.706 68.224 331.635C68.2951 331.563 68.3916 331.523 68.4922 331.523C68.5425 331.523 68.5924 331.532 68.6391 331.551C68.6858 331.569 68.7283 331.597 68.7642 331.633C68.8 331.668 68.8285 331.71 68.8479 331.756C68.8673 331.803 68.8773 331.852 68.8773 331.903Z" fill="#DAB689" stroke="#DAB689"/>
<path d="M64.0587 357.794C64.2307 357.794 64.3702 357.654 64.3702 357.482C64.3702 357.31 64.2307 357.171 64.0587 357.171C63.8867 357.171 63.7473 357.31 63.7473 357.482C63.7473 357.654 63.8867 357.794 64.0587 357.794Z" fill="#DAB689" stroke="#DAB689"/>
<path d="M96.7193 365.611C97.3729 365.611 97.9028 365.081 97.9028 364.428C97.9028 363.774 97.3729 363.245 96.7193 363.245C96.0657 363.245 95.5359 363.774 95.5359 364.428C95.5359 365.081 96.0657 365.611 96.7193 365.611Z" fill="#DAB689" stroke="#DAB689"/>
<path d="M98.2992 366.635C98.2992 367.065 98.1286 367.476 97.8249 367.78C97.5212 368.084 97.1093 368.254 96.6798 368.254C96.2498 368.254 95.8373 368.084 95.5327 367.78C95.2281 367.477 95.0562 367.065 95.0547 366.635C95.0562 366.205 95.2279 365.793 95.5323 365.488C95.8368 365.184 96.2493 365.012 96.6798 365.011C97.1098 365.012 97.5217 365.184 97.8252 365.489C98.1288 365.793 98.2992 366.205 98.2992 366.635V366.635Z" fill="#DAB689" stroke="#DAB689"/>
<path d="M124.697 382.134C124.697 382.327 124.62 382.513 124.483 382.65C124.346 382.787 124.161 382.864 123.967 382.864C123.773 382.864 123.587 382.787 123.45 382.65C123.313 382.513 123.236 382.327 123.236 382.134C123.236 382.037 123.254 381.942 123.29 381.853C123.327 381.764 123.381 381.683 123.449 381.616C123.517 381.548 123.597 381.494 123.686 381.457C123.775 381.421 123.871 381.403 123.967 381.403C124.161 381.403 124.346 381.48 124.483 381.617C124.62 381.754 124.697 381.94 124.697 382.134Z" fill="#DAB689" stroke="#DAB689"/>
<path d="M57.9943 395.804C58.6979 395.804 59.2683 395.234 59.2683 394.53C59.2683 393.827 58.6979 393.257 57.9943 393.257C57.2906 393.257 56.7202 393.827 56.7202 394.53C56.7202 395.234 57.2906 395.804 57.9943 395.804Z" fill="#DAB689" stroke="#DAB689"/>
<path d="M121.158 404.447C121.29 404.447 121.396 404.341 121.396 404.209C121.396 404.078 121.29 403.972 121.158 403.972C121.027 403.972 120.921 404.078 120.921 404.209C120.921 404.341 121.027 404.447 121.158 404.447Z" fill="#DAB689" stroke="#DAB689"/>
<path d="M97.8746 423.738C98.5438 423.738 99.0864 423.196 99.0864 422.527C99.0864 421.858 98.5438 421.315 97.8746 421.315C97.2054 421.315 96.6628 421.858 96.6628 422.527C96.6628 423.196 97.2054 423.738 97.8746 423.738Z" fill="#DAB689" stroke="#DAB689"/>
<path d="M271.558 111.218C272.183 111.218 272.69 110.711 272.69 110.086C272.69 109.46 272.183 108.954 271.558 108.954C270.932 108.954 270.425 109.46 270.425 110.086C270.425 110.711 270.932 111.218 271.558 111.218Z" fill="#DAB689" stroke="#DAB689"/>
<path d="M245.81 150.349C246.567 150.349 247.181 149.736 247.181 148.979C247.181 148.222 246.567 147.609 245.81 147.609C245.054 147.609 244.44 148.222 244.44 148.979C244.44 149.736 245.054 150.349 245.81 150.349Z" fill="#DAB689" stroke="#DAB689"/>
<path d="M285.023 128.924C285.023 129.118 284.946 129.303 284.809 129.44C284.672 129.577 284.486 129.654 284.292 129.654C284.099 129.654 283.913 129.577 283.776 129.44C283.639 129.303 283.562 129.118 283.562 128.924C283.562 128.73 283.639 128.543 283.775 128.406C283.912 128.268 284.098 128.189 284.292 128.188C284.486 128.189 284.672 128.268 284.809 128.406C284.946 128.543 285.023 128.73 285.023 128.924V128.924Z" fill="#DAB689" stroke="#DAB689"/>
<path d="M271.167 157.203C271.464 157.203 271.705 156.963 271.705 156.666C271.705 156.369 271.464 156.128 271.167 156.128C270.87 156.128 270.629 156.369 270.629 156.666C270.629 156.963 270.87 157.203 271.167 157.203Z" fill="#DAB689" stroke="#DAB689"/>
<path d="M311.681 162.643C311.681 162.708 311.656 162.77 311.61 162.815C311.564 162.861 311.502 162.887 311.438 162.887C311.373 162.887 311.31 162.861 311.264 162.816C311.217 162.77 311.19 162.708 311.189 162.643C311.19 162.578 311.217 162.516 311.264 162.471C311.31 162.425 311.373 162.4 311.438 162.4C311.502 162.4 311.564 162.426 311.61 162.471C311.656 162.517 311.681 162.579 311.681 162.643V162.643Z" fill="#DAB689" stroke="#DAB689"/>
<path d="M318.906 191.353C318.906 191.503 318.847 191.647 318.741 191.753C318.634 191.86 318.49 191.919 318.34 191.919C318.19 191.919 318.046 191.86 317.94 191.753C317.834 191.647 317.774 191.503 317.774 191.353C317.781 191.208 317.844 191.071 317.949 190.971C318.055 190.871 318.195 190.815 318.34 190.815C318.486 190.815 318.625 190.871 318.731 190.971C318.836 191.071 318.899 191.208 318.906 191.353Z" fill="#DAB689" stroke="#DAB689"/>
<path d="M296.466 221.693C296.466 222.129 296.293 222.546 295.985 222.854C295.677 223.162 295.26 223.335 294.824 223.335C294.389 223.335 293.971 223.162 293.663 222.854C293.355 222.546 293.182 222.129 293.182 221.693C293.182 221.258 293.355 220.84 293.663 220.533C293.971 220.225 294.389 220.052 294.824 220.052C295.26 220.052 295.677 220.225 295.985 220.533C296.293 220.84 296.466 221.258 296.466 221.693V221.693Z" fill="#DAB689" stroke="#DAB689"/>
<path d="M354.223 233.484C354.223 233.669 354.15 233.846 354.019 233.976C353.888 234.107 353.711 234.18 353.526 234.18C353.343 234.179 353.167 234.105 353.038 233.974C352.908 233.844 352.836 233.668 352.836 233.484C352.836 233.393 352.854 233.304 352.888 233.22C352.923 233.136 352.974 233.06 353.038 232.996C353.102 232.932 353.178 232.881 353.262 232.846C353.346 232.811 353.436 232.793 353.526 232.793C353.71 232.793 353.887 232.866 354.017 232.995C354.147 233.125 354.221 233.3 354.223 233.484Z" fill="#DAB689" stroke="#DAB689"/>
<path d="M347.264 262.811C347.264 262.93 347.24 263.048 347.195 263.158C347.149 263.267 347.083 263.367 346.998 263.451C346.914 263.535 346.814 263.602 346.705 263.648C346.595 263.693 346.477 263.717 346.358 263.717C346.119 263.715 345.89 263.619 345.721 263.449C345.552 263.28 345.458 263.05 345.458 262.811C345.458 262.572 345.552 262.343 345.721 262.175C345.89 262.006 346.119 261.911 346.358 261.911C346.597 261.911 346.827 262.006 346.996 262.174C347.166 262.343 347.262 262.572 347.264 262.811V262.811Z" fill="#DAB689" stroke="#DAB689"/>
<path d="M316.245 287.247C316.946 287.247 317.514 286.679 317.514 285.979C317.514 285.279 316.946 284.711 316.245 284.711C315.545 284.711 314.977 285.279 314.977 285.979C314.977 286.679 315.545 287.247 316.245 287.247Z" fill="#DAB689" stroke="#DAB689"/>
<path d="M289.564 305.463C289.562 305.799 289.428 306.122 289.189 306.36C288.95 306.597 288.627 306.731 288.29 306.731C287.954 306.729 287.632 306.595 287.395 306.358C287.157 306.12 287.023 305.798 287.021 305.463C287.021 305.126 287.155 304.803 287.393 304.564C287.63 304.325 287.953 304.19 288.29 304.189C288.628 304.189 288.952 304.323 289.191 304.562C289.43 304.801 289.564 305.125 289.564 305.463Z" fill="#DAB689" stroke="#DAB689"/>
<path d="M283.341 331.229C284.095 331.229 284.706 330.618 284.706 329.865C284.706 329.112 284.095 328.501 283.341 328.501C282.587 328.501 281.976 329.112 281.976 329.865C281.976 330.618 282.587 331.229 283.341 331.229Z" fill="#DAB689" stroke="#DAB689"/>
<path d="M296.914 369.352C296.914 369.561 296.831 369.761 296.683 369.909C296.536 370.056 296.335 370.139 296.127 370.139C295.918 370.139 295.718 370.056 295.57 369.909C295.423 369.761 295.34 369.561 295.34 369.352C295.34 369.249 295.36 369.147 295.4 369.052C295.439 368.957 295.497 368.87 295.57 368.798C295.644 368.725 295.73 368.668 295.826 368.629C295.921 368.59 296.024 368.57 296.127 368.571C296.23 368.57 296.332 368.59 296.427 368.629C296.523 368.668 296.61 368.725 296.683 368.798C296.756 368.87 296.814 368.957 296.854 369.052C296.893 369.147 296.914 369.249 296.914 369.352V369.352Z" fill="#DAB689" stroke="#DAB689"/>
<path d="M274.44 394.423C274.44 394.784 274.296 395.131 274.04 395.387C273.784 395.643 273.437 395.787 273.075 395.787C272.713 395.787 272.366 395.643 272.11 395.387C271.854 395.131 271.71 394.784 271.71 394.423C271.71 394.061 271.854 393.714 272.11 393.458C272.366 393.202 272.713 393.058 273.075 393.058C273.437 393.058 273.784 393.202 274.04 393.458C274.296 393.714 274.44 394.061 274.44 394.423V394.423Z" fill="#DAB689" stroke="#DAB689"/>
<path d="M224.758 402.257C224.758 402.419 224.693 402.574 224.579 402.689C224.464 402.804 224.308 402.868 224.146 402.868C223.984 402.868 223.829 402.804 223.714 402.689C223.599 402.574 223.535 402.419 223.535 402.257C223.535 402.094 223.599 401.939 223.714 401.824C223.829 401.71 223.984 401.645 224.146 401.645C224.308 401.645 224.464 401.71 224.579 401.824C224.693 401.939 224.758 402.094 224.758 402.257Z" fill="#DAB689" stroke="#DAB689"/>
<path d="M246.966 428.816C246.966 428.881 246.94 428.943 246.895 428.99C246.849 429.036 246.787 429.063 246.722 429.065C246.656 429.065 246.593 429.039 246.546 428.992C246.499 428.945 246.473 428.882 246.473 428.816C246.475 428.751 246.502 428.689 246.548 428.643C246.595 428.598 246.657 428.572 246.722 428.572C246.754 428.572 246.786 428.579 246.816 428.591C246.845 428.603 246.872 428.621 246.895 428.644C246.917 428.666 246.935 428.693 246.947 428.723C246.96 428.752 246.966 428.784 246.966 428.816V428.816Z" fill="#DAB689" stroke="#DAB689"/>
<path d="M214.214 432.048C214.213 432.433 214.059 432.801 213.786 433.073C213.513 433.344 213.144 433.497 212.759 433.497C212.375 433.497 212.006 433.344 211.734 433.072C211.462 432.801 211.31 432.432 211.31 432.048C211.31 431.663 211.462 431.294 211.734 431.021C212.005 430.748 212.374 430.595 212.759 430.593C213.145 430.593 213.515 430.746 213.788 431.019C214.061 431.292 214.214 431.662 214.214 432.048V432.048Z" fill="#DAB689" stroke="#DAB689"/>
<path d="M202.204 436.848C202.204 437.148 202.085 437.436 201.873 437.648C201.66 437.861 201.372 437.98 201.072 437.98C200.772 437.98 200.483 437.861 200.271 437.648C200.059 437.436 199.939 437.148 199.939 436.848C199.939 436.547 200.059 436.259 200.271 436.047C200.483 435.835 200.772 435.716 201.072 435.716C201.372 435.716 201.66 435.835 201.873 436.047C202.085 436.259 202.204 436.547 202.204 436.848Z" fill="#DAB689" stroke="#DAB689"/>
<path d="M256.807 459.257C257.132 459.257 257.396 458.994 257.396 458.669C257.396 458.344 257.132 458.08 256.807 458.08C256.482 458.08 256.218 458.344 256.218 458.669C256.218 458.994 256.482 459.257 256.807 459.257Z" fill="#DAB689" stroke="#DAB689"/>
</svg>
