<svg width="543" height="594" viewBox="0 0 543 594" fill="none" xmlns="http://www.w3.org/2000/svg">
<path d="M269.243 175.033H268.57V209.347H269.243V175.033Z" fill="#DAB689" stroke="#DAB689"/>
<path d="M240.35 139.237L239.687 139.354L252.293 210.825L252.957 210.708L240.35 139.237Z" fill="#DAB689" stroke="#DAB689"/>
<path d="M225.595 182.51L224.961 182.741L236.701 214.985L237.335 214.755L225.595 182.51Z" fill="#DAB689" stroke="#DAB689"/>
<path d="M182.83 159.521L182.244 159.857L218.543 222.996L219.129 222.659L182.83 159.521Z" fill="#DAB689" stroke="#DAB689"/>
<path d="M187.146 204.464L186.629 204.897L208.693 231.183L209.21 230.75L187.146 204.464Z" fill="#DAB689" stroke="#DAB689"/>
<path d="M142.002 195.608L141.569 196.124L197.182 242.773L197.615 242.257L142.002 195.608Z" fill="#DAB689" stroke="#DAB689"/>
<path d="M158.523 238.231L158.187 238.814L187.913 255.971L188.25 255.387L158.523 238.231Z" fill="#DAB689" stroke="#DAB689"/>
<path d="M113.071 245.348L112.84 245.981L181.06 270.802L181.29 270.169L113.071 245.348Z" fill="#DAB689" stroke="#DAB689"/>
<path d="M425.322 244.913L357.098 269.722L357.328 270.355L425.552 245.546L425.322 244.913Z" fill="#DAB689" stroke="#DAB689"/>
<path d="M379.754 237.669L350.027 254.826L350.364 255.409L380.091 238.252L379.754 237.669Z" fill="#DAB689" stroke="#DAB689"/>
<path d="M396.185 194.809L340.581 241.467L341.014 241.983L396.619 195.325L396.185 194.809Z" fill="#DAB689" stroke="#DAB689"/>
<path d="M350.842 203.571L328.783 229.861L329.299 230.294L351.358 204.004L350.842 203.571Z" fill="#DAB689" stroke="#DAB689"/>
<path d="M351.63 157.687L315.331 220.537L315.914 220.873L352.213 158.023L351.63 157.687Z" fill="#DAB689" stroke="#DAB689"/>
<path d="M312.125 181.434L300.39 213.68L301.023 213.911L312.758 181.664L312.125 181.434Z" fill="#DAB689" stroke="#DAB689"/>
<path d="M297.15 138.038L284.531 209.506L285.195 209.623L297.814 138.155L297.15 138.038Z" fill="#DAB689" stroke="#DAB689"/>
<path d="M268.904 388.801C257.542 388.828 246.287 386.603 235.79 382.256C225.293 377.908 215.763 371.523 207.75 363.471C199.695 355.46 193.308 345.933 188.96 335.44C184.612 324.946 182.387 313.695 182.416 302.337C182.387 290.979 184.611 279.728 188.959 269.235C193.308 258.742 199.694 249.214 207.75 241.204C215.762 233.151 225.292 226.765 235.789 222.417C246.286 218.069 257.541 215.845 268.904 215.874C280.266 215.844 291.522 218.068 302.019 222.416C312.516 226.764 322.046 233.15 330.058 241.204C338.115 249.213 344.503 258.74 348.852 269.234C353.202 279.727 355.426 290.979 355.397 302.337C355.426 313.696 353.201 324.947 348.852 335.441C344.502 345.934 338.114 355.461 330.058 363.471C322.045 371.524 312.515 377.909 302.018 382.257C291.521 386.605 280.266 388.829 268.904 388.801ZM268.904 216.513C221.577 216.513 183.073 255.005 183.073 302.321C183.073 349.636 221.577 388.128 268.904 388.128C316.23 388.128 354.74 349.636 354.74 302.321C354.74 255.005 316.236 216.519 268.904 216.519V216.513Z" fill="#DAB689" stroke="#DAB689"/>
<path d="M268.881 330.917C242.93 330.917 221.566 313.324 221.357 313.143L221.045 312.888L221.357 312.628C221.566 312.453 242.93 294.86 268.881 294.86C294.832 294.86 316.196 312.453 316.406 312.628L316.717 312.888L316.406 313.143C316.196 313.313 294.832 330.917 268.881 330.917ZM222.11 312.888C224.862 315.068 244.907 330.243 268.881 330.243C292.856 330.243 312.901 315.068 315.653 312.888C312.901 310.709 292.856 295.533 268.881 295.533C244.907 295.533 224.862 310.709 222.087 312.888H222.11Z" fill="#DAB689" stroke="#DAB689"/>
<path d="M317.844 311.434C312.272 307.104 292.272 292.975 268.881 292.975C246.163 292.975 227.109 305.853 219.969 311.394L219.556 310.862C226.747 305.281 245.954 292.302 268.881 292.302C291.808 292.302 311.06 305.321 318.257 310.902L317.844 311.434Z" fill="#DAB689" stroke="#DAB689"/>
<path d="M217.121 309.985L216.696 309.458C224.408 303.232 244.929 288.781 268.881 288.781C292.397 288.781 312.725 302.858 320.375 308.909L319.956 309.436C312.363 303.43 292.21 289.454 268.881 289.454C245.144 289.454 224.777 303.809 217.121 309.985Z" fill="#DAB689" stroke="#DAB689"/>
<path d="M268.881 330.617C264.179 330.611 259.672 328.741 256.348 325.418C253.023 322.094 251.152 317.589 251.146 312.889C251.152 308.188 253.023 303.683 256.348 300.359C259.672 297.036 264.179 295.166 268.881 295.16C273.587 295.16 278.1 297.027 281.43 300.351C284.759 303.675 286.632 308.185 286.638 312.889C286.632 317.593 284.759 322.102 281.43 325.426C278.1 328.75 273.587 330.617 268.881 330.617ZM268.881 295.834C264.358 295.838 260.021 297.636 256.822 300.834C253.624 304.031 251.825 308.367 251.82 312.889C251.826 317.41 253.626 321.744 256.824 324.942C260.022 328.139 264.358 329.938 268.881 329.944C273.404 329.938 277.74 328.139 280.938 324.942C284.137 321.744 285.936 317.41 285.942 312.889C285.938 308.367 284.139 304.031 280.94 300.834C277.742 297.636 273.405 295.838 268.881 295.834Z" fill="#DAB689" stroke="#DAB689"/>
<path d="M273.678 313.682C274.111 311.012 272.298 308.497 269.628 308.064C266.958 307.631 264.442 309.443 264.009 312.113C263.575 314.782 265.388 317.297 268.059 317.73C270.729 318.163 273.245 316.351 273.678 313.682Z" fill="#DAB689" stroke="#DAB689"/>
<path d="M204.462 296.707L203.981 297.178L216.541 309.982L217.022 309.51L204.462 296.707Z" fill="#DAB689" stroke="#DAB689"/>
<path d="M268.87 252.237H268.196V289.12H268.87V252.237Z" fill="#DAB689" stroke="#DAB689"/>
<path d="M246.123 273.788L245.475 273.972L250.546 291.815L251.194 291.631L246.123 273.788Z" fill="#DAB689" stroke="#DAB689"/>
<path d="M221.885 284.062L221.35 284.471L232.632 299.234L233.167 298.825L221.885 284.062Z" fill="#DAB689" stroke="#DAB689"/>
<path d="M332.499 296.123L319.937 308.925L320.418 309.396L332.98 296.595L332.499 296.123Z" fill="#DAB689" stroke="#DAB689"/>
<path d="M291.008 275.726L285.836 291.61L286.477 291.818L291.649 275.934L291.008 275.726Z" fill="#DAB689" stroke="#DAB689"/>
<path d="M315.742 283.748L304.327 298.935L304.866 299.339L316.281 284.152L315.742 283.748Z" fill="#DAB689" stroke="#DAB689"/>
<path d="M202.523 295.941C202.523 295.641 202.643 295.353 202.855 295.141C203.067 294.928 203.355 294.809 203.656 294.809C203.956 294.809 204.244 294.928 204.457 295.141C204.669 295.353 204.788 295.641 204.788 295.941C204.788 296.241 204.669 296.529 204.457 296.742C204.244 296.954 203.956 297.073 203.656 297.073C203.355 297.073 203.067 296.954 202.855 296.742C202.643 296.529 202.523 296.241 202.523 295.941Z" fill="#DAB689" stroke="#DAB689"/>
<path d="M219.765 283.313C219.765 283.012 219.885 282.724 220.097 282.512C220.309 282.3 220.598 282.18 220.898 282.18C221.198 282.18 221.486 282.3 221.699 282.512C221.911 282.724 222.03 283.012 222.03 283.313C222.03 283.613 221.911 283.901 221.699 284.113C221.486 284.325 221.198 284.445 220.898 284.445C220.598 284.445 220.309 284.325 220.097 284.113C219.885 283.901 219.765 283.613 219.765 283.313Z" fill="#DAB689" stroke="#DAB689"/>
<path d="M317.312 283.313C317.312 283.012 317.192 282.724 316.98 282.512C316.768 282.3 316.479 282.18 316.179 282.18C315.879 282.18 315.591 282.3 315.378 282.512C315.166 282.724 315.047 283.012 315.047 283.313C315.047 283.613 315.166 283.901 315.378 284.113C315.591 284.325 315.879 284.445 316.179 284.445C316.479 284.445 316.768 284.325 316.98 284.113C317.192 283.901 317.312 283.613 317.312 283.313Z" fill="#DAB689" stroke="#DAB689"/>
<path d="M334.106 295.8C334.106 295.499 333.987 295.211 333.775 294.999C333.562 294.787 333.274 294.667 332.974 294.667C332.673 294.667 332.385 294.787 332.173 294.999C331.961 295.211 331.841 295.499 331.841 295.8C331.841 296.1 331.961 296.388 332.173 296.6C332.385 296.812 332.673 296.932 332.974 296.932C333.274 296.932 333.562 296.812 333.775 296.6C333.987 296.388 334.106 296.1 334.106 295.8Z" fill="#DAB689" stroke="#DAB689"/>
<path d="M292.776 274.731C292.776 274.431 292.657 274.143 292.445 273.931C292.232 273.719 291.944 273.599 291.644 273.599C291.344 273.599 291.056 273.719 290.843 273.931C290.631 274.143 290.511 274.431 290.511 274.731C290.511 275.032 290.631 275.32 290.843 275.532C291.056 275.744 291.344 275.864 291.644 275.864C291.944 275.864 292.232 275.744 292.445 275.532C292.657 275.32 292.776 275.032 292.776 274.731Z" fill="#DAB689" stroke="#DAB689"/>
<path d="M244.51 273.333C244.51 273.033 244.629 272.745 244.842 272.533C245.054 272.32 245.342 272.201 245.642 272.201C245.943 272.201 246.231 272.32 246.443 272.533C246.656 272.745 246.775 273.033 246.775 273.333C246.775 273.633 246.656 273.921 246.443 274.134C246.231 274.346 245.943 274.465 245.642 274.465C245.342 274.465 245.054 274.346 244.842 274.134C244.629 273.921 244.51 273.633 244.51 273.333Z" fill="#DAB689" stroke="#DAB689"/>
<path d="M268.535 252.271C269.155 252.271 269.657 251.769 269.657 251.15C269.657 250.531 269.155 250.029 268.535 250.029C267.916 250.029 267.414 250.531 267.414 251.15C267.414 251.769 267.916 252.271 268.535 252.271Z" fill="#DAB689" stroke="#DAB689"/>
<path d="M257.545 277.165L258.893 280.052L260.246 282.933L258.502 283.211L256.752 283.482L257.149 280.324L257.545 277.165Z" fill="#DAB689" stroke="#DAB689"/>
<path d="M235.773 282.939L237.851 285.345L239.935 287.756L238.332 288.492L236.73 289.233L236.249 286.086L235.773 282.939Z" fill="#DAB689" stroke="#DAB689"/>
<path d="M216.532 294.362L218.989 296.383L221.447 298.409L219.986 299.405L218.531 300.402L217.534 297.385L216.532 294.362Z" fill="#DAB689" stroke="#DAB689"/>
<path d="M279.526 277.165L278.173 280.052L276.825 282.933L278.569 283.211L280.313 283.482L279.917 280.324L279.526 277.165Z" fill="#DAB689" stroke="#DAB689"/>
<path d="M301.298 282.939L299.214 285.345L297.131 287.756L298.739 288.492L300.341 289.233L300.817 286.086L301.298 282.939Z" fill="#DAB689" stroke="#DAB689"/>
<path d="M320.534 294.362L318.082 296.383L315.624 298.409L317.079 299.405L318.54 300.402L319.537 297.385L320.534 294.362Z" fill="#DAB689" stroke="#DAB689"/>
<path d="M331.196 361.993V397.609C331.196 400.496 324.91 403.235 313.501 405.318C301.966 407.418 286.627 408.579 270.302 408.579C253.977 408.579 238.638 407.447 227.104 405.318C215.694 403.235 209.409 400.496 209.409 397.609V364.597C209.169 364.522 208.942 364.411 208.735 364.269V397.609C208.735 400.682 215.184 403.558 226.906 405.692C238.502 407.809 253.915 408.975 270.302 408.975C286.689 408.975 302.102 407.809 313.699 405.692C325.42 403.558 331.87 400.682 331.87 397.609L331.937 361.427C331.729 361.662 331.477 361.854 331.196 361.993Z" fill="#DAB689" stroke="#DAB689"/>
<path d="M222.002 334.308C213.004 336.101 203.913 337.391 194.771 338.174C185.599 339.035 176.372 339.13 167.184 338.457C164.88 338.248 162.575 337.964 160.287 337.568C157.988 337.188 155.718 336.651 153.492 335.961C151.2 335.268 149.016 334.258 147.003 332.961C145.965 332.267 145.039 331.42 144.257 330.447C143.858 329.941 143.52 329.391 143.249 328.806C142.968 328.218 142.766 327.596 142.649 326.955C142.426 325.692 142.494 324.395 142.847 323.162C143.179 321.987 143.679 320.866 144.331 319.834C145.597 317.853 147.12 316.049 148.861 314.468C152.289 311.389 156.04 308.69 160.049 306.419C156.344 309.073 152.873 312.041 149.676 315.289C148.113 316.879 146.764 318.666 145.661 320.604C145.142 321.538 144.75 322.538 144.495 323.576C144.248 324.561 144.233 325.589 144.45 326.581C144.88 328.523 146.369 330.085 148.147 331.24C150.015 332.378 152.033 333.249 154.144 333.827C158.479 335.025 162.923 335.784 167.411 336.091C171.94 336.504 176.47 336.657 181 336.657C185.53 336.657 190.105 336.521 194.664 336.329C203.769 335.915 212.874 335.134 222.002 334.308Z" fill="#DAB689" stroke="#DAB689"/>
<path d="M368.115 252.967C372.595 253.001 377.062 253.475 381.45 254.382C383.678 254.854 385.849 255.562 387.927 256.493C388.993 256.976 390.003 257.572 390.94 258.271C391.921 258.996 392.766 259.889 393.437 260.908C394.129 261.975 394.547 263.196 394.654 264.463C394.744 265.71 394.578 266.962 394.167 268.143C393.787 269.278 393.27 270.364 392.627 271.375C392.01 272.365 391.323 273.311 390.572 274.205C389.084 275.942 387.455 277.553 385.702 279.022C384.003 280.499 382.174 281.852 380.334 283.171C376.637 285.723 372.808 288.077 368.862 290.224C366.892 291.294 364.898 292.318 362.9 293.315C360.901 294.311 358.879 295.273 356.841 296.19C348.71 299.876 340.372 303.089 331.87 305.813C340.012 302.168 348.115 298.5 356.048 294.492C360.012 292.477 363.942 290.445 367.769 288.231C371.597 286.018 375.391 283.748 378.981 281.207C382.603 278.776 385.926 275.926 388.879 272.716C390.306 271.179 391.438 269.393 392.22 267.446C392.563 266.526 392.723 265.547 392.69 264.565C392.648 263.6 392.368 262.661 391.874 261.831C391.35 260.967 390.679 260.201 389.892 259.567C389.065 258.908 388.178 258.328 387.242 257.835C385.302 256.838 383.264 256.043 381.161 255.463C376.881 254.307 372.52 253.472 368.115 252.967Z" fill="#DAB689" stroke="#DAB689"/>
<path d="M321.796 119.583C321.796 119.734 321.737 119.878 321.63 119.984C321.524 120.09 321.38 120.15 321.23 120.15C321.08 120.15 320.936 120.09 320.83 119.984C320.724 119.878 320.664 119.734 320.664 119.583C320.664 119.433 320.724 119.289 320.83 119.183C320.936 119.077 321.08 119.017 321.23 119.017C321.38 119.017 321.524 119.077 321.63 119.183C321.737 119.289 321.796 119.433 321.796 119.583Z" fill="#DAB689" stroke="#DAB689"/>
<path d="M327.408 115.519C327.408 115.669 327.348 115.813 327.242 115.92C327.136 116.026 326.992 116.085 326.841 116.085C326.691 116.085 326.547 116.026 326.441 115.92C326.335 115.813 326.275 115.669 326.275 115.519C326.275 115.369 326.335 115.225 326.441 115.119C326.547 115.013 326.691 114.953 326.841 114.953C326.992 114.953 327.136 115.013 327.242 115.119C327.348 115.225 327.408 115.369 327.408 115.519Z" fill="#DAB689" stroke="#DAB689"/>
<path d="M321.264 92.6737C321.262 93.012 321.127 93.3359 320.887 93.5746C320.647 93.8133 320.323 93.9473 319.984 93.9473C319.646 93.9473 319.322 93.8131 319.083 93.5743C318.844 93.3354 318.71 93.0115 318.71 92.6737C318.71 92.3354 318.844 92.0108 319.083 91.7711C319.322 91.5313 319.646 91.3959 319.984 91.3944C320.324 91.3944 320.649 91.5292 320.889 91.7691C321.129 92.009 321.264 92.3344 321.264 92.6737Z" fill="#DAB689" stroke="#DAB689"/>
<path d="M305.539 83.0848C305.538 83.4591 305.388 83.8176 305.123 84.0818C304.858 84.3459 304.498 84.4942 304.124 84.4942C303.75 84.4942 303.391 84.3458 303.127 84.0814C302.862 83.8171 302.714 83.4586 302.714 83.0848C302.713 82.8992 302.749 82.7153 302.82 82.5437C302.89 82.372 302.994 82.216 303.125 82.0845C303.256 81.953 303.412 81.8487 303.583 81.7775C303.754 81.7063 303.938 81.6697 304.124 81.6697C304.499 81.6697 304.859 81.8188 305.125 82.0842C305.39 82.3495 305.539 82.7095 305.539 83.0848Z" fill="#DAB689" stroke="#DAB689"/>
<path d="M319.99 83.3056C319.991 83.37 319.979 83.4339 319.954 83.4936C319.93 83.5533 319.895 83.6077 319.849 83.6535C319.804 83.6993 319.75 83.7356 319.691 83.7604C319.631 83.7853 319.567 83.798 319.503 83.798C319.372 83.798 319.247 83.7462 319.155 83.6538C319.062 83.5614 319.01 83.4362 319.01 83.3056C319.01 83.175 319.062 83.0497 319.155 82.9574C319.247 82.865 319.372 82.8131 319.503 82.8131C319.567 82.8131 319.631 82.8259 319.691 82.8507C319.75 82.8755 319.804 82.9119 319.849 82.9577C319.895 83.0035 319.93 83.0578 319.954 83.1175C319.979 83.1773 319.991 83.2412 319.99 83.3056Z" fill="#DAB689" stroke="#DAB689"/>
<path d="M308.631 96.936C308.631 97.0229 308.614 97.109 308.581 97.1894C308.547 97.2697 308.499 97.3428 308.437 97.4043C308.376 97.4657 308.303 97.5145 308.222 97.5478C308.142 97.5811 308.056 97.5982 307.969 97.5982C307.793 97.5982 307.624 97.5285 307.5 97.4043C307.376 97.2801 307.306 97.1116 307.306 96.936C307.306 96.7603 307.376 96.5919 307.5 96.4677C307.624 96.3435 307.793 96.2737 307.969 96.2737C308.056 96.2737 308.142 96.2908 308.222 96.3241C308.303 96.3574 308.376 96.4062 308.437 96.4677C308.499 96.5292 308.547 96.6022 308.581 96.6825C308.614 96.7629 308.631 96.849 308.631 96.936Z" fill="#DAB689" stroke="#DAB689"/>
<path d="M306.258 90.2453C306.257 90.6092 306.111 90.9576 305.853 91.2143C305.596 91.471 305.246 91.6152 304.882 91.6152C304.519 91.6137 304.172 91.4689 303.915 91.2123C303.659 90.9557 303.514 90.6082 303.512 90.2453C303.512 89.882 303.657 89.5336 303.914 89.2767C304.171 89.0198 304.519 88.8755 304.882 88.8755C305.063 88.8748 305.242 88.9096 305.409 88.9781C305.576 89.0467 305.727 89.1474 305.855 89.2747C305.983 89.402 306.084 89.5532 306.154 89.7198C306.223 89.8864 306.258 90.065 306.258 90.2453Z" fill="#DAB689" stroke="#DAB689"/>
<path d="M275.359 50.1296C275.359 50.4073 275.249 50.6736 275.052 50.87C274.856 51.0664 274.589 51.1767 274.311 51.1767C274.174 51.1767 274.038 51.1496 273.911 51.0969C273.785 51.0442 273.67 50.967 273.573 50.8697C273.476 50.7724 273.399 50.6569 273.347 50.5299C273.295 50.4028 273.269 50.2668 273.27 50.1296C273.27 49.8533 273.379 49.5884 273.575 49.3931C273.77 49.1978 274.035 49.088 274.311 49.088C274.449 49.0873 274.585 49.1137 274.712 49.1657C274.839 49.2177 274.954 49.2943 275.052 49.3911C275.149 49.4879 275.226 49.6029 275.279 49.7297C275.332 49.8564 275.359 49.9923 275.359 50.1296Z" fill="#DAB689" stroke="#DAB689"/>
<path d="M255.24 49.1899C255.24 49.2995 255.197 49.4046 255.119 49.4821C255.042 49.5596 254.937 49.6031 254.827 49.6031C254.717 49.6031 254.611 49.5597 254.533 49.4824C254.454 49.4051 254.409 49.3 254.408 49.1899C254.408 49.0788 254.452 48.9722 254.531 48.8937C254.609 48.8151 254.716 48.771 254.827 48.771C254.937 48.7725 255.042 48.8173 255.12 48.8957C255.197 48.9741 255.24 49.0798 255.24 49.1899Z" fill="#DAB689" stroke="#DAB689"/>
<path d="M245.937 47.8824C246.331 47.8824 246.651 47.5631 246.651 47.1692C246.651 46.7753 246.331 46.4559 245.937 46.4559C245.543 46.4559 245.224 46.7753 245.224 47.1692C245.224 47.5631 245.543 47.8824 245.937 47.8824Z" fill="#DAB689" stroke="#DAB689"/>
<path d="M237.46 35.0444C237.46 35.2546 237.377 35.4561 237.228 35.6048C237.08 35.7534 236.878 35.8369 236.668 35.8369C236.458 35.8354 236.258 35.7512 236.111 35.6028C235.963 35.4543 235.881 35.2536 235.881 35.0444C235.881 34.8357 235.964 34.6356 236.111 34.488C236.259 34.3405 236.459 34.2576 236.668 34.2576C236.772 34.2568 236.875 34.2766 236.971 34.3159C237.067 34.3551 237.154 34.4129 237.228 34.486C237.302 34.5592 237.36 34.6462 237.4 34.742C237.44 34.8378 237.46 34.9406 237.46 35.0444Z" fill="#DAB689" stroke="#DAB689"/>
<path d="M233.565 52.0767C233.565 52.214 233.539 52.35 233.487 52.477C233.435 52.6041 233.358 52.7195 233.261 52.8169C233.165 52.9142 233.049 52.9914 232.923 53.0441C232.796 53.0968 232.66 53.1239 232.523 53.1239C232.245 53.1239 231.978 53.0136 231.782 52.8172C231.585 52.6208 231.475 52.3545 231.475 52.0767C231.475 51.799 231.585 51.5326 231.782 51.3363C231.978 51.1399 232.245 51.0295 232.523 51.0295C232.66 51.0295 232.796 51.0567 232.923 51.1094C233.049 51.1621 233.165 51.2393 233.261 51.3366C233.358 51.4339 233.435 51.5494 233.487 51.6764C233.539 51.8034 233.565 51.9395 233.565 52.0767Z" fill="#DAB689" stroke="#DAB689"/>
<path d="M220.094 63.7543C220.553 63.7543 220.926 63.3817 220.926 62.9222C220.926 62.4626 220.553 62.0901 220.094 62.0901C219.634 62.0901 219.261 62.4626 219.261 62.9222C219.261 63.3817 219.634 63.7543 220.094 63.7543Z" fill="#DAB689" stroke="#DAB689"/>
<path d="M220.484 89.8037C220.484 90.2136 220.321 90.6066 220.032 90.8964C219.742 91.1862 219.348 91.349 218.938 91.349C218.528 91.349 218.134 91.1864 217.843 90.8968C217.553 90.6071 217.388 90.2141 217.387 89.8037C217.388 89.3934 217.553 89.0003 217.843 88.7107C218.134 88.421 218.528 88.2584 218.938 88.2584C219.348 88.2584 219.742 88.4212 220.032 88.711C220.321 89.0008 220.484 89.3939 220.484 89.8037Z" fill="#DAB689" stroke="#DAB689"/>
<path d="M203.225 88.7C203.225 89.1098 203.063 89.5029 202.773 89.7927C202.483 90.0825 202.09 90.2453 201.68 90.2453C201.27 90.2453 200.876 90.0825 200.587 89.7927C200.297 89.5029 200.134 89.1098 200.134 88.7C200.134 88.2901 200.297 87.8971 200.587 87.6073C200.876 87.3175 201.27 87.1547 201.68 87.1547C202.09 87.1547 202.483 87.3175 202.773 87.6073C203.063 87.8971 203.225 88.2901 203.225 88.7Z" fill="#DAB689" stroke="#DAB689"/>
<path d="M198.577 88.5924C198.577 88.6374 198.568 88.6821 198.55 88.7237C198.533 88.7652 198.507 88.8029 198.475 88.8345C198.443 88.8662 198.405 88.8911 198.363 88.9078C198.321 88.9245 198.276 88.9327 198.231 88.932C198.141 88.932 198.055 88.8962 197.991 88.8325C197.927 88.7688 197.891 88.6824 197.891 88.5924C197.891 88.5023 197.927 88.4159 197.991 88.3522C198.055 88.2885 198.141 88.2527 198.231 88.2527C198.276 88.252 198.321 88.2602 198.363 88.2769C198.405 88.2937 198.443 88.3186 198.475 88.3502C198.507 88.3818 198.533 88.4195 198.55 88.4611C198.568 88.5027 198.577 88.5473 198.577 88.5924Z" fill="#DAB689" stroke="#DAB689"/>
<path d="M216.991 122.816C216.991 122.972 216.96 123.126 216.9 123.271C216.84 123.415 216.753 123.546 216.642 123.656C216.532 123.767 216.401 123.854 216.257 123.914C216.112 123.974 215.958 124.004 215.802 124.004C215.645 124.004 215.491 123.974 215.347 123.914C215.202 123.854 215.071 123.767 214.961 123.656C214.85 123.546 214.763 123.415 214.703 123.271C214.643 123.126 214.613 122.972 214.613 122.816C214.613 122.5 214.738 122.198 214.961 121.975C215.184 121.752 215.486 121.627 215.802 121.627C216.117 121.627 216.419 121.752 216.642 121.975C216.865 122.198 216.991 122.5 216.991 122.816Z" fill="#DAB689" stroke="#DAB689"/>
<path d="M200.978 149.839C200.978 150.121 200.865 150.392 200.666 150.591C200.466 150.791 200.195 150.903 199.913 150.903C199.63 150.903 199.359 150.791 199.158 150.592C198.958 150.392 198.844 150.122 198.843 149.839C198.844 149.556 198.958 149.285 199.158 149.086C199.359 148.887 199.63 148.775 199.913 148.775C200.195 148.775 200.466 148.887 200.666 149.086C200.865 149.286 200.978 149.557 200.978 149.839Z" fill="#DAB689" stroke="#DAB689"/>
<path d="M172.677 156.761C173.462 156.761 174.098 156.125 174.098 155.341C174.098 154.556 173.462 153.92 172.677 153.92C171.892 153.92 171.255 154.556 171.255 155.341C171.255 156.125 171.892 156.761 172.677 156.761Z" fill="#DAB689" stroke="#DAB689"/>
<path d="M164.268 162.009C164.268 162.233 164.18 162.448 164.021 162.607C163.863 162.766 163.649 162.856 163.425 162.858C163.199 162.858 162.983 162.768 162.824 162.609C162.665 162.45 162.575 162.234 162.575 162.009C162.575 161.784 162.665 161.568 162.824 161.408C162.983 161.249 163.199 161.16 163.425 161.16C163.649 161.161 163.863 161.251 164.021 161.41C164.18 161.569 164.268 161.785 164.268 162.009Z" fill="#DAB689" stroke="#DAB689"/>
<path d="M169.993 197.84C169.994 197.956 169.971 198.071 169.927 198.179C169.883 198.287 169.818 198.385 169.736 198.468C169.654 198.55 169.556 198.616 169.449 198.661C169.341 198.705 169.226 198.728 169.109 198.728C168.993 198.728 168.878 198.705 168.77 198.661C168.663 198.616 168.565 198.55 168.483 198.468C168.401 198.385 168.336 198.287 168.292 198.179C168.248 198.071 168.225 197.956 168.226 197.84C168.226 197.605 168.319 197.381 168.485 197.215C168.65 197.05 168.875 196.957 169.109 196.957C169.344 196.957 169.568 197.05 169.734 197.215C169.9 197.381 169.993 197.605 169.993 197.84Z" fill="#DAB689" stroke="#DAB689"/>
<path d="M127.842 179.828C127.842 180.23 127.682 180.616 127.397 180.901C127.113 181.185 126.727 181.345 126.324 181.345C125.922 181.345 125.536 181.185 125.251 180.901C124.967 180.616 124.807 180.23 124.807 179.828C124.807 179.425 124.966 179.039 125.251 178.753C125.535 178.468 125.921 178.307 126.324 178.305C126.727 178.307 127.113 178.468 127.398 178.753C127.682 179.039 127.842 179.425 127.842 179.828Z" fill="#DAB689" stroke="#DAB689"/>
<path d="M127.077 203.24C127.078 203.32 127.063 203.4 127.032 203.475C127.002 203.55 126.957 203.618 126.9 203.675C126.843 203.733 126.776 203.778 126.701 203.809C126.627 203.841 126.547 203.857 126.466 203.857C126.385 203.857 126.305 203.841 126.23 203.809C126.156 203.778 126.088 203.733 126.031 203.675C125.975 203.618 125.93 203.55 125.899 203.475C125.869 203.4 125.854 203.32 125.854 203.24C125.854 203.077 125.919 202.922 126.033 202.807C126.148 202.693 126.304 202.628 126.466 202.628C126.628 202.628 126.784 202.693 126.898 202.807C127.013 202.922 127.077 203.077 127.077 203.24Z" fill="#DAB689" stroke="#DAB689"/>
<path d="M110.334 213.174C110.334 213.324 110.274 213.468 110.168 213.574C110.062 213.68 109.918 213.74 109.767 213.74C109.617 213.74 109.473 213.68 109.367 213.574C109.261 213.468 109.201 213.324 109.201 213.174C109.201 213.024 109.261 212.88 109.367 212.773C109.473 212.667 109.617 212.608 109.767 212.608C109.918 212.608 110.062 212.667 110.168 212.773C110.274 212.88 110.334 213.024 110.334 213.174Z" fill="#DAB689" stroke="#DAB689"/>
<path d="M130.798 221.551C130.798 221.762 130.758 221.97 130.677 222.165C130.597 222.36 130.479 222.537 130.33 222.686C130.181 222.834 130.004 222.952 129.809 223.033C129.615 223.113 129.406 223.154 129.195 223.153C128.77 223.153 128.363 222.984 128.062 222.684C127.762 222.383 127.593 221.976 127.593 221.551C127.593 221.126 127.762 220.719 128.062 220.418C128.363 220.118 128.77 219.949 129.195 219.949C129.62 219.949 130.028 220.118 130.328 220.418C130.629 220.719 130.798 221.126 130.798 221.551Z" fill="#DAB689" stroke="#DAB689"/>
<path d="M98.2784 223.442C98.2784 223.715 98.1698 223.977 97.9766 224.17C97.7833 224.363 97.5212 224.472 97.2479 224.472C96.9746 224.472 96.7124 224.363 96.5191 224.17C96.3259 223.977 96.2173 223.715 96.2173 223.442C96.2188 223.17 96.328 222.909 96.5211 222.717C96.7142 222.525 96.9755 222.417 97.2479 222.417C97.5202 222.417 97.7814 222.525 97.9746 222.717C98.1677 222.909 98.2769 223.17 98.2784 223.442Z" fill="#DAB689" stroke="#DAB689"/>
<path d="M131.075 240.412C131.075 240.587 131.005 240.756 130.881 240.88C130.757 241.004 130.588 241.074 130.412 241.074C130.238 241.073 130.071 241.002 129.948 240.878C129.825 240.754 129.756 240.586 129.756 240.412C129.755 240.325 129.771 240.239 129.804 240.159C129.837 240.078 129.885 240.005 129.946 239.944C130.007 239.882 130.08 239.833 130.16 239.8C130.24 239.767 130.326 239.75 130.412 239.75C130.588 239.75 130.757 239.819 130.881 239.943C131.005 240.068 131.075 240.236 131.075 240.412Z" fill="#DAB689" stroke="#DAB689"/>
<path d="M122.995 247.363C122.995 247.392 122.989 247.42 122.978 247.447C122.967 247.473 122.95 247.497 122.93 247.517C122.909 247.537 122.885 247.553 122.858 247.563C122.831 247.574 122.803 247.579 122.774 247.578C122.717 247.578 122.662 247.555 122.622 247.515C122.582 247.475 122.559 247.42 122.559 247.363C122.559 247.306 122.582 247.251 122.622 247.211C122.662 247.17 122.717 247.148 122.774 247.148C122.803 247.147 122.831 247.152 122.858 247.163C122.885 247.173 122.909 247.189 122.93 247.209C122.95 247.229 122.967 247.253 122.978 247.279C122.989 247.306 122.995 247.334 122.995 247.363Z" fill="#DAB689" stroke="#DAB689"/>
<path d="M155.95 263.92C155.95 264.137 155.907 264.352 155.824 264.552C155.741 264.753 155.619 264.935 155.466 265.089C155.312 265.242 155.13 265.364 154.929 265.447C154.729 265.53 154.514 265.573 154.297 265.573C153.858 265.573 153.437 265.399 153.127 265.089C152.817 264.779 152.643 264.358 152.643 263.92C152.643 263.482 152.817 263.061 153.127 262.751C153.437 262.441 153.858 262.267 154.297 262.267C154.514 262.267 154.729 262.31 154.929 262.393C155.13 262.476 155.312 262.598 155.466 262.751C155.619 262.905 155.741 263.087 155.824 263.287C155.907 263.488 155.95 263.703 155.95 263.92Z" fill="#DAB689" stroke="#DAB689"/>
<path d="M158.045 280.482C158.045 280.621 157.99 280.753 157.892 280.851C157.795 280.948 157.662 281.003 157.524 281.003C157.386 281.003 157.253 280.948 157.156 280.851C157.058 280.753 157.003 280.621 157.003 280.482C157.002 280.414 157.015 280.345 157.041 280.281C157.067 280.218 157.105 280.16 157.154 280.111C157.202 280.062 157.26 280.023 157.323 279.996C157.387 279.97 157.455 279.956 157.524 279.956C157.593 279.956 157.661 279.97 157.725 279.996C157.788 280.023 157.846 280.062 157.895 280.111C157.943 280.16 157.981 280.218 158.007 280.281C158.033 280.345 158.046 280.414 158.045 280.482Z" fill="#DAB689" stroke="#DAB689"/>
<path d="M119.031 289.018C119.031 289.065 119.022 289.112 119.004 289.155C118.986 289.198 118.96 289.237 118.927 289.271C118.893 289.304 118.854 289.33 118.811 289.348C118.768 289.366 118.721 289.375 118.674 289.375C118.581 289.374 118.491 289.335 118.426 289.269C118.36 289.202 118.323 289.112 118.323 289.018C118.323 288.925 118.36 288.836 118.426 288.77C118.492 288.704 118.581 288.667 118.674 288.667C118.768 288.667 118.858 288.704 118.925 288.77C118.991 288.836 119.03 288.925 119.031 289.018Z" fill="#DAB689" stroke="#DAB689"/>
<path d="M129.422 310.228C129.837 310.228 130.175 309.891 130.175 309.475C130.175 309.059 129.837 308.722 129.422 308.722C129.006 308.722 128.668 309.059 128.668 309.475C128.668 309.891 129.006 310.228 129.422 310.228Z" fill="#DAB689" stroke="#DAB689"/>
<path d="M121.296 319.483C121.296 319.882 121.137 320.265 120.855 320.548C120.572 320.83 120.189 320.989 119.79 320.989C119.39 320.989 119.007 320.83 118.725 320.548C118.442 320.265 118.284 319.882 118.284 319.483C118.284 319.084 118.442 318.701 118.725 318.418C119.007 318.136 119.39 317.977 119.79 317.977C120.189 317.977 120.572 318.136 120.855 318.418C121.137 318.701 121.296 319.084 121.296 319.483Z" fill="#DAB689" stroke="#DAB689"/>
<path d="M164.534 326.853C164.741 326.853 164.908 326.686 164.908 326.479C164.908 326.273 164.741 326.106 164.534 326.106C164.328 326.106 164.16 326.273 164.16 326.479C164.16 326.686 164.328 326.853 164.534 326.853Z" fill="#DAB689" stroke="#DAB689"/>
<path d="M163.877 364.903C163.878 364.954 163.869 365.004 163.85 365.051C163.83 365.098 163.802 365.141 163.766 365.177C163.73 365.213 163.688 365.241 163.641 365.26C163.593 365.279 163.543 365.288 163.492 365.288C163.442 365.288 163.392 365.278 163.346 365.258C163.299 365.239 163.257 365.21 163.222 365.175C163.187 365.139 163.159 365.096 163.14 365.05C163.121 365.003 163.112 364.953 163.113 364.903C163.113 364.802 163.153 364.706 163.224 364.635C163.295 364.563 163.392 364.523 163.492 364.523C163.543 364.523 163.592 364.532 163.639 364.551C163.686 364.569 163.728 364.597 163.764 364.633C163.8 364.668 163.828 364.71 163.848 364.756C163.867 364.803 163.877 364.852 163.877 364.903Z" fill="#DAB689" stroke="#DAB689"/>
<path d="M159.059 390.794C159.231 390.794 159.37 390.654 159.37 390.482C159.37 390.31 159.231 390.171 159.059 390.171C158.887 390.171 158.747 390.31 158.747 390.482C158.747 390.654 158.887 390.794 159.059 390.794Z" fill="#DAB689" stroke="#DAB689"/>
<path d="M191.719 398.611C192.373 398.611 192.903 398.081 192.903 397.428C192.903 396.774 192.373 396.245 191.719 396.245C191.066 396.245 190.536 396.774 190.536 397.428C190.536 398.081 191.066 398.611 191.719 398.611Z" fill="#DAB689" stroke="#DAB689"/>
<path d="M193.299 399.635C193.299 400.065 193.129 400.476 192.825 400.78C192.521 401.084 192.109 401.254 191.68 401.254C191.25 401.254 190.837 401.084 190.533 400.78C190.228 400.477 190.056 400.065 190.055 399.635C190.056 399.205 190.228 398.793 190.532 398.488C190.837 398.184 191.249 398.012 191.68 398.011C192.11 398.012 192.522 398.184 192.825 398.489C193.129 398.793 193.299 399.205 193.299 399.635Z" fill="#DAB689" stroke="#DAB689"/>
<path d="M219.697 415.134C219.697 415.327 219.62 415.513 219.483 415.65C219.346 415.787 219.161 415.864 218.967 415.864C218.773 415.864 218.587 415.787 218.45 415.65C218.313 415.513 218.236 415.327 218.236 415.134C218.236 415.037 218.254 414.942 218.29 414.853C218.327 414.764 218.381 414.683 218.449 414.616C218.517 414.548 218.597 414.494 218.686 414.457C218.775 414.421 218.871 414.403 218.967 414.403C219.161 414.403 219.346 414.48 219.483 414.617C219.62 414.754 219.697 414.94 219.697 415.134Z" fill="#DAB689" stroke="#DAB689"/>
<path d="M152.994 428.804C153.698 428.804 154.268 428.234 154.268 427.53C154.268 426.827 153.698 426.257 152.994 426.257C152.291 426.257 151.72 426.827 151.72 427.53C151.72 428.234 152.291 428.804 152.994 428.804Z" fill="#DAB689" stroke="#DAB689"/>
<path d="M216.158 437.447C216.29 437.447 216.396 437.341 216.396 437.209C216.396 437.078 216.29 436.972 216.158 436.972C216.027 436.972 215.921 437.078 215.921 437.209C215.921 437.341 216.027 437.447 216.158 437.447Z" fill="#DAB689" stroke="#DAB689"/>
<path d="M192.875 456.738C193.544 456.738 194.086 456.196 194.086 455.527C194.086 454.858 193.544 454.315 192.875 454.315C192.205 454.315 191.663 454.858 191.663 455.527C191.663 456.196 192.205 456.738 192.875 456.738Z" fill="#DAB689" stroke="#DAB689"/>
<path d="M366.558 144.218C367.183 144.218 367.69 143.711 367.69 143.086C367.69 142.46 367.183 141.954 366.558 141.954C365.932 141.954 365.425 142.46 365.425 143.086C365.425 143.711 365.932 144.218 366.558 144.218Z" fill="#DAB689" stroke="#DAB689"/>
<path d="M340.81 183.349C341.567 183.349 342.181 182.736 342.181 181.979C342.181 181.222 341.567 180.609 340.81 180.609C340.054 180.609 339.44 181.222 339.44 181.979C339.44 182.736 340.054 183.349 340.81 183.349Z" fill="#DAB689" stroke="#DAB689"/>
<path d="M380.023 161.924C380.023 162.118 379.946 162.303 379.809 162.44C379.672 162.577 379.486 162.654 379.292 162.654C379.099 162.654 378.913 162.577 378.776 162.44C378.639 162.303 378.562 162.118 378.562 161.924C378.562 161.73 378.639 161.543 378.775 161.406C378.912 161.268 379.098 161.189 379.292 161.188C379.486 161.189 379.672 161.268 379.809 161.406C379.946 161.543 380.023 161.73 380.023 161.924Z" fill="#DAB689" stroke="#DAB689"/>
<path d="M366.167 190.203C366.464 190.203 366.705 189.963 366.705 189.666C366.705 189.369 366.464 189.128 366.167 189.128C365.87 189.128 365.629 189.369 365.629 189.666C365.629 189.963 365.87 190.203 366.167 190.203Z" fill="#DAB689" stroke="#DAB689"/>
<path d="M406.681 195.643C406.681 195.708 406.656 195.77 406.61 195.815C406.564 195.861 406.502 195.887 406.438 195.887C406.373 195.887 406.31 195.861 406.264 195.816C406.217 195.77 406.19 195.708 406.189 195.643C406.19 195.578 406.217 195.516 406.264 195.471C406.31 195.425 406.373 195.4 406.438 195.4C406.502 195.4 406.564 195.426 406.61 195.471C406.656 195.517 406.681 195.579 406.681 195.643Z" fill="#DAB689" stroke="#DAB689"/>
<path d="M413.906 224.353C413.906 224.503 413.847 224.647 413.741 224.753C413.634 224.86 413.49 224.919 413.34 224.919C413.19 224.919 413.046 224.86 412.94 224.753C412.834 224.647 412.774 224.503 412.774 224.353C412.781 224.208 412.844 224.071 412.949 223.971C413.055 223.871 413.195 223.815 413.34 223.815C413.486 223.815 413.625 223.871 413.731 223.971C413.836 224.071 413.899 224.208 413.906 224.353Z" fill="#DAB689" stroke="#DAB689"/>
<path d="M391.466 254.693C391.466 255.129 391.293 255.546 390.985 255.854C390.677 256.162 390.26 256.335 389.824 256.335C389.389 256.335 388.971 256.162 388.663 255.854C388.355 255.546 388.182 255.129 388.182 254.693C388.182 254.258 388.355 253.84 388.663 253.533C388.971 253.225 389.389 253.052 389.824 253.052C390.26 253.052 390.677 253.225 390.985 253.533C391.293 253.84 391.466 254.258 391.466 254.693Z" fill="#DAB689" stroke="#DAB689"/>
<path d="M449.223 266.484C449.223 266.669 449.15 266.846 449.019 266.976C448.888 267.107 448.711 267.18 448.526 267.18C448.343 267.179 448.167 267.105 448.038 266.974C447.908 266.844 447.836 266.668 447.836 266.484C447.836 266.393 447.854 266.304 447.888 266.22C447.923 266.136 447.974 266.06 448.038 265.996C448.102 265.932 448.178 265.881 448.262 265.846C448.346 265.811 448.436 265.793 448.526 265.793C448.71 265.793 448.887 265.866 449.017 265.995C449.147 266.125 449.221 266.3 449.223 266.484Z" fill="#DAB689" stroke="#DAB689"/>
<path d="M442.264 295.811C442.264 295.93 442.24 296.048 442.195 296.158C442.149 296.267 442.083 296.367 441.998 296.451C441.914 296.535 441.814 296.602 441.705 296.648C441.595 296.693 441.477 296.717 441.358 296.717C441.119 296.715 440.89 296.619 440.721 296.449C440.552 296.28 440.458 296.05 440.458 295.811C440.458 295.572 440.552 295.343 440.721 295.175C440.89 295.006 441.119 294.911 441.358 294.911C441.597 294.911 441.827 295.006 441.996 295.174C442.166 295.343 442.262 295.572 442.264 295.811Z" fill="#DAB689" stroke="#DAB689"/>
<path d="M411.245 320.247C411.946 320.247 412.514 319.679 412.514 318.979C412.514 318.279 411.946 317.711 411.245 317.711C410.545 317.711 409.977 318.279 409.977 318.979C409.977 319.679 410.545 320.247 411.245 320.247Z" fill="#DAB689" stroke="#DAB689"/>
<path d="M384.564 338.463C384.562 338.799 384.428 339.122 384.189 339.36C383.95 339.597 383.627 339.731 383.29 339.731C382.954 339.729 382.632 339.595 382.395 339.358C382.157 339.12 382.023 338.798 382.021 338.463C382.021 338.126 382.155 337.803 382.393 337.564C382.63 337.325 382.953 337.19 383.29 337.189C383.628 337.189 383.952 337.323 384.191 337.562C384.43 337.801 384.564 338.125 384.564 338.463Z" fill="#DAB689" stroke="#DAB689"/>
<path d="M378.341 364.229C379.095 364.229 379.706 363.618 379.706 362.865C379.706 362.112 379.095 361.501 378.341 361.501C377.587 361.501 376.976 362.112 376.976 362.865C376.976 363.618 377.587 364.229 378.341 364.229Z" fill="#DAB689" stroke="#DAB689"/>
<path d="M391.914 402.352C391.914 402.561 391.831 402.761 391.683 402.909C391.536 403.056 391.335 403.139 391.127 403.139C390.918 403.139 390.718 403.056 390.57 402.909C390.423 402.761 390.34 402.561 390.34 402.352C390.34 402.249 390.36 402.147 390.4 402.052C390.439 401.957 390.497 401.87 390.57 401.798C390.644 401.725 390.73 401.668 390.826 401.629C390.921 401.59 391.024 401.57 391.127 401.571C391.23 401.57 391.332 401.59 391.427 401.629C391.523 401.668 391.61 401.725 391.683 401.798C391.756 401.87 391.814 401.957 391.854 402.052C391.893 402.147 391.914 402.249 391.914 402.352Z" fill="#DAB689" stroke="#DAB689"/>
<path d="M369.44 427.423C369.44 427.784 369.296 428.131 369.04 428.387C368.784 428.643 368.437 428.787 368.075 428.787C367.713 428.787 367.366 428.643 367.11 428.387C366.854 428.131 366.71 427.784 366.71 427.423C366.71 427.061 366.854 426.714 367.11 426.458C367.366 426.202 367.713 426.058 368.075 426.058C368.437 426.058 368.784 426.202 369.04 426.458C369.296 426.714 369.44 427.061 369.44 427.423Z" fill="#DAB689" stroke="#DAB689"/>
<path d="M319.758 435.257C319.758 435.419 319.693 435.574 319.579 435.689C319.464 435.804 319.308 435.868 319.146 435.868C318.984 435.868 318.829 435.804 318.714 435.689C318.599 435.574 318.535 435.419 318.535 435.257C318.535 435.094 318.599 434.939 318.714 434.824C318.829 434.71 318.984 434.645 319.146 434.645C319.308 434.645 319.464 434.71 319.579 434.824C319.693 434.939 319.758 435.094 319.758 435.257Z" fill="#DAB689" stroke="#DAB689"/>
<path d="M341.966 461.816C341.966 461.881 341.94 461.943 341.895 461.99C341.849 462.036 341.787 462.063 341.722 462.065C341.656 462.065 341.593 462.039 341.546 461.992C341.499 461.945 341.473 461.882 341.473 461.816C341.475 461.751 341.502 461.689 341.548 461.643C341.595 461.598 341.657 461.572 341.722 461.572C341.754 461.572 341.786 461.579 341.816 461.591C341.845 461.603 341.872 461.621 341.895 461.644C341.917 461.666 341.935 461.693 341.947 461.723C341.96 461.752 341.966 461.784 341.966 461.816Z" fill="#DAB689" stroke="#DAB689"/>
<path d="M309.214 465.048C309.213 465.433 309.059 465.801 308.786 466.073C308.513 466.344 308.144 466.497 307.759 466.497C307.375 466.497 307.006 466.344 306.734 466.072C306.462 465.801 306.31 465.432 306.31 465.048C306.31 464.663 306.462 464.294 306.734 464.021C307.005 463.748 307.374 463.595 307.759 463.593C308.145 463.593 308.515 463.746 308.788 464.019C309.061 464.292 309.214 464.662 309.214 465.048Z" fill="#DAB689" stroke="#DAB689"/>
<path d="M297.204 469.848C297.204 470.148 297.085 470.436 296.873 470.648C296.66 470.861 296.372 470.98 296.072 470.98C295.772 470.98 295.483 470.861 295.271 470.648C295.059 470.436 294.939 470.148 294.939 469.848C294.939 469.547 295.059 469.259 295.271 469.047C295.483 468.835 295.772 468.716 296.072 468.716C296.372 468.716 296.66 468.835 296.873 469.047C297.085 469.259 297.204 469.547 297.204 469.848Z" fill="#DAB689" stroke="#DAB689"/>
<path d="M351.807 492.257C352.132 492.257 352.396 491.994 352.396 491.669C352.396 491.344 352.132 491.08 351.807 491.08C351.482 491.08 351.218 491.344 351.218 491.669C351.218 491.994 351.482 492.257 351.807 492.257Z" fill="#DAB689" stroke="#DAB689"/>
<path d="M416.217 593.269L416.852 593.21L465.841 588.77L465.799 588.244C464.702 573.997 463.896 563.941 463.309 556.599C462.188 542.594 461.885 538.829 461.885 535.317C461.885 529.405 462.745 522.471 472.993 515.152C478.816 511.014 484.817 507.432 490.119 504.287C500.752 497.973 509.149 492.99 510.821 486.658L510.851 486.534C513.223 477.46 516.864 463.745 521.709 454.812C524.71 449.273 528.955 437.787 532.691 427.654C533.878 424.468 534.981 421.453 535.989 418.786C537.175 415.724 538.011 413.59 538.693 412.059C540.075 408.955 539.47 407.537 538.693 406.898C537.341 405.751 534.619 406.307 531.399 408.352H531.013V408.601L530.616 408.873C526.18 411.97 515.482 429.658 509.113 445.945C508.36 439.59 508.129 434.305 507.927 429.587C507.791 426.442 507.66 423.474 507.393 420.578L507.334 419.945C506.741 413.791 506.231 407.98 504.998 404.131C504.049 401.176 502.738 399.55 500.989 399.118C499.406 398.734 497.241 399.053 495.883 402.784C495.035 405.113 494.567 408.577 494.489 413.076C494.489 413.756 494.489 414.382 494.489 414.95V415.925L495.314 415.411C495.781 415.116 496.268 414.855 496.773 414.631C498.836 413.726 500.924 413.821 502.43 414.891C503.089 415.39 503.602 416.057 503.915 416.821C504.227 417.585 504.329 418.419 504.209 419.236C504.031 421.074 503.106 423.782 501.612 426.856C499.649 430.917 497.146 434.695 494.169 438.088C493.351 438.998 491.708 438.478 490.807 438.088C487.575 436.687 483.691 432.649 483.892 430.101C484.046 428.328 485.671 425.283 488.162 422.162L489.983 419.868L487.462 421.364C487.065 421.6 486.662 421.861 486.276 422.132C482.38 424.604 478.775 429.226 478.472 429.623C471.166 437.532 466.736 446.648 462.822 454.688C460.954 458.531 459.193 462.154 457.331 465.169C452.996 472.186 448.845 475.846 444.042 480.09C440.073 483.471 436.349 487.128 432.899 491.033C426.281 498.629 423.31 511.132 422.663 516.672C421.537 526.284 417.279 579.56 416.294 592.577L416.217 593.269ZM464.684 587.795L417.392 592.081C418.459 578.064 422.598 526.302 423.701 516.861C424.442 510.541 427.704 498.659 433.682 491.795C437.101 487.924 440.791 484.299 444.724 480.948C449.592 476.65 453.797 472.937 458.221 465.79C460.112 462.728 461.885 459.074 463.765 455.208C467.65 447.227 472.068 438.183 479.249 430.379L479.285 430.344C481.101 428.029 483.17 425.921 485.452 424.06C483.886 426.424 482.92 428.564 482.795 430.054C482.528 433.152 486.709 437.544 490.356 439.123C492.372 439.997 494.003 439.903 494.946 438.857C497.992 435.381 500.554 431.511 502.56 427.352C504.108 424.172 505.069 421.334 505.259 419.372C505.403 418.369 505.275 417.346 504.887 416.41C504.499 415.474 503.865 414.659 503.053 414.051C501.274 412.757 498.747 412.615 496.334 413.679C496.085 413.785 495.83 413.909 495.575 414.045C495.575 413.75 495.575 413.454 495.575 413.123C495.646 408.743 496.097 405.397 496.903 403.18C498.214 399.579 500.111 400.041 500.734 400.194C502.092 400.525 503.153 401.932 503.972 404.486C505.158 408.228 505.703 413.98 506.267 420.075L506.32 420.702C506.587 423.575 506.717 426.531 506.854 429.664C507.085 434.925 507.352 440.896 508.325 448.262L508.609 450.414L509.362 448.374C515.542 431.727 526.744 412.904 531.245 409.783L531.838 409.369L531.95 409.298C535.046 407.318 537.204 407.087 537.981 407.749C538.639 408.305 538.527 409.73 537.673 411.651C536.985 413.2 536.119 415.358 534.945 418.432C533.937 421.092 532.822 424.101 531.648 427.299C527.918 437.396 523.69 448.847 520.724 454.316C515.82 463.36 512.179 477.152 509.771 486.28L509.742 486.398C508.182 492.31 499.951 497.193 489.532 503.376C484.195 506.533 478.187 510.11 472.334 514.295C461.66 521.915 460.777 529.151 460.777 535.335C460.777 538.882 461.079 542.642 462.206 556.676C462.816 563.941 463.605 573.837 464.684 587.801V587.795Z" fill="#DAB689"/>
<path d="M492.829 439.312C493.16 439.325 493.49 439.268 493.797 439.144C494.104 439.019 494.381 438.831 494.608 438.591C497.626 435.144 500.165 431.308 502.157 427.187C503.681 424.048 504.63 421.276 504.814 419.348C504.948 418.419 504.83 417.47 504.472 416.601C504.115 415.732 503.53 414.974 502.78 414.406C501.114 413.224 498.759 413.082 496.476 414.081C495.946 414.32 495.433 414.594 494.94 414.903L494.887 414.938V415.003C494.887 417.835 494.964 419.378 495 419.833C494.324 419.75 491.406 419.555 487.629 421.796H487.599C485.007 425.065 483.359 428.163 483.193 430.072C482.938 432.992 486.982 437.166 490.499 438.709C491.226 439.067 492.019 439.272 492.829 439.312ZM499.548 413.638C500.665 413.621 501.759 413.956 502.673 414.595C503.389 415.141 503.946 415.867 504.286 416.698C504.627 417.529 504.74 418.436 504.613 419.325C504.423 421.216 503.486 423.971 501.974 427.087C499.99 431.189 497.463 435.006 494.46 438.437C493.719 439.259 492.355 439.294 490.617 438.538C487.19 437.06 483.211 432.886 483.448 430.131C483.608 428.281 485.268 425.16 487.789 421.979C491.999 419.496 495.095 420.075 495.124 420.081L495.278 420.111V419.957C495.278 419.957 495.142 418.432 495.154 415.068C495.619 414.777 496.105 414.518 496.607 414.294C497.531 413.876 498.533 413.652 499.548 413.638Z" fill="#DAB689"/>
<path d="M478.822 430.965L479.284 430.374C479.32 430.326 483.008 425.538 486.845 423.102L487.332 422.795L486.988 422.334C485.742 420.637 484.616 418.113 483.524 415.671C482.759 413.969 482.042 412.361 481.301 411.054L481.253 410.972C480.862 410.249 480.38 409.579 479.818 408.979C478.953 408.019 477.742 407.439 476.45 407.365C475.991 407.375 475.539 407.477 475.121 407.666C474.703 407.855 474.328 408.127 474.018 408.465C473.176 409.378 472.657 410.541 472.542 411.776C472.222 414.211 472.88 417.226 473.568 419.857C474.902 424.97 478.312 430.125 478.424 430.344L478.822 430.965ZM485.796 422.493C482.765 424.557 479.99 427.772 478.905 429.103C477.962 427.571 475.614 423.498 474.588 419.573C473.923 417.043 473.289 414.158 473.591 411.888C473.679 410.88 474.096 409.929 474.777 409.18C474.987 408.947 475.243 408.758 475.528 408.626C475.814 408.494 476.123 408.421 476.438 408.412C477.441 408.494 478.374 408.96 479.041 409.712C479.556 410.265 479.995 410.883 480.346 411.551L480.393 411.634C481.099 412.887 481.793 414.436 482.522 416.079C483.44 418.301 484.535 420.446 485.796 422.493Z" fill="#DAB689"/>
<path d="M475.982 484.855H477.061C476.812 476.703 481.497 464.927 487.949 457.467C497.437 446.453 502.94 438.266 502.774 428.984C502.62 420.992 497.022 419.685 495.308 419.472H495.249L495.077 420.537H495.178C497.093 420.773 501.558 422.068 501.701 429.002C501.849 436.888 498.042 444.154 487.148 456.757C480.406 464.501 475.727 476.331 475.982 484.855Z" fill="#DAB689"/>
<path d="M500.046 468.853C500.793 460.907 505.49 453.335 509.297 448.381L508.437 447.724C504.547 452.791 499.743 460.553 498.949 468.752L500.046 468.853Z" fill="#DAB689"/>
<path d="M492.752 464.395L493.825 464.265C493.232 459.134 493.825 450.633 493.825 450.55L492.746 450.473C492.722 450.84 492.117 459.175 492.752 464.395Z" fill="#DAB689"/>
<path d="M494.549 438.514C497.555 435.079 500.086 431.258 502.074 427.152C503.551 424.119 504.535 421.3 504.725 419.355C505.17 414.844 501.036 412.261 496.547 414.206C496.021 414.442 495.512 414.715 495.023 415.021C492.568 416.547 489.888 419.16 487.711 421.908C485.298 424.953 483.501 428.139 483.329 430.137C482.967 434.305 491.91 441.435 494.549 438.514Z" fill="#DAB689"/>
<path d="M538.201 411.888C537.454 413.573 536.529 415.908 535.485 418.645C540.715 409.872 544.777 403.133 541.741 401.537C539.903 400.567 534.156 405.32 531.577 408.938C536.683 405.628 540.745 406.16 538.201 411.888Z" fill="#DAB689"/>
<path d="M496.417 403.015C497.277 400.65 498.664 399.148 500.888 399.692C502.56 400.1 503.693 401.791 504.511 404.345H504.63C504.215 399.893 502.851 396.258 500.277 396.258C497.703 396.258 497.188 399.793 496.417 403.015Z" fill="#DAB689"/>
<path d="M472.827 411.847H473.058C473.161 410.727 473.628 409.67 474.386 408.838C475.952 407.218 477.992 407.91 479.439 409.358C479.983 409.95 480.451 410.608 480.833 411.315C479.131 406.148 476.462 404.049 474.481 404.812C471.261 406.077 472.827 411.847 472.827 411.847Z" fill="#DAB689"/>
<path d="M126.762 0.257577L126.721 0.890982C125.983 13.9129 122.735 67.2717 121.797 76.9036C121.256 82.46 118.522 95.0112 112.049 102.732C108.67 106.699 105.016 110.425 101.115 113.883C96.3932 118.218 92.3121 121.955 88.1109 129.053C86.3063 132.103 84.608 135.76 82.8132 139.637C79.0582 147.749 74.8016 156.936 67.647 164.994C67.352 165.39 63.8289 170.086 59.9686 172.643C59.5941 172.91 59.2018 173.178 58.7972 173.422L56.3056 174.965L58.0824 172.637C60.5017 169.47 62.0804 166.395 62.201 164.618C62.3721 162.067 58.3943 158.104 55.1364 156.764C54.2218 156.391 52.5755 155.902 51.7746 156.828C48.8626 160.277 46.4312 164.102 44.5463 168.199C43.1104 171.301 42.2368 174.025 42.0937 175.867C41.9891 176.686 42.1065 177.518 42.4338 178.276C42.7611 179.034 43.2863 179.691 43.9547 180.178C45.4514 181.219 47.5702 181.292 49.616 180.331C50.1142 180.096 50.5947 179.826 51.0539 179.523L51.8742 178.993L51.8927 179.968C51.9039 180.559 51.9151 181.15 51.9282 181.842C51.9363 186.341 51.5335 189.814 50.7298 192.158C49.4427 195.914 47.2787 196.274 45.6943 195.92C43.9074 195.522 42.5898 193.909 41.5913 190.984C40.2851 187.159 39.6294 181.353 38.9555 175.211L38.8844 174.586C38.5628 171.7 38.376 168.73 38.1801 165.588C37.883 160.863 37.546 155.596 36.6844 149.256C30.6251 165.66 20.2641 183.547 15.8878 186.729L15.4897 187.008L15.4944 187.256L15.115 187.263C11.9285 189.381 9.23516 189.976 7.84975 188.856C7.08466 188.232 6.45302 186.824 7.75199 183.696C8.39891 182.152 9.2182 180.002 10.3282 176.918C11.286 174.251 12.3376 171.216 13.4509 167.99C17.0002 157.788 21.0219 146.224 23.9231 140.629C28.5979 131.606 31.9549 117.825 34.1783 108.701L34.2056 108.582C35.7577 102.22 44.0708 97.0781 54.5702 90.5644C59.8053 87.3197 65.7439 83.6418 71.4876 79.3763C81.5944 71.8649 82.3229 64.9214 82.2108 59.0049C82.1447 55.5176 81.7711 51.7642 80.3854 37.7891C79.6534 30.4594 78.6624 20.4147 77.2896 6.18516L77.2381 5.65996L77.7708 5.60253L126.762 0.257577ZM60.745 170.73C62.9901 168.825 65.0181 166.678 66.7922 164.33L66.8271 164.294C73.8773 156.362 78.1054 147.235 81.8377 139.177C83.6439 135.275 85.3475 131.589 87.1809 128.492C91.4627 121.262 95.5961 117.47 100.382 113.081C104.253 109.658 107.875 105.965 111.223 102.032C117.064 95.0566 120.105 83.1144 120.721 76.7821C121.651 67.3041 124.809 15.4903 125.611 1.45601L78.4073 6.63703C79.7511 20.5892 80.7271 30.4686 81.4454 37.704C82.8378 51.7144 83.2057 55.4798 83.2726 59.0084C83.3897 65.1909 82.6374 72.4423 72.1212 80.2631C66.3366 84.5589 60.4101 88.2483 55.1337 91.5057C44.8334 97.8855 36.6964 102.929 35.249 108.864L35.2512 108.982C33.0168 118.148 29.6376 132.006 24.9056 141.148C22.0447 146.671 18.0341 158.2 14.496 168.366C13.3706 171.58 12.3248 174.61 11.3674 177.295C10.2398 180.391 9.42688 182.564 8.76844 184.126C7.95105 186.063 7.86539 187.489 8.53405 188.033C9.31726 188.674 11.4712 188.409 14.5228 186.376L14.6459 186.297C14.845 186.163 15.0499 186.017 15.231 185.872C19.6775 182.642 30.5215 163.634 36.3842 146.873L37.0986 144.819L37.424 146.965C38.536 154.318 38.9158 160.276 39.2467 165.532C39.4424 168.662 39.6288 171.615 39.9441 174.483L40.0146 175.073C40.723 181.155 41.3301 186.903 42.6046 190.621C43.4712 193.159 44.5532 194.546 45.9172 194.851C46.5486 194.993 48.4542 195.394 49.6968 191.794C50.4612 189.562 50.8425 186.208 50.8366 181.827C50.8305 181.508 50.8247 181.2 50.8191 180.905C50.5608 181.046 50.3141 181.175 50.0671 181.286C47.6741 182.395 45.1575 182.301 43.3365 181.041C42.5143 180.447 41.8668 179.644 41.4612 178.716C41.0556 177.787 40.9067 176.768 41.0301 175.763C41.1885 173.797 42.1251 170.947 43.5826 167.732C45.5105 163.538 47.9958 159.62 50.9717 156.086C51.9005 155.022 53.5292 154.897 55.5617 155.733C59.232 157.242 63.5012 161.555 63.293 164.657C63.1853 166.173 62.2654 168.33 60.745 170.73Z" fill="#DAB689"/>
<path d="M53.0809 155.638C53.8826 155.663 54.6711 155.849 55.3985 156.186C58.9427 157.609 63.0534 161.699 62.8663 164.659C62.7368 166.589 61.1472 169.717 58.6178 173.017L58.5822 173.018C54.8537 175.33 51.9329 175.19 51.2554 175.12C51.2641 175.575 51.4178 177.115 51.4596 179.947L51.4608 180.012L51.4081 180.048C50.9195 180.366 50.4096 180.65 49.8821 180.899C47.6243 181.941 45.2681 181.861 43.5734 180.693C42.8121 180.14 42.2137 179.393 41.8406 178.531C41.4675 177.669 41.3333 176.722 41.452 175.79C41.5995 173.872 42.4949 171.041 43.9597 167.903C45.8744 163.746 48.3382 159.864 51.2855 156.358C51.5156 156.117 51.795 155.928 52.1047 155.804C52.4145 155.68 52.7474 155.623 53.0809 155.638ZM58.443 172.873C60.9432 169.597 62.5101 166.522 62.6346 164.64C62.8196 161.881 58.7621 157.783 55.3071 156.371C53.5556 155.647 52.1866 155.709 51.461 156.544C48.534 160.033 46.0896 163.897 44.1935 168.034C42.7406 171.178 41.8561 173.956 41.7021 175.845C41.5917 176.736 41.7214 177.64 42.0779 178.465C42.4344 179.29 43.0048 180.005 43.7305 180.537C45.3538 181.688 47.6263 181.734 49.8136 180.723C50.3105 180.488 50.7909 180.22 51.2515 179.921C51.1878 176.558 51.0346 175.047 51.0344 175.035L51.0315 174.882L51.1803 174.908C51.1807 174.932 54.2863 175.435 58.443 172.873Z" fill="#DAB689"/>
<path d="M67.2433 163.719L67.6763 164.344C67.8227 164.56 71.2999 169.65 72.7308 174.737C73.4684 177.354 74.1837 180.356 73.9037 182.798C73.8079 184.032 73.3141 185.203 72.496 186.135C72.1931 186.479 71.8233 186.758 71.4089 186.955C70.9946 187.152 70.5445 187.263 70.0859 187.281C69.4413 187.26 68.8073 187.112 68.2201 186.846C67.6329 186.58 67.104 186.201 66.6639 185.732C66.0852 185.138 65.5861 184.471 65.1791 183.749L65.1423 183.685C64.3764 182.393 63.6226 180.799 62.8315 179.111C61.6943 176.691 60.514 174.188 59.2367 172.515L58.89 172.061L59.3704 171.744C63.1604 169.236 66.7576 164.379 66.7923 164.331L67.2433 163.719ZM71.6925 175.029C70.5924 171.124 68.1614 167.096 67.1956 165.583C66.1357 166.933 63.4218 170.201 60.4312 172.321C61.7259 174.338 62.855 176.456 63.8074 178.655C64.5799 180.296 65.3091 181.843 66.0384 183.083L66.0691 183.141C66.4347 183.803 66.8871 184.412 67.4143 184.955C68.0948 185.701 69.0431 186.151 70.0537 186.205C70.3691 186.191 70.6782 186.113 70.9622 185.975C71.2462 185.838 71.499 185.644 71.7052 185.405C72.3727 184.644 72.7712 183.685 72.8397 182.676C73.0994 180.418 72.4104 177.546 71.698 175.011L71.6925 175.029Z" fill="#DAB689"/>
<path d="M69.0624 109.784C69.4788 118.302 65.0189 130.218 58.4484 138.112C47.7895 150.92 44.1206 158.256 44.4241 166.138C44.6918 173.068 49.181 174.278 51.1065 174.478L51.2073 174.476L51.0555 175.544L50.9962 175.545C49.2787 175.364 43.6569 174.164 43.3513 166.176C42.9976 156.9 48.3151 148.61 57.6345 137.418C63.9441 129.836 68.3991 117.974 68.0016 109.828L69.0624 109.784Z" fill="#DAB689"/>
<path d="M45.3054 126.24L46.3805 126.32C45.765 134.533 41.1095 142.384 37.2923 147.524L36.4261 146.884C40.1387 141.859 44.7089 134.198 45.3054 126.24Z" fill="#DAB689"/>
<path d="M52.6825 130.558C53.4161 135.783 52.9697 144.152 52.9462 144.478L51.8715 144.421C51.8699 144.339 52.3315 135.827 51.6117 130.709L52.6825 130.558Z" fill="#DAB689"/>
<path d="M51.3763 156.469C48.4354 159.96 45.9772 163.829 44.0676 167.971C42.6487 171.031 41.7179 173.869 41.565 175.818C41.2057 180.336 45.3813 182.841 49.8387 180.811C50.3592 180.566 50.8613 180.284 51.3411 179.966C54.0963 178.03 56.5209 175.665 58.5215 172.96C60.8829 169.87 62.6132 166.65 62.7472 164.649C63.0296 160.458 53.9595 153.499 51.3763 156.469Z" fill="#DAB689"/>
<path d="M8.23634 183.917C8.95148 182.218 9.83218 179.866 10.8238 177.11C5.76061 185.98 1.82095 192.795 4.89278 194.334C6.74948 195.286 12.4044 190.407 14.8912 186.741C9.86683 190.148 5.80129 189.693 8.23634 183.917Z" fill="#DAB689"/>
<path d="M50.1931 191.997C49.3722 194.378 48.0132 195.906 45.7855 195.404C44.1057 195.028 42.9413 193.359 42.0747 190.821L41.9561 190.823C42.4555 195.266 43.888 198.875 46.4612 198.826C49.0344 198.778 49.4537 195.234 50.1931 191.997Z" fill="#DAB689"/>
<path d="M73.5994 182.72L73.3682 182.725C73.2862 183.846 72.84 184.911 72.097 185.758C70.5624 187.407 68.5097 186.754 67.0356 185.334C66.4808 184.752 66.0004 184.103 65.6052 183.404C67.4047 188.537 70.1066 190.585 72.0784 189.785C75.274 188.459 73.5994 182.72 73.5994 182.72Z" fill="#DAB689"/>
</svg>
