<svg width="100" height="100" viewBox="0 0 100 100" fill="none" xmlns="http://www.w3.org/2000/svg">
<path d="M14.0903 54.5229C14.0903 54.5229 24.0532 36.504 50.0001 36.504C75.9471 36.504 85.9099 54.5229 85.9099 54.5229C85.9099 54.5229 75.5949 68.0999 50.0001 68.0999C24.4054 68.0999 14.0903 54.5229 14.0903 54.5229Z" stroke="#DAB689" stroke-width="1.3" stroke-linecap="round" stroke-linejoin="round"/>
<path d="M50.0001 67.9154C58.6333 67.9154 65.632 60.9212 65.632 52.2935C65.632 43.6657 58.6333 36.6715 50.0001 36.6715C41.3668 36.6715 34.3682 43.6657 34.3682 52.2935C34.3682 60.9212 41.3668 67.9154 50.0001 67.9154Z" stroke="#DAB689" stroke-width="1.3" stroke-linecap="round" stroke-linejoin="round"/>
<path d="M39.3496 52.2935C39.3496 54.3986 39.9742 56.4565 41.1445 58.2068C42.3148 59.9572 43.9782 61.3214 45.9243 62.127C47.8704 62.9326 50.0119 63.1434 52.0779 62.7327C54.1439 62.322 56.0416 61.3083 57.5311 59.8197C59.0206 58.3312 60.035 56.4347 60.446 54.37C60.8569 52.3053 60.646 50.1652 59.8399 48.2203C59.0338 46.2754 57.6687 44.6131 55.9172 43.4436C54.1657 42.274 52.1066 41.6498 50.0001 41.6498C47.1754 41.6498 44.4664 42.7712 42.4691 44.7673C40.4717 46.7633 39.3496 49.4706 39.3496 52.2935V52.2935Z" stroke="#DAB689" stroke-width="1.3" stroke-linecap="round" stroke-linejoin="round"/>
<path d="M14.0903 54.5229C14.0903 54.5229 22.4766 28.0896 50.0001 28.0896C77.5237 28.0896 85.9099 54.5229 85.9099 54.5229C85.9099 54.5229 72.341 72.9609 50.0001 72.9609C27.6592 72.9609 14.0903 54.5229 14.0903 54.5229Z" stroke="#DAB689" stroke-width="1.3" stroke-linecap="round" stroke-linejoin="round"/>
</svg>
