<svg width="200" height="200" viewBox="0 0 200 200" fill="none" xmlns="http://www.w3.org/2000/svg">
<path d="M27.1949 108.631C27.1949 108.631 47.2552 72.2102 99.4998 72.2102C151.744 72.2102 171.805 108.631 171.805 108.631C171.805 108.631 151.035 136.074 99.4998 136.074C47.9644 136.074 27.1949 108.631 27.1949 108.631Z" stroke="#DAB689" stroke-width="1.3" stroke-linecap="round" stroke-linejoin="round"/>
<path d="M99.4999 135.701C116.883 135.701 130.975 121.564 130.975 104.125C130.975 86.686 116.883 72.5488 99.4999 72.5488C82.1167 72.5488 68.0249 86.686 68.0249 104.125C68.0249 121.564 82.1167 135.701 99.4999 135.701Z" stroke="#DAB689" stroke-width="1.3" stroke-linecap="round" stroke-linejoin="round"/>
<path d="M78.0551 104.125C78.0551 108.38 79.3127 112.54 81.6691 116.078C84.0255 119.616 87.3748 122.373 91.2933 124.001C95.2119 125.63 99.5238 126.056 103.684 125.226C107.844 124.396 111.665 122.347 114.664 119.338C117.663 116.329 119.705 112.496 120.533 108.322C121.36 104.149 120.936 99.8234 119.312 95.8922C117.689 91.9611 114.941 88.6011 111.414 86.2371C107.888 83.8731 103.741 82.6113 99.4999 82.6113C93.8124 82.6113 88.3578 84.878 84.3361 88.9126C80.3144 92.9472 78.0551 98.4194 78.0551 104.125V104.125Z" stroke="#DAB689" stroke-width="1.3" stroke-linecap="round" stroke-linejoin="round"/>
<path d="M27.1949 108.631C27.1949 108.631 44.0807 55.2024 99.4998 55.2024C154.919 55.2024 171.805 108.631 171.805 108.631C171.805 108.631 144.483 145.9 99.4998 145.9C54.5161 145.9 27.1949 108.631 27.1949 108.631Z" stroke="#DAB689" stroke-width="1.3" stroke-linecap="round" stroke-linejoin="round"/>
</svg>
