<svg width="543" height="594" viewBox="0 0 543 594" fill="none" xmlns="http://www.w3.org/2000/svg">
<path d="M416.217 593.269L416.852 593.21L465.841 588.77L465.799 588.244C464.702 573.997 463.896 563.941 463.309 556.599C462.188 542.594 461.885 538.829 461.885 535.317C461.885 529.405 462.745 522.471 472.993 515.152C478.816 511.014 484.817 507.432 490.119 504.287C500.752 497.973 509.149 492.99 510.821 486.658L510.851 486.534C513.223 477.46 516.864 463.745 521.709 454.812C524.71 449.273 528.955 437.787 532.691 427.654C533.878 424.468 534.981 421.453 535.989 418.786C537.175 415.724 538.011 413.59 538.693 412.059C540.075 408.955 539.47 407.537 538.693 406.898C537.341 405.751 534.619 406.307 531.399 408.352H531.013V408.601L530.616 408.873C526.18 411.97 515.482 429.658 509.113 445.945C508.36 439.59 508.129 434.305 507.927 429.587C507.791 426.442 507.66 423.474 507.393 420.578L507.334 419.945C506.741 413.791 506.231 407.98 504.998 404.131C504.049 401.176 502.738 399.55 500.989 399.118C499.406 398.734 497.241 399.053 495.883 402.784C495.035 405.113 494.567 408.577 494.489 413.076C494.489 413.756 494.489 414.382 494.489 414.95V415.925L495.314 415.411C495.781 415.116 496.268 414.855 496.773 414.631C498.836 413.726 500.924 413.821 502.43 414.891C503.089 415.39 503.602 416.057 503.915 416.821C504.227 417.585 504.329 418.419 504.209 419.236C504.031 421.074 503.106 423.782 501.612 426.856C499.649 430.917 497.146 434.695 494.169 438.088C493.351 438.998 491.708 438.478 490.807 438.088C487.575 436.687 483.691 432.649 483.892 430.101C484.046 428.328 485.671 425.283 488.162 422.162L489.983 419.868L487.462 421.364C487.065 421.6 486.662 421.861 486.276 422.132C482.38 424.604 478.775 429.226 478.472 429.623C471.166 437.532 466.736 446.648 462.822 454.688C460.954 458.531 459.193 462.154 457.331 465.169C452.996 472.186 448.845 475.846 444.042 480.09C440.073 483.471 436.349 487.128 432.899 491.033C426.281 498.629 423.31 511.132 422.663 516.672C421.537 526.284 417.279 579.56 416.294 592.577L416.217 593.269ZM464.684 587.795L417.392 592.081C418.459 578.064 422.598 526.302 423.701 516.861C424.442 510.541 427.704 498.659 433.682 491.795C437.101 487.924 440.791 484.299 444.724 480.948C449.592 476.65 453.797 472.937 458.221 465.79C460.112 462.728 461.885 459.074 463.765 455.208C467.65 447.227 472.068 438.183 479.249 430.379L479.285 430.344C481.101 428.029 483.17 425.921 485.452 424.06C483.886 426.424 482.92 428.564 482.795 430.054C482.528 433.152 486.709 437.544 490.356 439.123C492.372 439.997 494.003 439.903 494.946 438.857C497.992 435.381 500.554 431.511 502.56 427.352C504.108 424.172 505.069 421.334 505.259 419.372C505.403 418.369 505.275 417.346 504.887 416.41C504.499 415.474 503.865 414.659 503.053 414.051C501.274 412.757 498.747 412.615 496.334 413.679C496.085 413.785 495.83 413.909 495.575 414.045C495.575 413.75 495.575 413.454 495.575 413.123C495.646 408.743 496.097 405.397 496.903 403.18C498.214 399.579 500.111 400.041 500.734 400.194C502.092 400.525 503.153 401.932 503.972 404.486C505.158 408.228 505.703 413.98 506.267 420.075L506.32 420.702C506.587 423.575 506.717 426.531 506.854 429.664C507.085 434.925 507.352 440.896 508.325 448.262L508.609 450.414L509.362 448.374C515.541 431.727 526.744 412.904 531.245 409.783L531.838 409.369L531.95 409.298C535.046 407.318 537.204 407.087 537.981 407.749C538.639 408.305 538.527 409.73 537.673 411.651C536.985 413.2 536.119 415.358 534.945 418.432C533.937 421.092 532.822 424.101 531.648 427.299C527.918 437.396 523.69 448.847 520.724 454.316C515.82 463.36 512.179 477.152 509.771 486.28L509.742 486.398C508.182 492.31 499.951 497.193 489.532 503.376C484.195 506.533 478.187 510.11 472.334 514.295C461.66 521.915 460.777 529.151 460.777 535.335C460.777 538.882 461.079 542.642 462.206 556.676C462.816 563.941 463.605 573.837 464.684 587.801V587.795Z" fill="#DAB689"/>
<path d="M492.829 439.312C493.16 439.325 493.49 439.268 493.797 439.144C494.104 439.019 494.381 438.831 494.608 438.591C497.626 435.144 500.165 431.308 502.157 427.187C503.681 424.048 504.63 421.276 504.814 419.348C504.948 418.419 504.83 417.47 504.472 416.601C504.115 415.732 503.53 414.974 502.78 414.406C501.114 413.224 498.759 413.082 496.476 414.081C495.946 414.32 495.433 414.594 494.94 414.903L494.887 414.938V415.003C494.887 417.835 494.964 419.378 495 419.833C494.324 419.75 491.406 419.555 487.629 421.796H487.599C485.007 425.065 483.359 428.163 483.193 430.072C482.938 432.992 486.982 437.166 490.499 438.709C491.226 439.067 492.019 439.272 492.829 439.312V439.312ZM499.548 413.638C500.665 413.621 501.759 413.956 502.673 414.595C503.389 415.141 503.946 415.867 504.286 416.698C504.627 417.529 504.74 418.436 504.613 419.325C504.423 421.216 503.486 423.971 501.974 427.087C499.99 431.189 497.463 435.006 494.46 438.437V438.437C493.719 439.259 492.355 439.294 490.617 438.538C487.19 437.06 483.211 432.886 483.448 430.131C483.608 428.281 485.268 425.16 487.789 421.979C491.999 419.496 495.095 420.075 495.124 420.081L495.278 420.111V419.957C495.278 419.957 495.142 418.432 495.154 415.068C495.619 414.777 496.105 414.518 496.607 414.294C497.531 413.876 498.533 413.652 499.548 413.638V413.638Z" fill="#DAB689"/>
<path d="M478.822 430.965L479.284 430.374C479.32 430.326 483.008 425.538 486.845 423.102L487.332 422.795L486.988 422.334C485.742 420.637 484.616 418.113 483.524 415.671C482.759 413.969 482.042 412.361 481.301 411.054L481.253 410.972C480.862 410.249 480.38 409.579 479.818 408.979C478.953 408.019 477.742 407.439 476.45 407.365V407.365C475.991 407.375 475.539 407.477 475.121 407.666C474.703 407.855 474.328 408.127 474.018 408.465C473.176 409.378 472.657 410.541 472.542 411.776C472.222 414.211 472.88 417.226 473.568 419.857C474.902 424.97 478.312 430.125 478.424 430.344L478.822 430.965ZM485.796 422.493C482.765 424.557 479.99 427.772 478.905 429.103C477.962 427.571 475.614 423.498 474.588 419.573C473.923 417.043 473.289 414.158 473.591 411.888C473.679 410.88 474.096 409.929 474.777 409.18C474.987 408.947 475.243 408.758 475.528 408.626C475.814 408.494 476.123 408.421 476.438 408.412V408.412C477.441 408.494 478.374 408.96 479.041 409.712C479.556 410.265 479.995 410.883 480.346 411.551L480.393 411.634C481.099 412.887 481.793 414.436 482.522 416.079C483.44 418.301 484.535 420.446 485.796 422.493Z" fill="#DAB689"/>
<path d="M475.982 484.855H477.061C476.812 476.703 481.497 464.927 487.949 457.467C497.437 446.453 502.94 438.266 502.774 428.984C502.62 420.992 497.022 419.685 495.308 419.472H495.249L495.077 420.537H495.178C497.093 420.773 501.558 422.068 501.701 429.002C501.849 436.888 498.042 444.154 487.148 456.757C480.406 464.501 475.727 476.331 475.982 484.855Z" fill="#DAB689"/>
<path d="M500.046 468.853C500.793 460.907 505.49 453.335 509.297 448.381L508.437 447.724C504.547 452.791 499.743 460.553 498.949 468.752L500.046 468.853Z" fill="#DAB689"/>
<path d="M492.752 464.395L493.825 464.265C493.232 459.134 493.825 450.633 493.825 450.55L492.746 450.473C492.722 450.84 492.117 459.175 492.752 464.395Z" fill="#DAB689"/>
<path d="M494.549 438.514C497.555 435.079 500.086 431.258 502.074 427.152C503.551 424.119 504.535 421.3 504.725 419.355C505.17 414.844 501.036 412.261 496.547 414.206C496.021 414.442 495.512 414.715 495.023 415.021C492.568 416.547 489.888 419.16 487.711 421.908C485.298 424.953 483.501 428.139 483.329 430.137C482.967 434.305 491.91 441.435 494.549 438.514Z" fill="#DAB689"/>
<path d="M538.201 411.888C537.454 413.573 536.529 415.908 535.485 418.645C540.715 409.872 544.777 403.133 541.741 401.537C539.903 400.567 534.156 405.32 531.577 408.938C536.683 405.628 540.745 406.16 538.201 411.888Z" fill="#DAB689"/>
<path d="M496.417 403.015C497.277 400.65 498.664 399.148 500.888 399.692C502.56 400.1 503.693 401.791 504.511 404.345H504.63C504.215 399.893 502.851 396.258 500.277 396.258C497.703 396.258 497.188 399.793 496.417 403.015Z" fill="#DAB689"/>
<path d="M472.827 411.847H473.058C473.161 410.727 473.628 409.67 474.386 408.838C475.952 407.218 477.992 407.91 479.439 409.358C479.983 409.95 480.451 410.608 480.833 411.315C479.131 406.148 476.462 404.049 474.481 404.812C471.261 406.077 472.827 411.847 472.827 411.847Z" fill="#DAB689"/>
<path d="M126.762 0.25757L126.721 0.890982C125.983 13.9129 122.735 67.2717 121.797 76.9036C121.256 82.46 118.522 95.0112 112.049 102.732C108.67 106.699 105.016 110.425 101.115 113.883C96.3932 118.218 92.3121 121.955 88.1109 129.053C86.3063 132.103 84.608 135.76 82.8132 139.637C79.0582 147.749 74.8016 156.936 67.647 164.994C67.352 165.39 63.8289 170.086 59.9686 172.643C59.5941 172.91 59.2018 173.178 58.7972 173.422L56.3056 174.965L58.0824 172.637C60.5017 169.47 62.0804 166.395 62.201 164.618C62.3721 162.067 58.3943 158.104 55.1364 156.764C54.2218 156.391 52.5755 155.902 51.7746 156.828C48.8626 160.277 46.4312 164.102 44.5463 168.199C43.1104 171.301 42.2368 174.025 42.0937 175.867C41.9891 176.686 42.1065 177.518 42.4338 178.276C42.7611 179.034 43.2863 179.691 43.9547 180.178C45.4514 181.219 47.5702 181.292 49.616 180.331C50.1141 180.096 50.5947 179.826 51.0539 179.523L51.8742 178.993L51.8927 179.968C51.9039 180.559 51.9151 181.15 51.9282 181.842C51.9363 186.341 51.5335 189.814 50.7298 192.158C49.4427 195.914 47.2787 196.274 45.6943 195.92C43.9074 195.522 42.5898 193.909 41.5913 190.984C40.2851 187.159 39.6294 181.353 38.9555 175.211L38.8844 174.586C38.5628 171.7 38.376 168.73 38.1801 165.588C37.883 160.863 37.546 155.596 36.6844 149.256C30.6251 165.66 20.2641 183.547 15.8878 186.729L15.4897 187.008L15.4944 187.256L15.115 187.263C11.9285 189.381 9.23516 189.976 7.84975 188.856C7.08466 188.232 6.45302 186.824 7.75199 183.696C8.3989 182.152 9.2182 180.002 10.3282 176.918C11.286 174.251 12.3376 171.216 13.4509 167.99C17.0002 157.788 21.0219 146.224 23.9231 140.629C28.5979 131.606 31.9549 117.825 34.1782 108.701L34.2056 108.582C35.7577 102.22 44.0708 97.0781 54.5702 90.5644C59.8053 87.3197 65.7439 83.6418 71.4876 79.3763C81.5944 71.8649 82.3229 64.9214 82.2108 59.0049C82.1447 55.5177 81.7711 51.7642 80.3854 37.7891C79.6534 30.4594 78.6624 20.4147 77.2896 6.18516L77.2381 5.65997L77.7708 5.60253L126.762 0.25757ZM60.745 170.73C62.9901 168.825 65.018 166.678 66.7922 164.33L66.8271 164.294C73.8773 156.362 78.1054 147.235 81.8377 139.177C83.6439 135.275 85.3475 131.589 87.1809 128.492C91.4627 121.262 95.5961 117.47 100.382 113.081C104.253 109.658 107.875 105.965 111.223 102.032C117.064 95.0566 120.105 83.1144 120.721 76.7821C121.651 67.3041 124.809 15.4903 125.611 1.45601L78.4073 6.63703C79.7511 20.5892 80.7271 30.4686 81.4454 37.704C82.8378 51.7144 83.2057 55.4798 83.2726 59.0084C83.3897 65.1909 82.6374 72.4423 72.1212 80.2631C66.3366 84.5589 60.4101 88.2483 55.1337 91.5057C44.8334 97.8855 36.6964 102.929 35.249 108.864L35.2512 108.982C33.0168 118.148 29.6376 132.006 24.9056 141.148C22.0447 146.671 18.0341 158.2 14.496 168.366C13.3706 171.58 12.3248 174.61 11.3674 177.295C10.2398 180.391 9.42688 182.564 8.76845 184.126C7.95105 186.063 7.86539 187.489 8.53405 188.033C9.31726 188.674 11.4712 188.409 14.5228 186.376L14.6459 186.297C14.845 186.163 15.0499 186.017 15.231 185.872C19.6775 182.642 30.5215 163.634 36.3842 146.873L37.0986 144.819L37.424 146.965C38.536 154.318 38.9158 160.276 39.2467 165.532C39.4424 168.662 39.6288 171.615 39.9441 174.483L40.0146 175.073C40.723 181.155 41.3301 186.903 42.6046 190.621C43.4712 193.159 44.5532 194.546 45.9172 194.851C46.5486 194.993 48.4542 195.394 49.6968 191.794C50.4612 189.562 50.8425 186.208 50.8366 181.827C50.8305 181.508 50.8247 181.2 50.8191 180.905C50.5608 181.046 50.3141 181.175 50.0671 181.286C47.6741 182.395 45.1575 182.301 43.3365 181.041C42.5143 180.447 41.8668 179.644 41.4612 178.716C41.0556 177.787 40.9067 176.768 41.0301 175.763C41.1885 173.797 42.1251 170.947 43.5826 167.732C45.5105 163.538 47.9958 159.62 50.9717 156.086C51.9005 155.022 53.5292 154.897 55.5617 155.733C59.232 157.242 63.5012 161.555 63.293 164.657C63.1853 166.173 62.2654 168.33 60.745 170.73Z" fill="#DAB689"/>
<path d="M53.0809 155.638C53.8826 155.663 54.6711 155.849 55.3985 156.186C58.9427 157.609 63.0534 161.699 62.8663 164.659C62.7368 166.589 61.1472 169.717 58.6178 173.017L58.5822 173.018C54.8537 175.33 51.9329 175.19 51.2554 175.12C51.2641 175.575 51.4178 177.115 51.4596 179.947L51.4608 180.012L51.4081 180.048C50.9195 180.366 50.4096 180.65 49.8821 180.899C47.6243 181.941 45.2681 181.861 43.5734 180.693C42.8121 180.14 42.2137 179.393 41.8406 178.531C41.4675 177.669 41.3333 176.722 41.452 175.79C41.5995 173.872 42.4949 171.041 43.9597 167.903C45.8744 163.746 48.3382 159.864 51.2855 156.358V156.358C51.5156 156.117 51.795 155.928 52.1047 155.804C52.4145 155.68 52.7474 155.623 53.0809 155.638V155.638ZM58.443 172.873C60.9432 169.597 62.5101 166.522 62.6346 164.64C62.8196 161.881 58.7621 157.783 55.3071 156.371C53.5556 155.647 52.1866 155.709 51.461 156.544C48.534 160.033 46.0896 163.897 44.1935 168.034C42.7406 171.178 41.8561 173.956 41.7021 175.845C41.5917 176.736 41.7214 177.64 42.0779 178.465C42.4344 179.29 43.0048 180.005 43.7305 180.537C45.3538 181.688 47.6263 181.734 49.8136 180.723C50.3105 180.488 50.7909 180.22 51.2515 179.921C51.1878 176.558 51.0346 175.047 51.0344 175.035L51.0315 174.882L51.1803 174.908C51.1807 174.932 54.2863 175.435 58.443 172.873Z" fill="#DAB689"/>
<path d="M67.2433 163.719L67.6763 164.344C67.8227 164.56 71.2999 169.65 72.7308 174.737C73.4684 177.354 74.1837 180.356 73.9037 182.798C73.8079 184.032 73.3141 185.203 72.496 186.135C72.1931 186.479 71.8233 186.758 71.4089 186.955C70.9946 187.152 70.5445 187.263 70.0859 187.281C69.4413 187.26 68.8073 187.112 68.2201 186.846C67.6329 186.58 67.104 186.201 66.6639 185.732C66.0852 185.138 65.5861 184.471 65.1791 183.749V183.749L65.1423 183.685C64.3764 182.393 63.6226 180.799 62.8315 179.111C61.6943 176.691 60.514 174.188 59.2367 172.515L58.89 172.061L59.3704 171.744C63.1604 169.236 66.7576 164.379 66.7923 164.331L67.2433 163.719ZM71.6925 175.029C70.5924 171.124 68.1614 167.096 67.1956 165.583C66.1357 166.933 63.4218 170.201 60.4312 172.321C61.7259 174.338 62.855 176.456 63.8074 178.655C64.5799 180.296 65.3091 181.843 66.0384 183.083L66.0691 183.141C66.4347 183.803 66.8871 184.412 67.4143 184.955C68.0948 185.701 69.0431 186.151 70.0537 186.205C70.3691 186.191 70.6782 186.113 70.9622 185.975C71.2462 185.838 71.499 185.644 71.7052 185.405C72.3727 184.644 72.7712 183.685 72.8397 182.676C73.0994 180.418 72.4104 177.546 71.698 175.011L71.6925 175.029Z" fill="#DAB689"/>
<path d="M69.0624 109.784C69.4788 118.302 65.0189 130.218 58.4484 138.112C47.7895 150.92 44.1206 158.256 44.4241 166.138C44.6918 173.068 49.181 174.278 51.1065 174.478L51.2073 174.476L51.0555 175.544L50.9962 175.545C49.2787 175.364 43.6569 174.164 43.3513 166.176C42.9976 156.9 48.3151 148.61 57.6345 137.418C63.9441 129.836 68.3991 117.974 68.0016 109.828L69.0624 109.784Z" fill="#DAB689"/>
<path d="M45.3054 126.24L46.3805 126.32C45.765 134.533 41.1095 142.384 37.2923 147.524L36.4261 146.884C40.1387 141.859 44.7089 134.198 45.3054 126.24Z" fill="#DAB689"/>
<path d="M52.6825 130.558C53.4161 135.783 52.9697 144.152 52.9462 144.478L51.8715 144.421C51.8699 144.339 52.3315 135.827 51.6117 130.709L52.6825 130.558Z" fill="#DAB689"/>
<path d="M51.3763 156.469C48.4354 159.96 45.9772 163.829 44.0676 167.971C42.6487 171.031 41.7179 173.869 41.565 175.818C41.2057 180.336 45.3813 182.841 49.8387 180.811C50.3592 180.566 50.8613 180.284 51.3411 179.966C54.0963 178.03 56.5209 175.665 58.5215 172.96C60.8829 169.87 62.6132 166.65 62.7472 164.649C63.0296 160.458 53.9595 153.499 51.3763 156.469Z" fill="#DAB689"/>
<path d="M8.23634 183.917C8.95149 182.218 9.83218 179.866 10.8238 177.11C5.76061 185.98 1.82095 192.795 4.89278 194.334C6.74948 195.286 12.4044 190.407 14.8912 186.741C9.86683 190.148 5.80129 189.693 8.23634 183.917Z" fill="#DAB689"/>
<path d="M50.1931 191.997C49.3722 194.378 48.0132 195.906 45.7855 195.404C44.1057 195.028 42.9413 193.359 42.0747 190.821L41.9561 190.823C42.4555 195.266 43.888 198.875 46.4612 198.826C49.0344 198.778 49.4537 195.234 50.1931 191.997Z" fill="#DAB689"/>
<path d="M73.5994 182.72L73.3682 182.725C73.2862 183.846 72.84 184.911 72.097 185.758C70.5624 187.407 68.5097 186.754 67.0356 185.334C66.4808 184.752 66.0004 184.103 65.6052 183.404C67.4047 188.537 70.1066 190.585 72.0784 189.785C75.274 188.459 73.5994 182.72 73.5994 182.72Z" fill="#DAB689"/>
</svg>
