<svg width="234" height="202" viewBox="0 0 234 202" fill="none" xmlns="http://www.w3.org/2000/svg">
<path d="M113.846 128.154C148.683 128.154 176.923 99.9134 176.923 65.0769C176.923 30.2405 148.683 2 113.846 2C79.0097 2 50.7692 30.2405 50.7692 65.0769C50.7692 99.9134 79.0097 128.154 113.846 128.154Z" stroke="#DAB689" stroke-width="2.5" stroke-miterlimit="10"/>
<path d="M113.846 1.99994L82.3077 50.8656L113.846 126.577L145.385 50.8656L113.846 1.99994Z" stroke="#DAB689" stroke-width="2.5" stroke-miterlimit="10" stroke-linejoin="bevel"/>
<path d="M113.846 2V128.154" stroke="#DAB689" stroke-width="2.5" stroke-miterlimit="10"/>
<path d="M52.3765 50.8654H175.316" stroke="#DAB689" stroke-width="2.5" stroke-miterlimit="10"/>
<path d="M56.951 173.917C56.2897 174.045 55.4577 174.141 54.455 174.205C53.4737 174.29 52.5563 174.333 51.703 174.333C49.0577 174.333 47.127 174.045 45.911 173.469C44.695 172.893 43.8737 171.848 43.447 170.333C43.0417 168.797 42.839 166.376 42.839 163.069C42.839 159.784 43.0417 157.373 43.447 155.837C43.8737 154.301 44.695 153.245 45.911 152.669C47.127 152.093 49.0577 151.805 51.703 151.805C52.5777 151.805 53.495 151.848 54.455 151.933C55.415 152.018 56.2043 152.136 56.823 152.285V154.685C55.223 154.472 53.751 154.365 52.407 154.365C50.167 154.365 48.599 154.536 47.703 154.877C46.8283 155.218 46.2523 155.954 45.975 157.085C45.6977 158.216 45.559 160.21 45.559 163.069C45.559 165.928 45.6977 167.922 45.975 169.053C46.2523 170.184 46.8283 170.92 47.703 171.261C48.599 171.602 50.167 171.773 52.407 171.773C54.0497 171.773 55.5643 171.666 56.951 171.453V173.917ZM61.5653 157.757H63.8693L63.9973 160.861H64.1893C64.5733 159.581 65.2133 158.706 66.1093 158.237C67.0053 157.746 68.1786 157.501 69.6293 157.501V160.285C68.1573 160.285 67.0266 160.509 66.2373 160.957C65.4479 161.405 64.9039 162.098 64.6053 163.037C64.3066 163.954 64.1573 165.202 64.1573 166.781V174.077H61.5653V157.757ZM79.5873 180.669C77.3046 180.669 75.4699 180.573 74.0833 180.381V178.141C76.4299 178.248 78.0726 178.301 79.0113 178.301C80.6539 178.301 81.8486 178.13 82.5953 177.789C83.3419 177.469 83.8219 176.946 84.0353 176.221C84.2486 175.517 84.3553 174.397 84.3553 172.861V171.901H84.1633C83.8433 172.626 83.2673 173.202 82.4353 173.629C81.6246 174.034 80.4406 174.237 78.8833 174.237C77.3259 174.237 76.1419 174.024 75.3313 173.597C74.5419 173.149 74.0086 172.488 73.7313 171.613C73.4539 170.717 73.3153 169.49 73.3153 167.933V157.757H75.9073V166.877C75.9073 168.413 75.9926 169.501 76.1633 170.141C76.3553 170.781 76.7179 171.208 77.2513 171.421C77.7846 171.634 78.6806 171.741 79.9392 171.741C81.2833 171.741 82.2646 171.528 82.8833 171.101C83.5233 170.674 83.9286 170.088 84.0993 169.341C84.2699 168.594 84.3553 167.528 84.3553 166.141V157.757H86.9473V172.093C86.9473 174.354 86.7766 176.072 86.4353 177.245C86.0939 178.418 85.4006 179.282 84.3553 179.837C83.3099 180.392 81.7206 180.669 79.5873 180.669ZM92.4715 157.757H94.7755L94.9035 160.061H95.0955C95.5222 159.08 96.1942 158.408 97.1115 158.045C98.0502 157.682 99.1702 157.501 100.472 157.501C102.093 157.501 103.33 157.746 104.184 158.237C105.037 158.728 105.634 159.57 105.976 160.765C106.338 161.938 106.52 163.645 106.52 165.885C106.52 168.146 106.338 169.874 105.976 171.069C105.634 172.264 105.037 173.106 104.184 173.597C103.352 174.088 102.136 174.333 100.536 174.333C99.1488 174.333 98.0182 174.162 97.1435 173.821C96.2902 173.48 95.6502 172.882 95.2235 172.029H95.0635V180.477H92.4715V157.757ZM99.4475 171.805C100.834 171.805 101.816 171.677 102.392 171.421C102.989 171.165 103.384 170.642 103.576 169.853C103.789 169.064 103.896 167.752 103.896 165.917C103.896 164.082 103.789 162.77 103.576 161.981C103.384 161.192 102.989 160.669 102.392 160.413C101.816 160.136 100.834 159.997 99.4475 159.997C98.3595 159.997 97.4955 160.146 96.8555 160.445C96.2155 160.744 95.7675 161.202 95.5115 161.821C95.3195 162.29 95.1915 162.834 95.1275 163.453C95.0848 164.072 95.0635 164.893 95.0635 165.917C95.0635 166.962 95.0848 167.784 95.1275 168.381C95.1702 168.978 95.2768 169.48 95.4475 169.885C95.7248 170.568 96.1835 171.058 96.8235 171.357C97.4635 171.656 98.3382 171.805 99.4475 171.805ZM112.566 174.077V160.125H109.27V157.757H112.566V153.021H115.158V157.757H119.062V160.125H115.158V174.077H112.566ZM129.029 174.333C126.747 174.333 125.115 174.109 124.133 173.661C123.152 173.192 122.523 172.413 122.245 171.325C121.989 170.216 121.861 168.413 121.861 165.917C121.861 163.421 121.989 161.629 122.245 160.541C122.523 159.432 123.152 158.653 124.133 158.205C125.115 157.736 126.747 157.501 129.029 157.501C131.291 157.501 132.912 157.736 133.893 158.205C134.875 158.653 135.493 159.432 135.749 160.541C136.027 161.629 136.165 163.421 136.165 165.917C136.165 168.413 136.027 170.216 135.749 171.325C135.493 172.413 134.875 173.192 133.893 173.661C132.912 174.109 131.291 174.333 129.029 174.333ZM129.029 171.965C130.587 171.965 131.664 171.826 132.261 171.549C132.859 171.272 133.221 170.77 133.349 170.045C133.499 169.298 133.573 167.922 133.573 165.917C133.573 163.912 133.499 162.546 133.349 161.821C133.221 161.074 132.859 160.562 132.261 160.285C131.664 160.008 130.587 159.869 129.029 159.869C127.472 159.869 126.384 160.008 125.765 160.285C125.168 160.562 124.795 161.074 124.645 161.821C124.517 162.546 124.453 163.912 124.453 165.917C124.453 167.922 124.517 169.298 124.645 170.045C124.795 170.77 125.168 171.272 125.765 171.549C126.384 171.826 127.472 171.965 129.029 171.965ZM146.442 174.333C145.567 174.333 144.575 174.29 143.466 174.205C142.357 174.12 141.375 174.024 140.522 173.917V171.613C142.634 171.848 144.565 171.965 146.314 171.965C147.402 171.965 148.202 171.89 148.714 171.741C149.226 171.592 149.557 171.357 149.706 171.037C149.877 170.696 149.962 170.194 149.962 169.533C149.962 168.872 149.898 168.402 149.77 168.125C149.663 167.826 149.482 167.624 149.226 167.517C148.97 167.41 148.522 167.325 147.882 167.261L143.626 166.781C142.645 166.674 141.887 166.45 141.354 166.109C140.842 165.768 140.49 165.298 140.298 164.701C140.106 164.104 140.01 163.304 140.01 162.301C140.01 160.914 140.255 159.88 140.746 159.197C141.258 158.493 141.951 158.034 142.826 157.821C143.722 157.608 144.917 157.501 146.41 157.501C147.242 157.501 148.138 157.544 149.098 157.629C150.058 157.714 150.869 157.821 151.53 157.949V160.253C149.866 159.997 148.149 159.869 146.378 159.869C145.397 159.869 144.65 159.922 144.138 160.029C143.626 160.114 143.231 160.328 142.954 160.669C142.677 160.989 142.538 161.501 142.538 162.205C142.538 162.824 142.591 163.272 142.698 163.549C142.805 163.826 142.986 164.018 143.242 164.125C143.498 164.232 143.925 164.317 144.522 164.381L148.938 164.893C149.877 165 150.581 165.181 151.05 165.437C151.541 165.672 151.893 166.098 152.106 166.717C152.341 167.336 152.458 168.253 152.458 169.469C152.458 170.813 152.234 171.837 151.786 172.541C151.359 173.245 150.719 173.725 149.866 173.981C149.034 174.216 147.893 174.333 146.442 174.333ZM158.191 174.077V160.125H154.895V157.757H158.191V153.021H160.783V157.757H164.687V160.125H160.783V174.077H158.191ZM172.386 174.333C170.509 174.333 169.143 173.992 168.29 173.309C167.437 172.605 167.01 171.368 167.01 169.597C167.01 168.338 167.159 167.357 167.458 166.653C167.757 165.949 168.258 165.437 168.962 165.117C169.687 164.797 170.701 164.637 172.002 164.637C172.621 164.637 174.658 164.69 178.114 164.797V163.837C178.114 162.557 177.986 161.65 177.73 161.117C177.495 160.584 177.047 160.242 176.386 160.093C175.746 159.944 174.647 159.869 173.09 159.869C172.407 159.869 171.543 159.912 170.498 159.997C169.474 160.061 168.674 160.136 168.098 160.221V157.949C169.783 157.65 171.757 157.501 174.018 157.501C175.938 157.501 177.367 157.704 178.306 158.109C179.266 158.493 179.906 159.133 180.226 160.029C180.546 160.904 180.706 162.184 180.706 163.869V174.077H178.37L178.242 171.805H178.05C177.602 172.829 176.877 173.512 175.874 173.853C174.893 174.173 173.73 174.333 172.386 174.333ZM173.378 171.997C174.445 171.997 175.309 171.901 175.97 171.709C176.653 171.517 177.143 171.144 177.442 170.589C177.89 169.821 178.114 168.754 178.114 167.389V166.653H172.674C171.778 166.653 171.117 166.717 170.69 166.845C170.285 166.973 169.997 167.229 169.826 167.613C169.655 167.976 169.57 168.552 169.57 169.341C169.57 170.109 169.666 170.674 169.858 171.037C170.05 171.4 170.402 171.656 170.914 171.805C171.447 171.933 172.269 171.997 173.378 171.997ZM186.284 174.077V150.301H188.876V174.077H186.284Z" fill="#DAB689"/>
</svg>
