<svg width="207" height="50" viewBox="0 0 207 50" fill="none" xmlns="http://www.w3.org/2000/svg">
<path d="M21 45C32.0457 45 41 36.0457 41 25C41 13.9543 32.0457 5 21 5C9.9543 5 1 13.9543 1 25C1 36.0457 9.9543 45 21 45Z" stroke="#DAB689" stroke-width="1.8" stroke-miterlimit="10"/>
<path d="M21 4.99999L11 20.494L21 44.5L31 20.494L21 4.99999Z" stroke="#DAB689" stroke-width="1.8" stroke-miterlimit="10" stroke-linejoin="bevel"/>
<path d="M21 5V45" stroke="#DAB689" stroke-width="1.8" stroke-miterlimit="10"/>
<path d="M1.50952 20.4939H40.4905" stroke="#DAB689" stroke-width="1.8" stroke-miterlimit="10"/>
<path d="M71.951 35.84C71.2897 35.968 70.4577 36.064 69.455 36.128C68.4737 36.2133 67.5563 36.256 66.703 36.256C64.0577 36.256 62.127 35.968 60.911 35.392C59.695 34.816 58.8737 33.7707 58.447 32.256C58.0417 30.72 57.839 28.2987 57.839 24.992C57.839 21.7067 58.0417 19.296 58.447 17.76C58.8737 16.224 59.695 15.168 60.911 14.592C62.127 14.016 64.0577 13.728 66.703 13.728C67.5777 13.728 68.495 13.7707 69.455 13.856C70.415 13.9413 71.2043 14.0587 71.823 14.208V16.608C70.223 16.3947 68.751 16.288 67.407 16.288C65.167 16.288 63.599 16.4587 62.703 16.8C61.8283 17.1413 61.2523 17.8773 60.975 19.008C60.6977 20.1387 60.559 22.1333 60.559 24.992C60.559 27.8507 60.6977 29.8453 60.975 30.976C61.2523 32.1067 61.8283 32.8427 62.703 33.184C63.599 33.5253 65.167 33.696 67.407 33.696C69.0497 33.696 70.5643 33.5893 71.951 33.376V35.84ZM76.5653 19.68H78.8693L78.9973 22.784H79.1893C79.5733 21.504 80.2133 20.6293 81.1093 20.16C82.0053 19.6693 83.1786 19.424 84.6293 19.424V22.208C83.1573 22.208 82.0266 22.432 81.2373 22.88C80.4479 23.328 79.9039 24.0213 79.6053 24.96C79.3066 25.8773 79.1573 27.1253 79.1573 28.704V36H76.5653V19.68ZM94.5873 42.592C92.3046 42.592 90.4699 42.496 89.0833 42.304V40.064C91.4299 40.1707 93.0726 40.224 94.0113 40.224C95.6539 40.224 96.8486 40.0533 97.5953 39.712C98.3419 39.392 98.8219 38.8693 99.0353 38.144C99.2486 37.44 99.3553 36.32 99.3553 34.784V33.824H99.1633C98.8433 34.5493 98.2673 35.1253 97.4353 35.552C96.6246 35.9573 95.4406 36.16 93.8833 36.16C92.3259 36.16 91.1419 35.9467 90.3313 35.52C89.5419 35.072 89.0086 34.4107 88.7313 33.536C88.4539 32.64 88.3153 31.4133 88.3153 29.856V19.68H90.9073V28.8C90.9073 30.336 90.9926 31.424 91.1633 32.064C91.3553 32.704 91.7179 33.1307 92.2513 33.344C92.7846 33.5573 93.6806 33.664 94.9392 33.664C96.2833 33.664 97.2646 33.4507 97.8833 33.024C98.5233 32.5973 98.9286 32.0107 99.0993 31.264C99.2699 30.5173 99.3553 29.4507 99.3553 28.064V19.68H101.947V34.016C101.947 36.2773 101.777 37.9947 101.435 39.168C101.094 40.3413 100.401 41.2053 99.3553 41.76C98.3099 42.3147 96.7206 42.592 94.5873 42.592ZM107.472 19.68H109.776L109.904 21.984H110.096C110.522 21.0027 111.194 20.3307 112.112 19.968C113.05 19.6053 114.17 19.424 115.472 19.424C117.093 19.424 118.33 19.6693 119.184 20.16C120.037 20.6507 120.634 21.4933 120.976 22.688C121.338 23.8613 121.52 25.568 121.52 27.808C121.52 30.0693 121.338 31.7973 120.976 32.992C120.634 34.1867 120.037 35.0293 119.184 35.52C118.352 36.0107 117.136 36.256 115.536 36.256C114.149 36.256 113.018 36.0853 112.144 35.744C111.29 35.4027 110.65 34.8053 110.224 33.952H110.064V42.4H107.472V19.68ZM114.448 33.728C115.834 33.728 116.816 33.6 117.392 33.344C117.989 33.088 118.384 32.5653 118.576 31.776C118.789 30.9867 118.896 29.6747 118.896 27.84C118.896 26.0053 118.789 24.6933 118.576 23.904C118.384 23.1147 117.989 22.592 117.392 22.336C116.816 22.0587 115.834 21.92 114.448 21.92C113.36 21.92 112.496 22.0693 111.856 22.368C111.216 22.6667 110.768 23.1253 110.512 23.744C110.32 24.2133 110.192 24.7573 110.128 25.376C110.085 25.9947 110.064 26.816 110.064 27.84C110.064 28.8853 110.085 29.7067 110.128 30.304C110.17 30.9013 110.277 31.4027 110.448 31.808C110.725 32.4907 111.184 32.9813 111.824 33.28C112.464 33.5787 113.338 33.728 114.448 33.728ZM127.566 36V22.048H124.27V19.68H127.566V14.944H130.158V19.68H134.062V22.048H130.158V36H127.566ZM144.029 36.256C141.747 36.256 140.115 36.032 139.133 35.584C138.152 35.1147 137.523 34.336 137.245 33.248C136.989 32.1387 136.861 30.336 136.861 27.84C136.861 25.344 136.989 23.552 137.245 22.464C137.523 21.3547 138.152 20.576 139.133 20.128C140.115 19.6587 141.747 19.424 144.029 19.424C146.291 19.424 147.912 19.6587 148.893 20.128C149.875 20.576 150.493 21.3547 150.749 22.464C151.027 23.552 151.165 25.344 151.165 27.84C151.165 30.336 151.027 32.1387 150.749 33.248C150.493 34.336 149.875 35.1147 148.893 35.584C147.912 36.032 146.291 36.256 144.029 36.256ZM144.029 33.888C145.587 33.888 146.664 33.7493 147.261 33.472C147.859 33.1947 148.221 32.6933 148.349 31.968C148.499 31.2213 148.573 29.8453 148.573 27.84C148.573 25.8347 148.499 24.4693 148.349 23.744C148.221 22.9973 147.859 22.4853 147.261 22.208C146.664 21.9307 145.587 21.792 144.029 21.792C142.472 21.792 141.384 21.9307 140.765 22.208C140.168 22.4853 139.795 22.9973 139.645 23.744C139.517 24.4693 139.453 25.8347 139.453 27.84C139.453 29.8453 139.517 31.2213 139.645 31.968C139.795 32.6933 140.168 33.1947 140.765 33.472C141.384 33.7493 142.472 33.888 144.029 33.888ZM161.442 36.256C160.567 36.256 159.575 36.2133 158.466 36.128C157.357 36.0427 156.375 35.9467 155.522 35.84V33.536C157.634 33.7707 159.565 33.888 161.314 33.888C162.402 33.888 163.202 33.8133 163.714 33.664C164.226 33.5147 164.557 33.28 164.706 32.96C164.877 32.6187 164.962 32.1173 164.962 31.456C164.962 30.7947 164.898 30.3253 164.77 30.048C164.663 29.7493 164.482 29.5467 164.226 29.44C163.97 29.3333 163.522 29.248 162.882 29.184L158.626 28.704C157.645 28.5973 156.887 28.3733 156.354 28.032C155.842 27.6907 155.49 27.2213 155.298 26.624C155.106 26.0267 155.01 25.2267 155.01 24.224C155.01 22.8373 155.255 21.8027 155.746 21.12C156.258 20.416 156.951 19.9573 157.826 19.744C158.722 19.5307 159.917 19.424 161.41 19.424C162.242 19.424 163.138 19.4667 164.098 19.552C165.058 19.6373 165.869 19.744 166.53 19.872V22.176C164.866 21.92 163.149 21.792 161.378 21.792C160.397 21.792 159.65 21.8453 159.138 21.952C158.626 22.0373 158.231 22.2507 157.954 22.592C157.677 22.912 157.538 23.424 157.538 24.128C157.538 24.7467 157.591 25.1947 157.698 25.472C157.805 25.7493 157.986 25.9413 158.242 26.048C158.498 26.1547 158.925 26.24 159.522 26.304L163.938 26.816C164.877 26.9227 165.581 27.104 166.05 27.36C166.541 27.5947 166.893 28.0213 167.106 28.64C167.341 29.2587 167.458 30.176 167.458 31.392C167.458 32.736 167.234 33.76 166.786 34.464C166.359 35.168 165.719 35.648 164.866 35.904C164.034 36.1387 162.893 36.256 161.442 36.256ZM173.191 36V22.048H169.895V19.68H173.191V14.944H175.783V19.68H179.687V22.048H175.783V36H173.191ZM187.386 36.256C185.509 36.256 184.143 35.9147 183.29 35.232C182.437 34.528 182.01 33.2907 182.01 31.52C182.01 30.2613 182.159 29.28 182.458 28.576C182.757 27.872 183.258 27.36 183.962 27.04C184.687 26.72 185.701 26.56 187.002 26.56C187.621 26.56 189.658 26.6133 193.114 26.72V25.76C193.114 24.48 192.986 23.5733 192.73 23.04C192.495 22.5067 192.047 22.1653 191.386 22.016C190.746 21.8667 189.647 21.792 188.09 21.792C187.407 21.792 186.543 21.8347 185.498 21.92C184.474 21.984 183.674 22.0587 183.098 22.144V19.872C184.783 19.5733 186.757 19.424 189.018 19.424C190.938 19.424 192.367 19.6267 193.306 20.032C194.266 20.416 194.906 21.056 195.226 21.952C195.546 22.8267 195.706 24.1067 195.706 25.792V36H193.37L193.242 33.728H193.05C192.602 34.752 191.877 35.4347 190.874 35.776C189.893 36.096 188.73 36.256 187.386 36.256ZM188.378 33.92C189.445 33.92 190.309 33.824 190.97 33.632C191.653 33.44 192.143 33.0667 192.442 32.512C192.89 31.744 193.114 30.6773 193.114 29.312V28.576H187.674C186.778 28.576 186.117 28.64 185.69 28.768C185.285 28.896 184.997 29.152 184.826 29.536C184.655 29.8987 184.57 30.4747 184.57 31.264C184.57 32.032 184.666 32.5973 184.858 32.96C185.05 33.3227 185.402 33.5787 185.914 33.728C186.447 33.856 187.269 33.92 188.378 33.92ZM201.284 36V12.224H203.876V36H201.284Z" fill="#DAB689"/>
</svg>
