<svg width="332" height="364" viewBox="0 0 332 364" fill="none" xmlns="http://www.w3.org/2000/svg">
<path d="M87.6947 363.753L87.2551 363.712L53.3121 360.636L53.3408 360.271C54.101 350.4 54.6598 343.432 55.0665 338.345C55.8431 328.642 56.0526 326.033 56.0526 323.6C56.0526 319.504 55.4569 314.699 48.3568 309.628C44.322 306.761 40.1638 304.279 36.4905 302.1C29.1234 297.725 23.3053 294.272 22.1466 289.885L22.1261 289.799C20.4825 283.512 17.9597 274.009 14.6028 267.82C12.5237 263.982 9.58183 256.024 6.99327 249.003C6.1715 246.795 5.40726 244.706 4.70876 242.859C3.887 240.737 3.30765 239.259 2.83514 238.198C1.87778 236.047 2.29688 235.064 2.83514 234.622C3.77195 233.827 5.6579 234.212 7.88899 235.63H8.15605V235.802L8.43136 235.99C11.5048 238.136 18.9171 250.392 23.33 261.676C23.8518 257.273 24.012 253.611 24.1517 250.342C24.2462 248.163 24.3366 246.107 24.5215 244.1L24.5626 243.662C24.9735 239.398 25.3269 235.372 26.1815 232.705C26.8389 230.657 27.7469 229.531 28.959 229.232C30.0561 228.965 31.5558 229.187 32.4968 231.771C33.0843 233.385 33.4089 235.785 33.4623 238.902C33.4623 239.373 33.4623 239.808 33.4623 240.201V240.877L32.8912 240.52C32.5677 240.316 32.2299 240.135 31.8804 239.98C30.4506 239.353 29.0042 239.418 27.9606 240.16C27.5039 240.506 27.1488 240.968 26.932 241.497C26.7152 242.027 26.6447 242.604 26.7279 243.17C26.8512 244.444 27.4922 246.32 28.5276 248.45C29.8871 251.264 31.6217 253.882 33.6842 256.233C34.2512 256.863 35.3894 256.503 36.0139 256.233C38.2532 255.262 40.9445 252.464 40.8048 250.699C40.698 249.47 39.5721 247.361 37.8464 245.198L36.585 243.609L38.3313 244.645C38.6066 244.809 38.886 244.989 39.153 245.177C41.8525 246.89 44.3507 250.093 44.5603 250.367C49.6223 255.847 52.6916 262.164 55.4035 267.734C56.6977 270.397 57.918 272.907 59.2082 274.996C62.2118 279.858 65.088 282.394 68.4161 285.335C71.1658 287.677 73.7458 290.211 76.1366 292.916C80.722 298.18 82.7806 306.843 83.2284 310.681C84.0091 317.341 86.9592 354.254 87.6413 363.274L87.6947 363.753ZM54.1133 359.96L86.8812 362.93C86.1416 353.218 83.2736 317.353 82.5094 310.812C81.9958 306.433 79.7359 298.2 75.5942 293.445C73.225 290.763 70.6684 288.251 67.9436 285.929C64.5702 282.951 61.6571 280.378 58.5919 275.426C57.2812 273.305 56.0527 270.773 54.7502 268.095C52.0589 262.565 48.9978 256.298 44.022 250.891L43.9974 250.867C42.7386 249.263 41.3054 247.802 39.7242 246.513C40.8089 248.151 41.4786 249.634 41.5649 250.666C41.7498 252.812 38.8531 255.856 36.3262 256.949C34.9292 257.556 33.7992 257.49 33.1459 256.765C31.0353 254.357 29.2607 251.676 27.8702 248.794C26.7978 246.591 26.1322 244.624 26.0007 243.265C25.9003 242.57 25.9892 241.861 26.2582 241.213C26.5271 240.564 26.9661 239.999 27.5292 239.578C28.7618 238.681 30.5122 238.583 32.1845 239.32C32.3571 239.394 32.5337 239.48 32.7104 239.574C32.7104 239.369 32.7104 239.164 32.7104 238.935C32.6611 235.9 32.3488 233.582 31.79 232.046C30.882 229.551 29.5671 229.871 29.1357 229.977C28.1948 230.206 27.4593 231.181 26.8923 232.951C26.0705 235.544 25.6925 239.529 25.3022 243.752L25.2652 244.186C25.0803 246.177 24.9899 248.225 24.8954 250.396C24.7352 254.041 24.5503 258.178 23.8764 263.282L23.6792 264.773L23.1574 263.36C18.876 251.825 11.1144 238.784 7.99582 236.621L7.58494 236.334L7.50687 236.285C5.36207 234.913 3.86643 234.753 3.32818 235.212C2.8721 235.597 2.95017 236.584 3.54184 237.915C4.01847 238.988 4.61837 240.483 5.43192 242.613C6.13042 244.456 6.90288 246.541 7.71643 248.757C10.3009 255.753 13.2305 263.687 15.2849 267.476C18.6829 273.743 21.2057 283.299 22.8739 289.623L22.8944 289.705C23.9751 293.801 29.6781 297.184 36.8973 301.469C40.5952 303.656 44.7575 306.134 48.8129 309.034C56.2088 314.314 56.821 319.327 56.821 323.612C56.821 326.07 56.6115 328.675 55.8308 338.398C55.4076 343.432 54.8611 350.289 54.1133 359.964V359.96Z" fill="#DAB689"/>
<path d="M34.6127 257.08C34.3834 257.09 34.1547 257.05 33.9421 256.964C33.7294 256.878 33.5378 256.747 33.3801 256.581C31.2896 254.192 29.5304 251.535 28.1496 248.679C27.0936 246.504 26.4362 244.583 26.3088 243.248C26.2161 242.604 26.2979 241.947 26.5457 241.345C26.7935 240.743 27.1983 240.218 27.7181 239.824C28.8727 239.005 30.5039 238.906 32.0858 239.599C32.4532 239.764 32.8087 239.954 33.15 240.168L33.187 240.193V240.238C33.187 242.2 33.1336 243.269 33.1089 243.584C33.5773 243.527 35.5989 243.392 38.2162 244.944H38.2367C40.0323 247.209 41.1745 249.355 41.2896 250.678C41.4663 252.702 38.664 255.594 36.2275 256.663C35.7236 256.91 35.174 257.053 34.6127 257.08ZM29.9574 239.291C29.1835 239.28 28.4257 239.512 27.7921 239.955C27.2963 240.333 26.9106 240.836 26.6744 241.412C26.4383 241.988 26.3603 242.616 26.4485 243.232C26.58 244.543 27.2292 246.451 28.2769 248.61C29.6511 251.452 31.4021 254.097 33.4828 256.474C33.9964 257.044 34.9415 257.068 36.1454 256.544C38.5203 255.52 41.2773 252.628 41.1129 250.719C41.002 249.437 39.8515 247.275 38.1052 245.071C35.188 243.351 33.0432 243.752 33.0226 243.756L32.9158 243.777V243.67C32.9158 243.67 33.0103 242.613 33.0021 240.283C32.6796 240.081 32.3432 239.901 31.9954 239.746C31.3548 239.456 30.6609 239.301 29.9574 239.291Z" fill="#DAB689"/>
<path d="M44.3178 251.297L43.9973 250.887C43.9727 250.854 41.417 247.537 38.7586 245.849L38.4216 245.636L38.6599 245.317C39.5228 244.141 40.3035 242.392 41.0595 240.7C41.5895 239.521 42.0867 238.407 42.6003 237.501L42.6332 237.444C42.9039 236.943 43.2381 236.479 43.6275 236.064C44.2269 235.399 45.0658 234.997 45.9613 234.946C46.2793 234.952 46.5926 235.023 46.8821 235.154C47.1717 235.285 47.4316 235.473 47.646 235.707C48.2295 236.34 48.5889 237.146 48.6691 238.001C48.8909 239.689 48.4349 241.778 47.9582 243.6C47.0337 247.143 44.6712 250.715 44.5931 250.867L44.3178 251.297ZM39.4858 245.427C41.5854 246.857 43.5084 249.085 44.2603 250.007C44.9136 248.946 46.5407 246.124 47.2515 243.404C47.7117 241.651 48.1513 239.652 47.9418 238.079C47.8811 237.381 47.5924 236.722 47.12 236.203C46.9745 236.041 46.7975 235.91 46.5997 235.819C46.4019 235.727 46.1875 235.677 45.9695 235.671C45.2742 235.728 44.6279 236.051 44.1658 236.572C43.8088 236.954 43.5048 237.383 43.2618 237.846L43.229 237.903C42.74 238.771 42.2593 239.844 41.7539 240.983C41.1179 242.522 40.3595 244.008 39.4858 245.427Z" fill="#DAB689"/>
<path d="M46.2859 288.636H45.5381C45.7107 282.988 42.4647 274.828 37.9943 269.659C31.4202 262.028 27.6072 256.355 27.7223 249.925C27.8291 244.387 31.7078 243.482 32.8953 243.334H32.9363L33.0555 244.071H32.9857C31.6585 244.235 28.5646 245.132 28.466 249.937C28.3632 255.401 31.0011 260.435 38.549 269.168C43.2207 274.533 46.4626 282.73 46.2859 288.636Z" fill="#DAB689"/>
<path d="M29.6124 277.548C29.0947 272.043 25.8405 266.796 23.2026 263.364L23.7984 262.909C26.4938 266.419 29.8219 271.797 30.3725 277.479L29.6124 277.548Z" fill="#DAB689"/>
<path d="M34.6661 274.46L33.9224 274.37C34.3332 270.814 33.9224 264.924 33.9224 264.867L34.6702 264.814C34.6866 265.068 35.1057 270.843 34.6661 274.46Z" fill="#DAB689"/>
<path d="M33.4212 256.527C31.338 254.147 29.5844 251.5 28.2071 248.655C27.184 246.554 26.5019 244.6 26.3705 243.252C26.0623 240.127 28.9262 238.337 32.0365 239.685C32.4013 239.848 32.7541 240.037 33.0925 240.25C34.7935 241.307 36.6507 243.117 38.1587 245.022C39.831 247.131 41.076 249.339 41.1951 250.723C41.4458 253.611 35.2496 258.551 33.4212 256.527Z" fill="#DAB689"/>
<path d="M3.1761 238.079C3.69382 239.246 4.3348 240.864 5.05795 242.761C1.43397 236.682 -1.38057 232.013 0.723147 230.907C1.99688 230.235 5.97834 233.528 7.76568 236.035C4.22798 233.741 1.41342 234.11 3.1761 238.079Z" fill="#DAB689"/>
<path d="M32.127 231.931C31.5312 230.292 30.5698 229.252 29.0289 229.629C27.8703 229.912 27.0855 231.083 26.5184 232.852H26.4363C26.7239 229.768 27.6689 227.249 29.4521 227.249C31.2354 227.249 31.5928 229.699 32.127 231.931Z" fill="#DAB689"/>
<path d="M48.4717 238.05H48.3115C48.24 237.274 47.9169 236.542 47.3911 235.965C46.3064 234.843 44.8929 235.322 43.8904 236.326C43.5137 236.736 43.1894 237.192 42.9248 237.682C44.104 234.102 45.953 232.648 47.3253 233.176C49.5564 234.053 48.4717 238.05 48.4717 238.05Z" fill="#DAB689"/>
<path d="M243.497 363.753L243.534 363.314C244.216 354.303 247.167 317.382 247.943 310.722C248.391 306.88 250.449 298.221 255.035 292.957C257.428 290.254 260.008 287.72 262.755 285.376C266.084 282.435 268.96 279.899 271.963 275.037C273.253 272.948 274.478 270.437 275.772 267.775C278.48 262.204 281.549 255.897 286.611 250.408C286.821 250.138 289.323 246.93 292.031 245.21C292.294 245.03 292.569 244.85 292.853 244.686L294.599 243.65L293.337 245.239C291.62 247.401 290.486 249.511 290.379 250.74C290.227 252.505 292.931 255.303 295.17 256.273C295.799 256.544 296.933 256.904 297.5 256.273C299.562 253.923 301.297 251.305 302.656 248.491C303.692 246.361 304.333 244.485 304.456 243.211C304.539 242.645 304.469 242.068 304.252 241.538C304.035 241.009 303.68 240.547 303.223 240.201C302.2 239.459 300.733 239.382 299.303 240.02C298.955 240.176 298.619 240.357 298.297 240.561L297.722 240.918V240.242C297.722 239.832 297.722 239.422 297.722 238.943C297.775 235.826 298.1 233.426 298.687 231.812C299.628 229.228 301.132 229.006 302.225 229.273C303.457 229.572 304.349 230.706 305.002 232.746C305.857 235.412 306.235 239.443 306.621 243.707L306.662 244.141C306.847 246.144 306.938 248.204 307.032 250.383C307.176 253.66 307.34 257.314 307.854 261.717C312.267 250.433 319.679 238.177 322.753 236.031L323.032 235.843V235.671H323.295C325.53 234.245 327.404 233.868 328.349 234.663C328.871 235.105 329.29 236.088 328.349 238.239C327.88 239.3 327.285 240.778 326.475 242.9C325.777 244.735 325.008 246.824 324.195 249.044C321.602 256.065 318.664 264.023 316.581 267.861C313.224 274.05 310.718 283.553 309.058 289.844L309.037 289.926C307.879 294.313 302.052 297.766 294.693 302.141C291.024 304.32 286.862 306.79 282.827 309.669C275.727 314.74 275.131 319.54 275.131 323.641C275.131 326.057 275.341 328.662 276.117 338.362C276.528 343.449 277.083 350.42 277.847 360.296L277.876 360.66L277.506 360.693L243.497 363.753ZM291.468 246.525C289.888 247.816 288.455 249.276 287.195 250.879L287.17 250.904C282.182 256.306 279.133 262.573 276.442 268.107C275.139 270.786 273.911 273.317 272.6 275.439C269.539 280.391 266.626 282.963 263.253 285.941C260.526 288.262 257.969 290.772 255.598 293.453C251.46 298.208 249.196 306.441 248.687 310.82C247.918 317.374 245.05 353.226 244.311 362.938L277.079 359.968C276.331 350.285 275.784 343.428 275.382 338.407C274.601 328.683 274.396 326.069 274.396 323.624C274.396 319.34 275.012 314.326 282.4 309.046C286.463 306.146 290.617 303.668 294.315 301.481C301.535 297.197 307.238 293.809 308.318 289.717V289.635C309.986 283.315 312.509 273.759 315.907 267.488C317.962 263.7 320.891 255.766 323.476 248.77C324.297 246.558 325.062 244.473 325.76 242.626C326.582 240.496 327.174 239.001 327.65 237.927C328.242 236.596 328.32 235.609 327.864 235.224C327.33 234.769 325.834 234.925 323.693 236.293L323.607 236.346C323.467 236.436 323.324 236.535 323.196 236.633C320.074 238.812 312.312 251.837 308.031 263.372L307.509 264.785L307.312 263.294C306.638 258.186 306.453 254.053 306.293 250.408C306.198 248.237 306.108 246.189 305.927 244.198L305.886 243.789C305.475 239.566 305.13 235.576 304.296 232.984C303.729 231.214 302.997 230.239 302.056 230.01C301.621 229.903 300.306 229.6 299.398 232.078C298.839 233.614 298.531 235.933 298.478 238.968C298.478 239.189 298.478 239.402 298.478 239.607C298.658 239.513 298.831 239.427 299.003 239.353C300.676 238.616 302.418 238.714 303.663 239.611C304.225 240.033 304.663 240.598 304.931 241.246C305.2 241.895 305.29 242.603 305.191 243.297C305.056 244.657 304.37 246.619 303.318 248.827C301.927 251.708 300.154 254.389 298.046 256.798C297.389 257.523 296.259 257.588 294.862 256.982C292.339 255.888 289.438 252.845 289.623 250.699C289.718 249.65 290.383 248.167 291.468 246.525Z" fill="#DAB689"/>
<path d="M296.579 257.08C296.024 257.053 295.48 256.914 294.981 256.671C292.544 255.639 289.75 252.751 289.919 250.703C290.034 249.368 291.176 247.221 292.972 244.968H292.996C295.61 243.416 297.631 243.551 298.1 243.609C298.1 243.293 298.013 242.224 298.021 240.262V240.217L298.058 240.193C298.401 239.979 298.758 239.789 299.127 239.623C300.705 238.931 302.336 239.017 303.494 239.848C304.015 240.242 304.419 240.767 304.666 241.369C304.914 241.971 304.994 242.629 304.9 243.273C304.772 244.6 304.115 246.55 303.059 248.704C301.678 251.558 299.92 254.216 297.832 256.605C297.67 256.769 297.474 256.897 297.258 256.979C297.041 257.061 296.81 257.095 296.579 257.08ZM293.091 245.071C291.316 247.307 290.19 249.417 290.079 250.719C289.915 252.628 292.672 255.52 295.047 256.544C296.251 257.068 297.2 257.044 297.713 256.474C299.787 254.096 301.531 251.451 302.899 248.61C303.946 246.451 304.596 244.538 304.727 243.232C304.815 242.616 304.737 241.988 304.501 241.412C304.265 240.836 303.879 240.333 303.383 239.955C302.274 239.136 300.7 239.074 299.172 239.746C298.825 239.902 298.488 240.081 298.165 240.283C298.165 242.613 298.252 243.662 298.252 243.67V243.777L298.149 243.756C298.149 243.74 296.004 243.351 293.091 245.071Z" fill="#DAB689"/>
<path d="M286.874 251.297L286.582 250.859C286.484 250.707 284.142 247.135 283.217 243.592C282.741 241.77 282.285 239.681 282.511 237.993C282.593 237.139 282.951 236.334 283.53 235.699C283.744 235.465 284.004 235.277 284.293 235.146C284.583 235.015 284.896 234.944 285.214 234.937C285.66 234.961 286.098 235.071 286.501 235.263C286.904 235.455 287.266 235.724 287.564 236.056C287.957 236.475 288.294 236.943 288.567 237.448L288.592 237.493C289.105 238.398 289.606 239.513 290.132 240.692C290.888 242.384 291.673 244.133 292.536 245.308L292.77 245.628L292.433 245.841C289.775 247.528 287.219 250.846 287.195 250.879L286.874 251.297ZM283.94 243.404C284.651 246.124 286.282 248.946 286.932 250.007C287.684 249.085 289.606 246.857 291.706 245.427C290.836 244.013 290.081 242.531 289.45 240.995C288.937 239.848 288.452 238.767 287.963 237.899L287.942 237.858C287.698 237.395 287.392 236.966 287.034 236.584C286.573 236.058 285.922 235.734 285.222 235.683C285.004 235.689 284.788 235.739 284.59 235.83C284.391 235.922 284.214 236.053 284.068 236.215C283.595 236.734 283.307 237.393 283.246 238.091C283.036 239.652 283.476 241.651 283.936 243.416L283.94 243.404Z" fill="#DAB689"/>
<path d="M284.906 288.636C284.729 282.73 287.975 274.533 292.631 269.151C300.183 260.419 302.821 255.385 302.714 249.921C302.619 245.116 299.525 244.219 298.194 244.055H298.124L298.243 243.318H298.284C299.472 243.465 303.351 244.37 303.457 249.908C303.581 256.339 299.788 262.012 293.185 269.643C288.715 274.812 285.473 282.971 285.642 288.62L284.906 288.636Z" fill="#DAB689"/>
<path d="M301.58 277.548L300.836 277.479C301.37 271.797 304.698 266.419 307.41 262.909L308.002 263.364C305.364 266.796 302.097 272.043 301.58 277.548Z" fill="#DAB689"/>
<path d="M296.526 274.46C296.086 270.831 296.505 265.039 296.526 264.814L297.269 264.867C297.269 264.924 296.838 270.814 297.269 274.37L296.526 274.46Z" fill="#DAB689"/>
<path d="M297.771 256.527C299.854 254.147 301.608 251.5 302.985 248.655C304.008 246.554 304.69 244.6 304.822 243.252C305.13 240.127 302.27 238.337 299.155 239.685C298.792 239.848 298.44 240.037 298.104 240.25C296.17 241.555 294.459 243.162 293.037 245.009C291.361 247.119 290.12 249.327 290.001 250.711C289.75 253.611 295.942 258.551 297.771 256.527Z" fill="#DAB689"/>
<path d="M328.016 238.079C327.498 239.246 326.857 240.864 326.134 242.761C329.758 236.682 332.577 232.013 330.469 230.907C329.195 230.223 325.214 233.528 323.443 236.035C326.968 233.741 329.779 234.11 328.016 238.079Z" fill="#DAB689"/>
<path d="M299.057 231.931C299.657 230.292 300.618 229.252 302.155 229.629C303.314 229.912 304.098 231.083 304.665 232.852H304.748C304.46 229.768 303.515 227.249 301.732 227.249C299.949 227.249 299.612 229.699 299.057 231.931Z" fill="#DAB689"/>
<path d="M282.72 238.05H282.88C282.952 237.274 283.275 236.542 283.801 235.965C284.886 234.843 286.299 235.322 287.302 236.326C287.678 236.736 288.003 237.192 288.267 237.682C287.088 234.102 285.243 232.648 283.867 233.176C281.635 234.053 282.72 238.05 282.72 238.05Z" fill="#DAB689"/>
<path d="M163.714 123.466H163.31V144.054H163.714V123.466Z" fill="#DAB689" stroke="#DAB689"/>
<path d="M146.366 101.988L145.968 102.058L153.537 144.94L153.936 144.87L146.366 101.988Z" fill="#DAB689" stroke="#DAB689"/>
<path d="M137.507 127.952L137.127 128.09L144.176 147.437L144.556 147.298L137.507 127.952Z" fill="#DAB689" stroke="#DAB689"/>
<path d="M111.83 114.158L111.478 114.36L133.273 152.243L133.625 152.041L111.83 114.158Z" fill="#DAB689" stroke="#DAB689"/>
<path d="M114.422 141.124L114.112 141.384L127.359 157.155L127.669 156.896L114.422 141.124Z" fill="#DAB689" stroke="#DAB689"/>
<path d="M87.3165 135.81L87.0564 136.12L120.448 164.109L120.708 163.799L87.3165 135.81Z" fill="#DAB689" stroke="#DAB689"/>
<path d="M97.236 161.384L97.0337 161.734L114.882 172.028L115.084 171.678L97.236 161.384Z" fill="#DAB689" stroke="#DAB689"/>
<path d="M69.9455 165.654L69.8071 166.034L110.767 180.927L110.906 180.547L69.9455 165.654Z" fill="#DAB689" stroke="#DAB689"/>
<path d="M257.427 165.393L216.464 180.279L216.602 180.659L257.565 165.773L257.427 165.393Z" fill="#DAB689" stroke="#DAB689"/>
<path d="M230.067 161.047L212.219 171.341L212.421 171.691L230.269 161.397L230.067 161.047Z" fill="#DAB689" stroke="#DAB689"/>
<path d="M239.933 135.331L206.547 163.326L206.807 163.635L240.193 135.64L239.933 135.331Z" fill="#DAB689" stroke="#DAB689"/>
<path d="M212.708 140.588L199.463 156.362L199.773 156.622L213.018 140.848L212.708 140.588Z" fill="#DAB689" stroke="#DAB689"/>
<path d="M213.181 113.057L191.386 150.767L191.737 150.969L213.531 113.259L213.181 113.057Z" fill="#DAB689" stroke="#DAB689"/>
<path d="M189.461 127.306L182.416 146.654L182.796 146.792L189.841 127.444L189.461 127.306Z" fill="#DAB689" stroke="#DAB689"/>
<path d="M180.47 101.268L172.893 144.149L173.292 144.219L180.868 101.338L180.47 101.268Z" fill="#DAB689" stroke="#DAB689"/>
<path d="M163.51 251.726C156.688 251.742 149.931 250.407 143.628 247.799C137.326 245.19 131.604 241.359 126.793 236.528C121.956 231.722 118.122 226.005 115.511 219.709C112.9 213.413 111.565 206.663 111.582 199.848C111.564 193.033 112.899 186.282 115.51 179.986C118.121 173.69 121.956 167.974 126.793 163.168C131.603 158.336 137.325 154.505 143.628 151.896C149.93 149.287 156.688 147.953 163.51 147.97C170.333 147.952 177.091 149.286 183.393 151.895C189.696 154.504 195.418 158.335 200.228 163.168C205.066 167.973 208.902 173.69 211.513 179.986C214.125 186.282 215.46 193.033 215.443 199.848C215.46 206.663 214.124 213.414 211.513 219.71C208.901 226.006 205.066 231.722 200.228 236.528C195.418 241.36 189.695 245.191 183.393 247.8C177.09 250.409 170.333 251.743 163.51 251.726ZM163.51 148.353C135.095 148.353 111.976 171.448 111.976 199.838C111.976 228.227 135.095 251.322 163.51 251.322C191.926 251.322 215.048 228.227 215.048 199.838C215.048 171.448 191.93 148.357 163.51 148.357V148.353Z" fill="#DAB689" stroke="#DAB689"/>
<path d="M163.497 216.996C147.915 216.996 135.088 206.44 134.962 206.331L134.775 206.179L134.962 206.022C135.088 205.917 147.915 195.361 163.497 195.361C179.078 195.361 191.906 205.917 192.031 206.022L192.218 206.179L192.031 206.331C191.906 206.433 179.078 216.996 163.497 216.996ZM135.414 206.179C137.067 207.486 149.102 216.592 163.497 216.592C177.892 216.592 189.927 207.486 191.579 206.179C189.927 204.871 177.892 195.766 163.497 195.766C149.102 195.766 137.067 204.871 135.401 206.179H135.414Z" fill="#DAB689" stroke="#DAB689"/>
<path d="M192.895 205.306C189.55 202.708 177.541 194.23 163.497 194.23C149.857 194.23 138.416 201.957 134.129 205.282L133.881 204.963C138.199 201.614 149.731 193.826 163.497 193.826C177.263 193.826 188.822 201.638 193.143 204.987L192.895 205.306Z" fill="#DAB689" stroke="#DAB689"/>
<path d="M132.419 204.436L132.164 204.12C136.795 200.385 149.116 191.714 163.497 191.714C177.616 191.714 189.821 200.16 194.415 203.791L194.163 204.107C189.604 200.503 177.504 192.118 163.497 192.118C149.245 192.118 137.016 200.731 132.419 204.436Z" fill="#DAB689" stroke="#DAB689"/>
<path d="M163.497 216.816C160.674 216.812 157.968 215.69 155.971 213.696C153.975 211.702 152.852 208.999 152.849 206.179C152.852 203.359 153.975 200.655 155.971 198.661C157.968 196.667 160.674 195.545 163.497 195.541C166.322 195.541 169.032 196.662 171.031 198.656C173.03 200.651 174.155 203.356 174.159 206.179C174.155 209.001 173.03 211.707 171.031 213.701C169.032 215.695 166.322 216.816 163.497 216.816ZM163.497 195.946C160.781 195.948 158.177 197.027 156.256 198.946C154.336 200.864 153.256 203.465 153.253 206.179C153.257 208.891 154.337 211.492 156.257 213.41C158.178 215.329 160.781 216.408 163.497 216.412C166.213 216.408 168.816 215.329 170.736 213.41C172.657 211.492 173.737 208.891 173.74 206.179C173.738 203.465 172.658 200.864 170.737 198.946C168.817 197.027 166.213 195.948 163.497 195.946Z" fill="#DAB689" stroke="#DAB689"/>
<path d="M166.377 206.654C166.637 205.053 165.549 203.544 163.945 203.284C162.342 203.024 160.832 204.111 160.571 205.713C160.311 207.314 161.4 208.824 163.003 209.083C164.606 209.343 166.117 208.256 166.377 206.654Z" fill="#DAB689" stroke="#DAB689"/>
<path d="M124.818 196.469L124.53 196.752L132.071 204.435L132.36 204.152L124.818 196.469Z" fill="#DAB689" stroke="#DAB689"/>
<path d="M163.49 169.787H163.085V191.918H163.49V169.787Z" fill="#DAB689" stroke="#DAB689"/>
<path d="M149.833 182.718L149.443 182.829L152.488 193.535L152.877 193.424L149.833 182.718Z" fill="#DAB689" stroke="#DAB689"/>
<path d="M135.28 188.883L134.958 189.128L141.732 197.986L142.054 197.74L135.28 188.883Z" fill="#DAB689" stroke="#DAB689"/>
<path d="M201.694 196.119L194.152 203.8L194.44 204.083L201.983 196.403L201.694 196.119Z" fill="#DAB689" stroke="#DAB689"/>
<path d="M176.782 183.881L173.677 193.411L174.062 193.536L177.167 184.006L176.782 183.881Z" fill="#DAB689" stroke="#DAB689"/>
<path d="M191.633 188.694L184.78 197.806L185.103 198.049L191.957 188.937L191.633 188.694Z" fill="#DAB689" stroke="#DAB689"/>
<path d="M123.654 196.01C123.654 195.83 123.726 195.657 123.853 195.53C123.981 195.402 124.154 195.331 124.334 195.331C124.515 195.331 124.688 195.402 124.815 195.53C124.943 195.657 125.014 195.83 125.014 196.01C125.014 196.19 124.943 196.363 124.815 196.49C124.688 196.618 124.515 196.689 124.334 196.689C124.154 196.689 123.981 196.618 123.853 196.49C123.726 196.363 123.654 196.19 123.654 196.01Z" fill="#DAB689" stroke="#DAB689"/>
<path d="M134.007 188.433C134.007 188.253 134.078 188.08 134.206 187.953C134.334 187.825 134.506 187.754 134.687 187.754C134.867 187.754 135.04 187.825 135.168 187.953C135.295 188.08 135.367 188.253 135.367 188.433C135.367 188.613 135.295 188.786 135.168 188.913C135.04 189.041 134.867 189.112 134.687 189.112C134.506 189.112 134.334 189.041 134.206 188.913C134.078 188.786 134.007 188.613 134.007 188.433Z" fill="#DAB689" stroke="#DAB689"/>
<path d="M192.576 188.433C192.576 188.253 192.504 188.08 192.376 187.953C192.249 187.825 192.076 187.754 191.896 187.754C191.715 187.754 191.542 187.825 191.415 187.953C191.287 188.08 191.216 188.253 191.216 188.433C191.216 188.613 191.287 188.786 191.415 188.913C191.542 189.041 191.715 189.112 191.896 189.112C192.076 189.112 192.249 189.041 192.376 188.913C192.504 188.786 192.576 188.613 192.576 188.433Z" fill="#DAB689" stroke="#DAB689"/>
<path d="M202.659 195.925C202.659 195.745 202.588 195.572 202.46 195.445C202.333 195.318 202.16 195.246 201.979 195.246C201.799 195.246 201.626 195.318 201.498 195.445C201.371 195.572 201.299 195.745 201.299 195.925C201.299 196.105 201.371 196.278 201.498 196.406C201.626 196.533 201.799 196.604 201.979 196.604C202.16 196.604 202.333 196.533 202.46 196.406C202.588 196.278 202.659 196.105 202.659 195.925Z" fill="#DAB689" stroke="#DAB689"/>
<path d="M177.844 183.284C177.844 183.104 177.772 182.931 177.645 182.804C177.517 182.677 177.344 182.605 177.164 182.605C176.984 182.605 176.811 182.677 176.683 182.804C176.556 182.931 176.484 183.104 176.484 183.284C176.484 183.464 176.556 183.637 176.683 183.765C176.811 183.892 176.984 183.964 177.164 183.964C177.344 183.964 177.517 183.892 177.645 183.765C177.772 183.637 177.844 183.464 177.844 183.284Z" fill="#DAB689" stroke="#DAB689"/>
<path d="M148.864 182.445C148.864 182.265 148.936 182.092 149.063 181.965C149.191 181.838 149.364 181.766 149.544 181.766C149.724 181.766 149.897 181.838 150.025 181.965C150.152 182.092 150.224 182.265 150.224 182.445C150.224 182.626 150.152 182.798 150.025 182.926C149.897 183.053 149.724 183.125 149.544 183.125C149.364 183.125 149.191 183.053 149.063 182.926C148.936 182.798 148.864 182.626 148.864 182.445Z" fill="#DAB689" stroke="#DAB689"/>
<path d="M163.289 169.808C163.661 169.808 163.963 169.507 163.963 169.135C163.963 168.764 163.661 168.463 163.289 168.463C162.918 168.463 162.616 168.764 162.616 169.135C162.616 169.507 162.918 169.808 163.289 169.808Z" fill="#DAB689" stroke="#DAB689"/>
<path d="M156.69 184.745L157.499 186.477L158.312 188.205L157.265 188.372L156.214 188.535L156.452 186.64L156.69 184.745Z" fill="#DAB689" stroke="#DAB689"/>
<path d="M143.618 188.209L144.866 189.652L146.117 191.099L145.155 191.541L144.193 191.986L143.904 190.097L143.618 188.209Z" fill="#DAB689" stroke="#DAB689"/>
<path d="M132.066 195.063L133.541 196.275L135.017 197.491L134.14 198.089L133.266 198.686L132.667 196.876L132.066 195.063Z" fill="#DAB689" stroke="#DAB689"/>
<path d="M169.889 184.745L169.076 186.477L168.267 188.205L169.314 188.372L170.361 188.535L170.123 186.64L169.889 184.745Z" fill="#DAB689" stroke="#DAB689"/>
<path d="M182.961 188.209L181.71 189.652L180.458 191.099L181.424 191.541L182.386 191.986L182.672 190.097L182.961 188.209Z" fill="#DAB689" stroke="#DAB689"/>
<path d="M194.51 195.063L193.038 196.275L191.562 197.491L192.436 198.089L193.313 198.686L193.912 196.876L194.51 195.063Z" fill="#DAB689" stroke="#DAB689"/>
<path d="M200.912 235.641V257.011C200.912 258.743 197.138 260.387 190.287 261.636C183.362 262.897 174.152 263.593 164.35 263.593C154.549 263.593 145.338 262.913 138.413 261.636C131.562 260.387 127.789 258.743 127.789 257.011V237.204C127.645 237.159 127.508 237.092 127.384 237.007V257.011C127.384 258.855 131.256 260.58 138.294 261.861C145.257 263.131 154.511 263.831 164.35 263.831C174.189 263.831 183.444 263.131 190.406 261.861C197.444 260.58 201.316 258.855 201.316 257.011L201.357 235.302C201.232 235.443 201.081 235.558 200.912 235.641Z" fill="#DAB689" stroke="#DAB689"/>
<path d="M135.35 219.03C129.947 220.106 124.489 220.88 119 221.35C113.493 221.867 107.953 221.923 102.436 221.52C101.053 221.394 99.6688 221.224 98.2953 220.986C96.915 220.758 95.5519 220.436 94.2155 220.022C92.8392 219.606 91.5278 219 90.3193 218.222C89.6961 217.806 89.1401 217.297 88.6704 216.714C88.4309 216.41 88.2278 216.08 88.0653 215.729C87.8965 215.376 87.7752 215.003 87.7049 214.618C87.5713 213.861 87.612 213.083 87.8239 212.343C88.0232 211.638 88.3232 210.965 88.7146 210.346C89.4749 209.157 90.3895 208.075 91.4345 207.126C93.4929 205.279 95.7453 203.66 98.1525 202.297C95.9276 203.889 93.8438 205.67 91.924 207.619C90.9859 208.573 90.1756 209.645 89.5136 210.808C89.2017 211.368 88.9662 211.968 88.8132 212.591C88.6651 213.182 88.6559 213.799 88.786 214.394C89.0444 215.559 89.9386 216.497 91.0061 217.189C92.1276 217.873 93.3395 218.395 94.6065 218.741C97.2093 219.461 99.878 219.916 102.572 220.1C105.292 220.348 108.012 220.44 110.732 220.44C113.452 220.44 116.199 220.358 118.936 220.243C124.402 219.995 129.869 219.526 135.35 219.03Z" fill="#DAB689" stroke="#DAB689"/>
<path d="M223.079 170.226C225.769 170.246 228.451 170.531 231.085 171.075C232.423 171.358 233.727 171.782 234.975 172.341C235.614 172.631 236.22 172.988 236.783 173.408C237.372 173.843 237.88 174.379 238.283 174.991C238.698 175.631 238.949 176.363 239.014 177.123C239.067 177.871 238.968 178.623 238.721 179.331C238.493 180.012 238.182 180.664 237.796 181.27C237.426 181.865 237.013 182.432 236.562 182.968C235.669 184.01 234.691 184.977 233.638 185.859C232.618 186.745 231.52 187.557 230.415 188.348C228.196 189.879 225.897 191.292 223.527 192.58C222.344 193.222 221.148 193.836 219.947 194.434C218.747 195.032 217.533 195.609 216.31 196.16C211.427 198.371 206.421 200.299 201.316 201.933C206.205 199.746 211.07 197.545 215.834 195.141C218.213 193.932 220.573 192.712 222.871 191.384C225.169 190.056 227.447 188.695 229.603 187.17C231.778 185.711 233.773 184.001 235.546 182.075C236.403 181.153 237.083 180.081 237.552 178.913C237.758 178.361 237.854 177.774 237.834 177.185C237.809 176.606 237.641 176.042 237.344 175.544C237.03 175.026 236.627 174.566 236.154 174.186C235.658 173.79 235.125 173.442 234.563 173.146C233.398 172.548 232.175 172.071 230.912 171.723C228.342 171.029 225.723 170.529 223.079 170.226Z" fill="#DAB689" stroke="#DAB689"/>
<path d="M195.268 90.1956C195.268 90.2856 195.232 90.372 195.169 90.4357C195.105 90.4994 195.018 90.5352 194.928 90.5352C194.838 90.5352 194.752 90.4994 194.688 90.4357C194.624 90.372 194.588 90.2856 194.588 90.1956C194.588 90.1055 194.624 90.0191 194.688 89.9554C194.752 89.8917 194.838 89.8559 194.928 89.8559C195.018 89.8559 195.105 89.8917 195.169 89.9554C195.232 90.0191 195.268 90.1055 195.268 90.1956Z" fill="#DAB689" stroke="#DAB689"/>
<path d="M198.637 87.757C198.637 87.8471 198.601 87.9335 198.538 87.9972C198.474 88.0609 198.387 88.0967 198.297 88.0967C198.207 88.0967 198.121 88.0609 198.057 87.9972C197.993 87.9335 197.957 87.8471 197.957 87.757C197.957 87.667 197.993 87.5806 198.057 87.5169C198.121 87.4532 198.207 87.4174 198.297 87.4174C198.387 87.4174 198.474 87.4532 198.538 87.5169C198.601 87.5806 198.637 87.667 198.637 87.757Z" fill="#DAB689" stroke="#DAB689"/>
<path d="M194.949 74.0496C194.948 74.2526 194.866 74.447 194.722 74.5902C194.578 74.7334 194.383 74.8138 194.18 74.8138C193.977 74.8138 193.783 74.7333 193.639 74.59C193.496 74.4467 193.415 74.2523 193.415 74.0496C193.415 73.8467 193.496 73.6519 193.639 73.5081C193.782 73.3642 193.977 73.283 194.18 73.2821C194.384 73.2821 194.579 73.3629 194.724 73.5069C194.868 73.6508 194.949 73.8461 194.949 74.0496Z" fill="#DAB689" stroke="#DAB689"/>
<path d="M185.507 68.2963C185.506 68.5209 185.416 68.736 185.257 68.8945C185.098 69.053 184.882 69.142 184.657 69.142C184.433 69.142 184.217 69.0529 184.059 68.8943C183.9 68.7357 183.811 68.5206 183.811 68.2963C183.81 68.185 183.832 68.0747 183.874 67.9717C183.917 67.8687 183.979 67.775 184.058 67.6962C184.136 67.6173 184.23 67.5547 184.333 67.512C184.436 67.4693 184.546 67.4473 184.657 67.4473C184.883 67.4473 185.099 67.5367 185.258 67.6959C185.418 67.8552 185.507 68.0711 185.507 68.2963Z" fill="#DAB689" stroke="#DAB689"/>
<path d="M194.184 68.4288C194.184 68.4674 194.177 68.5058 194.162 68.5416C194.148 68.5774 194.126 68.61 194.099 68.6375C194.072 68.665 194.04 68.6868 194.004 68.7017C193.968 68.7166 193.93 68.7243 193.891 68.7243C193.813 68.7243 193.738 68.6931 193.682 68.6377C193.627 68.5823 193.595 68.5071 193.595 68.4288C193.595 68.3504 193.627 68.2753 193.682 68.2198C193.738 68.1644 193.813 68.1333 193.891 68.1333C193.93 68.1333 193.968 68.141 194.004 68.1559C194.04 68.1707 194.072 68.1926 194.099 68.22C194.126 68.2475 194.148 68.2801 194.162 68.316C194.177 68.3518 194.184 68.3901 194.184 68.4288Z" fill="#DAB689" stroke="#DAB689"/>
<path d="M187.363 76.607C187.363 76.6592 187.353 76.7109 187.333 76.7591C187.313 76.8073 187.284 76.8511 187.247 76.888C187.21 76.9249 187.166 76.9542 187.118 76.9742C187.07 76.9941 187.018 77.0044 186.966 77.0044C186.86 77.0044 186.759 76.9625 186.684 76.888C186.61 76.8135 186.568 76.7124 186.568 76.607C186.568 76.5017 186.61 76.4006 186.684 76.3261C186.759 76.2516 186.86 76.2097 186.966 76.2097C187.018 76.2097 187.07 76.22 187.118 76.2399C187.166 76.2599 187.21 76.2892 187.247 76.3261C187.284 76.363 187.313 76.4068 187.333 76.455C187.353 76.5032 187.363 76.5549 187.363 76.607Z" fill="#DAB689" stroke="#DAB689"/>
<path d="M185.939 72.5926C185.938 72.8109 185.851 73.02 185.696 73.174C185.541 73.328 185.331 73.4145 185.113 73.4145C184.895 73.4136 184.686 73.3268 184.532 73.1728C184.378 73.0189 184.291 72.8103 184.29 72.5926C184.29 72.3746 184.377 72.1656 184.531 72.0115C184.685 71.8573 184.895 71.7707 185.113 71.7707C185.221 71.7703 185.328 71.7912 185.429 71.8323C185.529 71.8734 185.62 71.9339 185.697 72.0103C185.773 72.0866 185.834 72.1774 185.876 72.2773C185.918 72.3773 185.939 72.4844 185.939 72.5926Z" fill="#DAB689" stroke="#DAB689"/>
<path d="M167.386 48.5232C167.386 48.6898 167.32 48.8496 167.202 48.9675C167.084 49.0853 166.924 49.1515 166.757 49.1515C166.675 49.1515 166.593 49.1352 166.517 49.1036C166.441 49.072 166.372 49.0256 166.314 48.9673C166.255 48.9089 166.209 48.8396 166.178 48.7634C166.147 48.6872 166.131 48.6055 166.132 48.5232C166.132 48.3574 166.198 48.1985 166.315 48.0813C166.432 47.9641 166.591 47.8983 166.757 47.8983C166.84 47.8978 166.921 47.9136 166.998 47.9449C167.074 47.9761 167.143 48.022 167.202 48.0801C167.26 48.1382 167.307 48.2072 167.338 48.2832C167.37 48.3593 167.386 48.4408 167.386 48.5232Z" fill="#DAB689" stroke="#DAB689"/>
<path d="M155.307 47.9594C155.307 48.0251 155.281 48.0882 155.234 48.1347C155.187 48.1812 155.124 48.2073 155.058 48.2073C154.992 48.2073 154.929 48.1813 154.882 48.1349C154.835 48.0885 154.808 48.0255 154.807 47.9594C154.807 47.8927 154.833 47.8288 154.881 47.7817C154.928 47.7346 154.992 47.7081 155.058 47.7081C155.125 47.709 155.188 47.7358 155.234 47.7829C155.281 47.8299 155.307 47.8933 155.307 47.9594Z" fill="#DAB689" stroke="#DAB689"/>
<path d="M149.721 47.1749C149.957 47.1749 150.149 46.9833 150.149 46.7469C150.149 46.5106 149.957 46.319 149.721 46.319C149.484 46.319 149.292 46.5106 149.292 46.7469C149.292 46.9833 149.484 47.1749 149.721 47.1749Z" fill="#DAB689" stroke="#DAB689"/>
<path d="M144.631 39.4721C144.631 39.5982 144.581 39.7191 144.492 39.8083C144.403 39.8975 144.281 39.9476 144.155 39.9476C144.03 39.9467 143.909 39.8962 143.821 39.8071C143.732 39.718 143.683 39.5976 143.683 39.4721C143.683 39.3469 143.732 39.2268 143.821 39.1383C143.91 39.0497 144.03 39 144.155 39C144.218 38.9995 144.279 39.0114 144.337 39.035C144.395 39.0585 144.447 39.0932 144.492 39.1371C144.536 39.1809 144.571 39.2331 144.595 39.2906C144.619 39.3481 144.631 39.4098 144.631 39.4721Z" fill="#DAB689" stroke="#DAB689"/>
<path d="M142.292 49.6915C142.293 49.7739 142.277 49.8555 142.246 49.9317C142.214 50.0079 142.168 50.0772 142.11 50.1356C142.052 50.194 141.983 50.2403 141.907 50.2719C141.831 50.3035 141.749 50.3198 141.667 50.3198C141.5 50.3198 141.34 50.2536 141.222 50.1358C141.104 50.018 141.038 49.8581 141.038 49.6915C141.038 49.5249 141.104 49.365 141.222 49.2472C141.34 49.1294 141.5 49.0632 141.667 49.0632C141.749 49.0632 141.831 49.0795 141.907 49.1111C141.983 49.1427 142.052 49.189 142.11 49.2474C142.168 49.3058 142.214 49.3751 142.246 49.4513C142.277 49.5275 142.293 49.6092 142.292 49.6915Z" fill="#DAB689" stroke="#DAB689"/>
<path d="M134.204 56.698C134.48 56.698 134.704 56.4745 134.704 56.1988C134.704 55.923 134.48 55.6995 134.204 55.6995C133.928 55.6995 133.704 55.923 133.704 56.1988C133.704 56.4745 133.928 56.698 134.204 56.698Z" fill="#DAB689" stroke="#DAB689"/>
<path d="M134.439 72.3277C134.439 72.5736 134.341 72.8095 134.167 72.9834C133.993 73.1572 133.757 73.2549 133.51 73.2549C133.264 73.2549 133.028 73.1573 132.853 72.9836C132.678 72.8098 132.58 72.5739 132.579 72.3277C132.58 72.0815 132.678 71.8457 132.853 71.6719C133.028 71.4981 133.264 71.4005 133.51 71.4005C133.757 71.4005 133.993 71.4982 134.167 71.6721C134.341 71.846 134.439 72.0818 134.439 72.3277Z" fill="#DAB689" stroke="#DAB689"/>
<path d="M124.076 71.6654C124.076 71.9113 123.978 72.1472 123.804 72.3211C123.63 72.4949 123.394 72.5926 123.148 72.5926C122.902 72.5926 122.666 72.4949 122.492 72.3211C122.318 72.1472 122.22 71.9113 122.22 71.6654C122.22 71.4195 122.318 71.1837 122.492 71.0098C122.666 70.8359 122.902 70.7383 123.148 70.7383C123.394 70.7383 123.63 70.8359 123.804 71.0098C123.978 71.1837 124.076 71.4195 124.076 71.6654Z" fill="#DAB689" stroke="#DAB689"/>
<path d="M121.285 71.6009C121.285 71.628 121.279 71.6547 121.269 71.6797C121.258 71.7046 121.243 71.7273 121.224 71.7462C121.204 71.7652 121.182 71.7801 121.156 71.7902C121.131 71.8002 121.104 71.8052 121.077 71.8047C121.023 71.8047 120.971 71.7832 120.933 71.745C120.895 71.7068 120.873 71.655 120.873 71.6009C120.873 71.5469 120.895 71.495 120.933 71.4568C120.971 71.4186 121.023 71.3971 121.077 71.3971C121.104 71.3967 121.131 71.4016 121.156 71.4117C121.182 71.4217 121.204 71.4366 121.224 71.4556C121.243 71.4746 121.258 71.4972 121.269 71.5221C121.279 71.5471 121.285 71.5739 121.285 71.6009Z" fill="#DAB689" stroke="#DAB689"/>
<path d="M132.341 92.1348C132.341 92.2285 132.322 92.3213 132.287 92.4078C132.251 92.4943 132.198 92.5729 132.132 92.6392C132.066 92.7054 131.987 92.7579 131.9 92.7938C131.814 92.8296 131.721 92.8481 131.627 92.8481C131.533 92.8481 131.44 92.8296 131.354 92.7938C131.267 92.7579 131.188 92.7054 131.122 92.6392C131.056 92.5729 131.003 92.4943 130.967 92.4078C130.932 92.3213 130.913 92.2285 130.913 92.1348C130.913 91.9457 130.988 91.7643 131.122 91.6305C131.256 91.4968 131.438 91.4216 131.627 91.4216C131.816 91.4216 131.998 91.4968 132.132 91.6305C132.266 91.7643 132.341 91.9457 132.341 92.1348Z" fill="#DAB689" stroke="#DAB689"/>
<path d="M122.726 108.349C122.726 108.518 122.659 108.68 122.539 108.8C122.419 108.92 122.257 108.987 122.087 108.987C121.917 108.987 121.754 108.92 121.634 108.8C121.514 108.681 121.445 108.518 121.445 108.349C121.445 108.179 121.514 108.017 121.634 107.897C121.754 107.777 121.917 107.71 122.087 107.71C122.257 107.71 122.419 107.777 122.539 107.897C122.659 108.017 122.726 108.179 122.726 108.349Z" fill="#DAB689" stroke="#DAB689"/>
<path d="M105.734 112.502C106.205 112.502 106.587 112.121 106.587 111.65C106.587 111.179 106.205 110.797 105.734 110.797C105.263 110.797 104.881 111.179 104.881 111.65C104.881 112.121 105.263 112.502 105.734 112.502Z" fill="#DAB689" stroke="#DAB689"/>
<path d="M100.685 115.651C100.685 115.785 100.632 115.914 100.537 116.01C100.442 116.105 100.313 116.159 100.179 116.16C100.043 116.16 99.9137 116.106 99.8181 116.011C99.7224 115.915 99.6687 115.786 99.6687 115.651C99.6687 115.516 99.7224 115.386 99.8181 115.29C99.9137 115.195 100.043 115.141 100.179 115.141C100.313 115.142 100.442 115.196 100.537 115.292C100.632 115.387 100.685 115.516 100.685 115.651Z" fill="#DAB689" stroke="#DAB689"/>
<path d="M104.123 137.149C104.123 137.219 104.11 137.288 104.083 137.353C104.057 137.418 104.018 137.476 103.968 137.526C103.919 137.576 103.86 137.615 103.796 137.642C103.731 137.669 103.662 137.682 103.592 137.682C103.522 137.682 103.453 137.669 103.388 137.642C103.324 137.615 103.265 137.576 103.216 137.526C103.167 137.476 103.128 137.418 103.101 137.353C103.075 137.288 103.061 137.219 103.062 137.149C103.062 137.009 103.118 136.874 103.217 136.775C103.317 136.675 103.451 136.619 103.592 136.619C103.733 136.619 103.868 136.675 103.967 136.775C104.067 136.874 104.123 137.009 104.123 137.149Z" fill="#DAB689" stroke="#DAB689"/>
<path d="M78.8143 126.342C78.8143 126.584 78.7183 126.815 78.5474 126.986C78.3765 127.156 78.1448 127.252 77.9031 127.252C77.6615 127.252 77.4297 127.156 77.2588 126.986C77.088 126.815 76.9919 126.584 76.9919 126.342C76.9919 126.1 77.0879 125.869 77.2586 125.697C77.4294 125.526 77.6611 125.43 77.9031 125.429C78.1451 125.43 78.3768 125.526 78.5476 125.697C78.7184 125.869 78.8143 126.1 78.8143 126.342Z" fill="#DAB689" stroke="#DAB689"/>
<path d="M78.3554 140.389C78.3559 140.438 78.3468 140.486 78.3285 140.531C78.3103 140.576 78.2833 140.616 78.2491 140.651C78.215 140.685 78.1744 140.713 78.1296 140.731C78.0848 140.75 78.0368 140.759 77.9883 140.759C77.9398 140.759 77.8917 140.75 77.847 140.731C77.8022 140.713 77.7616 140.685 77.7274 140.651C77.6933 140.616 77.6663 140.576 77.648 140.531C77.6298 140.486 77.6207 140.438 77.6211 140.389C77.6211 140.292 77.6598 140.199 77.7286 140.13C77.7975 140.061 77.8909 140.022 77.9883 140.022C78.0857 140.022 78.179 140.061 78.2479 140.13C78.3168 140.199 78.3554 140.292 78.3554 140.389Z" fill="#DAB689" stroke="#DAB689"/>
<path d="M68.302 146.35C68.302 146.44 68.2662 146.526 68.2024 146.59C68.1387 146.654 68.0522 146.689 67.9621 146.689C67.8719 146.689 67.7854 146.654 67.7216 146.59C67.6579 146.526 67.6221 146.44 67.6221 146.35C67.6221 146.26 67.6579 146.173 67.7216 146.11C67.7854 146.046 67.8719 146.01 67.9621 146.01C68.0522 146.01 68.1387 146.046 68.2024 146.11C68.2662 146.173 68.302 146.26 68.302 146.35Z" fill="#DAB689" stroke="#DAB689"/>
<path d="M80.5891 151.376C80.5896 151.503 80.565 151.628 80.5168 151.745C80.4686 151.861 80.3977 151.967 80.3083 152.057C80.2189 152.146 80.1126 152.217 79.9957 152.265C79.8787 152.313 79.7534 152.338 79.6269 152.337C79.3718 152.337 79.127 152.236 78.9466 152.056C78.7662 151.876 78.6648 151.631 78.6648 151.376C78.6648 151.121 78.7662 150.877 78.9466 150.697C79.127 150.516 79.3718 150.415 79.6269 150.415C79.8821 150.415 80.1269 150.516 80.3073 150.697C80.4877 150.877 80.5891 151.121 80.5891 151.376Z" fill="#DAB689" stroke="#DAB689"/>
<path d="M61.064 152.511C61.064 152.674 60.9988 152.832 60.8827 152.948C60.7667 153.064 60.6093 153.129 60.4452 153.129C60.2811 153.129 60.1237 153.064 60.0077 152.948C59.8916 152.832 59.8264 152.674 59.8264 152.511C59.8273 152.347 59.8929 152.191 60.0089 152.076C60.1248 151.96 60.2817 151.896 60.4452 151.896C60.6087 151.896 60.7656 151.96 60.8815 152.076C60.9975 152.191 61.0631 152.347 61.064 152.511Z" fill="#DAB689" stroke="#DAB689"/>
<path d="M80.7556 162.693C80.7556 162.798 80.7137 162.899 80.6391 162.974C80.5645 163.048 80.4633 163.09 80.3578 163.09C80.2529 163.089 80.1526 163.047 80.0787 162.972C80.0049 162.898 79.9634 162.797 79.9634 162.693C79.9629 162.641 79.9728 162.589 79.9924 162.541C80.0121 162.493 80.0411 162.449 80.0777 162.412C80.1144 162.375 80.158 162.346 80.2061 162.326C80.2542 162.306 80.3057 162.295 80.3578 162.295C80.4633 162.295 80.5645 162.337 80.6391 162.412C80.7137 162.486 80.7556 162.587 80.7556 162.693Z" fill="#DAB689" stroke="#DAB689"/>
<path d="M75.905 166.864C75.905 166.881 75.9016 166.898 75.8948 166.914C75.8881 166.93 75.8783 166.944 75.8659 166.956C75.8534 166.968 75.8388 166.978 75.8227 166.984C75.8065 166.991 75.7893 166.994 75.772 166.993C75.7376 166.993 75.7046 166.979 75.6803 166.955C75.656 166.931 75.6423 166.898 75.6423 166.864C75.6423 166.829 75.656 166.796 75.6803 166.772C75.7046 166.748 75.7376 166.734 75.772 166.734C75.7893 166.734 75.8065 166.737 75.8227 166.743C75.8388 166.749 75.8534 166.759 75.8659 166.771C75.8783 166.783 75.8881 166.797 75.8948 166.813C75.9016 166.829 75.905 166.846 75.905 166.864Z" fill="#DAB689" stroke="#DAB689"/>
<path d="M95.691 176.797C95.691 176.928 95.6654 177.057 95.6155 177.177C95.5656 177.297 95.4925 177.407 95.4003 177.499C95.3081 177.591 95.1987 177.664 95.0782 177.714C94.9578 177.763 94.8287 177.789 94.6983 177.789C94.435 177.789 94.1825 177.685 93.9963 177.499C93.8102 177.313 93.7056 177.06 93.7056 176.797C93.7056 176.534 93.8102 176.282 93.9963 176.096C94.1825 175.91 94.435 175.806 94.6983 175.806C94.8287 175.806 94.9578 175.831 95.0782 175.881C95.1987 175.931 95.3081 176.004 95.4003 176.096C95.4925 176.188 95.5656 176.298 95.6155 176.418C95.6654 176.538 95.691 176.667 95.691 176.797Z" fill="#DAB689" stroke="#DAB689"/>
<path d="M96.9491 186.735C96.9491 186.818 96.9161 186.897 96.8574 186.956C96.7988 187.014 96.7192 187.047 96.6363 187.047C96.5533 187.047 96.4738 187.014 96.4151 186.956C96.3564 186.897 96.3235 186.818 96.3235 186.735C96.3231 186.694 96.3308 186.653 96.3463 186.614C96.3618 186.576 96.3848 186.541 96.4139 186.512C96.443 186.482 96.4776 186.459 96.5158 186.443C96.554 186.427 96.5949 186.419 96.6363 186.419C96.6776 186.419 96.7186 186.427 96.7567 186.443C96.7949 186.459 96.8296 186.482 96.8587 186.512C96.8878 186.541 96.9107 186.576 96.9262 186.614C96.9417 186.653 96.9495 186.694 96.9491 186.735Z" fill="#DAB689" stroke="#DAB689"/>
<path d="M73.5241 191.856C73.5241 191.885 73.5185 191.912 73.5078 191.938C73.497 191.964 73.4812 191.988 73.4613 192.008C73.4415 192.028 73.4179 192.043 73.3919 192.054C73.3659 192.065 73.338 192.07 73.3099 192.07C73.2537 192.07 73.2001 192.047 73.1607 192.007C73.1212 191.967 73.0991 191.913 73.0991 191.856C73.0991 191.801 73.1213 191.747 73.1609 191.708C73.2004 191.668 73.254 191.646 73.3099 191.646C73.3661 191.646 73.4201 191.668 73.4602 191.707C73.5003 191.747 73.5232 191.8 73.5241 191.856Z" fill="#DAB689" stroke="#DAB689"/>
<path d="M79.763 204.582C80.0127 204.582 80.2151 204.38 80.2151 204.131C80.2151 203.881 80.0127 203.679 79.763 203.679C79.5132 203.679 79.3108 203.881 79.3108 204.131C79.3108 204.38 79.5132 204.582 79.763 204.582Z" fill="#DAB689" stroke="#DAB689"/>
<path d="M74.8841 210.135C74.8841 210.375 74.7888 210.605 74.6193 210.774C74.4497 210.943 74.2196 211.039 73.9798 211.039C73.7399 211.039 73.5099 210.943 73.3403 210.774C73.1707 210.605 73.0754 210.375 73.0754 210.135C73.0754 209.896 73.1707 209.666 73.3403 209.496C73.5099 209.327 73.7399 209.232 73.9798 209.232C74.2196 209.232 74.4497 209.327 74.6193 209.496C74.7888 209.666 74.8841 209.896 74.8841 210.135Z" fill="#DAB689" stroke="#DAB689"/>
<path d="M100.845 214.557C100.969 214.557 101.069 214.457 101.069 214.333C101.069 214.209 100.969 214.109 100.845 214.109C100.721 214.109 100.621 214.209 100.621 214.333C100.621 214.457 100.721 214.557 100.845 214.557Z" fill="#DAB689" stroke="#DAB689"/>
<path d="M100.451 237.387C100.451 237.417 100.446 237.448 100.434 237.476C100.423 237.504 100.406 237.53 100.384 237.551C100.362 237.573 100.337 237.59 100.309 237.601C100.28 237.613 100.25 237.618 100.22 237.618C100.189 237.618 100.159 237.612 100.132 237.6C100.104 237.589 100.078 237.572 100.057 237.55C100.036 237.529 100.019 237.503 100.008 237.475C99.9968 237.447 99.9913 237.417 99.9917 237.387C99.9917 237.327 100.016 237.269 100.058 237.226C100.101 237.183 100.159 237.159 100.22 237.159C100.25 237.159 100.28 237.165 100.308 237.176C100.336 237.187 100.361 237.204 100.383 237.225C100.404 237.246 100.421 237.271 100.433 237.299C100.445 237.327 100.451 237.357 100.451 237.387Z" fill="#DAB689" stroke="#DAB689"/>
<path d="M97.5576 252.922C97.6609 252.922 97.7446 252.838 97.7446 252.735C97.7446 252.632 97.6609 252.548 97.5576 252.548C97.4543 252.548 97.3706 252.632 97.3706 252.735C97.3706 252.838 97.4543 252.922 97.5576 252.922Z" fill="#DAB689" stroke="#DAB689"/>
<path d="M117.168 257.612C117.56 257.612 117.878 257.294 117.878 256.902C117.878 256.51 117.56 256.192 117.168 256.192C116.775 256.192 116.457 256.51 116.457 256.902C116.457 257.294 116.775 257.612 117.168 257.612Z" fill="#DAB689" stroke="#DAB689"/>
<path d="M118.116 258.227C118.116 258.484 118.014 258.731 117.831 258.913C117.649 259.096 117.402 259.198 117.144 259.198C116.886 259.198 116.638 259.096 116.455 258.914C116.272 258.732 116.169 258.485 116.168 258.227C116.169 257.968 116.272 257.721 116.455 257.538C116.638 257.356 116.885 257.253 117.144 257.252C117.402 257.253 117.649 257.356 117.832 257.539C118.014 257.721 118.116 257.969 118.116 258.227Z" fill="#DAB689" stroke="#DAB689"/>
<path d="M133.966 267.526C133.966 267.642 133.92 267.753 133.838 267.835C133.755 267.918 133.644 267.964 133.527 267.964C133.411 267.964 133.3 267.918 133.217 267.835C133.135 267.753 133.089 267.642 133.089 267.526C133.088 267.468 133.099 267.411 133.121 267.357C133.143 267.304 133.176 267.256 133.216 267.215C133.257 267.174 133.306 267.142 133.359 267.12C133.413 267.098 133.47 267.087 133.527 267.088C133.644 267.088 133.755 267.134 133.838 267.216C133.92 267.298 133.966 267.409 133.966 267.526Z" fill="#DAB689" stroke="#DAB689"/>
<path d="M93.9163 275.728C94.3388 275.728 94.6813 275.386 94.6813 274.964C94.6813 274.541 94.3388 274.199 93.9163 274.199C93.4939 274.199 93.1514 274.541 93.1514 274.964C93.1514 275.386 93.4939 275.728 93.9163 275.728Z" fill="#DAB689" stroke="#DAB689"/>
<path d="M131.842 280.915C131.921 280.915 131.985 280.851 131.985 280.772C131.985 280.693 131.921 280.628 131.842 280.628C131.763 280.628 131.698 280.693 131.698 280.772C131.698 280.851 131.763 280.915 131.842 280.915Z" fill="#DAB689" stroke="#DAB689"/>
<path d="M117.861 292.488C118.263 292.488 118.589 292.163 118.589 291.762C118.589 291.36 118.263 291.035 117.861 291.035C117.459 291.035 117.134 291.36 117.134 291.762C117.134 292.163 117.459 292.488 117.861 292.488Z" fill="#DAB689" stroke="#DAB689"/>
<path d="M222.144 104.976C222.519 104.976 222.824 104.672 222.824 104.297C222.824 103.922 222.519 103.618 222.144 103.618C221.768 103.618 221.464 103.922 221.464 104.297C221.464 104.672 221.768 104.976 222.144 104.976Z" fill="#DAB689" stroke="#DAB689"/>
<path d="M206.685 128.455C207.139 128.455 207.507 128.087 207.507 127.633C207.507 127.179 207.139 126.811 206.685 126.811C206.23 126.811 205.862 127.179 205.862 127.633C205.862 128.087 206.23 128.455 206.685 128.455Z" fill="#DAB689" stroke="#DAB689"/>
<path d="M230.228 115.6C230.228 115.716 230.182 115.827 230.1 115.91C230.018 115.992 229.906 116.038 229.79 116.038C229.674 116.038 229.562 115.992 229.48 115.91C229.398 115.827 229.351 115.716 229.351 115.6C229.351 115.483 229.397 115.371 229.48 115.289C229.562 115.206 229.673 115.159 229.79 115.158C229.907 115.159 230.018 115.206 230.1 115.289C230.182 115.371 230.228 115.483 230.228 115.6Z" fill="#DAB689" stroke="#DAB689"/>
<path d="M221.909 132.568C222.087 132.568 222.232 132.423 222.232 132.245C222.232 132.067 222.087 131.922 221.909 131.922C221.731 131.922 221.586 132.067 221.586 132.245C221.586 132.423 221.731 132.568 221.909 132.568Z" fill="#DAB689" stroke="#DAB689"/>
<path d="M246.235 135.831C246.235 135.87 246.219 135.907 246.192 135.935C246.165 135.962 246.127 135.977 246.089 135.977C246.049 135.977 246.012 135.962 245.984 135.935C245.956 135.908 245.94 135.87 245.939 135.831C245.94 135.792 245.956 135.755 245.984 135.728C246.012 135.701 246.049 135.685 246.089 135.685C246.127 135.685 246.165 135.701 246.192 135.728C246.219 135.756 246.235 135.793 246.235 135.831Z" fill="#DAB689" stroke="#DAB689"/>
<path d="M250.573 153.057C250.573 153.147 250.537 153.234 250.473 153.298C250.409 153.361 250.323 153.397 250.233 153.397C250.143 153.397 250.056 153.361 249.992 153.298C249.929 153.234 249.893 153.147 249.893 153.057C249.897 152.97 249.935 152.888 249.998 152.828C250.061 152.768 250.145 152.735 250.233 152.735C250.32 152.735 250.404 152.768 250.467 152.828C250.531 152.888 250.568 152.97 250.573 153.057Z" fill="#DAB689" stroke="#DAB689"/>
<path d="M237.099 171.261C237.099 171.523 236.995 171.773 236.811 171.958C236.626 172.143 236.375 172.246 236.113 172.246C235.852 172.246 235.601 172.143 235.416 171.958C235.231 171.773 235.127 171.523 235.127 171.261C235.127 171 235.231 170.75 235.416 170.565C235.601 170.38 235.852 170.277 236.113 170.277C236.375 170.277 236.626 170.38 236.811 170.565C236.995 170.75 237.099 171 237.099 171.261Z" fill="#DAB689" stroke="#DAB689"/>
<path d="M271.777 178.336C271.777 178.447 271.733 178.553 271.655 178.631C271.577 178.71 271.47 178.754 271.359 178.754C271.249 178.753 271.144 178.708 271.066 178.63C270.988 178.552 270.945 178.446 270.945 178.336C270.945 178.281 270.955 178.228 270.976 178.177C270.997 178.127 271.028 178.081 271.066 178.043C271.105 178.004 271.15 177.974 271.201 177.953C271.251 177.932 271.305 177.922 271.359 177.922C271.47 177.922 271.576 177.965 271.654 178.043C271.732 178.12 271.777 178.226 271.777 178.336Z" fill="#DAB689" stroke="#DAB689"/>
<path d="M267.599 195.932C267.599 196.003 267.585 196.074 267.558 196.14C267.53 196.206 267.49 196.266 267.44 196.316C267.389 196.367 267.329 196.407 267.263 196.434C267.197 196.461 267.127 196.475 267.055 196.475C266.912 196.475 266.774 196.417 266.673 196.315C266.571 196.213 266.515 196.076 266.515 195.932C266.515 195.789 266.572 195.651 266.673 195.55C266.774 195.449 266.912 195.392 267.055 195.392C267.199 195.392 267.337 195.449 267.439 195.55C267.541 195.651 267.598 195.788 267.599 195.932Z" fill="#DAB689" stroke="#DAB689"/>
<path d="M248.975 210.594C249.396 210.594 249.737 210.253 249.737 209.833C249.737 209.413 249.396 209.072 248.975 209.072C248.554 209.072 248.213 209.413 248.213 209.833C248.213 210.253 248.554 210.594 248.975 210.594Z" fill="#DAB689" stroke="#DAB689"/>
<path d="M232.955 221.523C232.954 221.725 232.873 221.919 232.73 222.061C232.586 222.204 232.392 222.284 232.19 222.284C231.988 222.283 231.795 222.202 231.653 222.06C231.51 221.917 231.429 221.725 231.428 221.523C231.428 221.321 231.509 221.127 231.651 220.984C231.794 220.841 231.988 220.76 232.19 220.759C232.393 220.759 232.588 220.839 232.731 220.983C232.874 221.126 232.955 221.32 232.955 221.523Z" fill="#DAB689" stroke="#DAB689"/>
<path d="M229.219 236.983C229.671 236.983 230.038 236.616 230.038 236.164C230.038 235.712 229.671 235.346 229.219 235.346C228.766 235.346 228.399 235.712 228.399 236.164C228.399 236.616 228.766 236.983 229.219 236.983Z" fill="#DAB689" stroke="#DAB689"/>
<path d="M237.368 259.857C237.368 259.982 237.318 260.102 237.23 260.191C237.141 260.279 237.021 260.329 236.895 260.329C236.77 260.329 236.65 260.279 236.561 260.191C236.473 260.102 236.423 259.982 236.423 259.857C236.423 259.795 236.435 259.734 236.459 259.677C236.483 259.62 236.518 259.568 236.561 259.524C236.605 259.481 236.658 259.446 236.715 259.423C236.772 259.399 236.834 259.388 236.895 259.388C236.957 259.388 237.019 259.399 237.076 259.423C237.133 259.446 237.185 259.481 237.229 259.524C237.273 259.568 237.308 259.62 237.332 259.677C237.356 259.734 237.368 259.795 237.368 259.857Z" fill="#DAB689" stroke="#DAB689"/>
<path d="M223.874 274.899C223.874 275.116 223.788 275.324 223.634 275.478C223.48 275.631 223.272 275.717 223.055 275.717C222.837 275.717 222.629 275.631 222.475 275.478C222.322 275.324 222.235 275.116 222.235 274.899C222.235 274.682 222.322 274.474 222.475 274.32C222.629 274.167 222.837 274.08 223.055 274.08C223.272 274.08 223.48 274.167 223.634 274.32C223.788 274.474 223.874 274.682 223.874 274.899Z" fill="#DAB689" stroke="#DAB689"/>
<path d="M194.044 279.599C194.044 279.697 194.006 279.79 193.937 279.859C193.868 279.928 193.774 279.966 193.677 279.966C193.58 279.966 193.486 279.928 193.417 279.859C193.349 279.79 193.31 279.697 193.31 279.599C193.31 279.502 193.349 279.409 193.417 279.34C193.486 279.271 193.58 279.233 193.677 279.233C193.774 279.233 193.868 279.271 193.937 279.34C194.006 279.409 194.044 279.502 194.044 279.599Z" fill="#DAB689" stroke="#DAB689"/>
<path d="M207.378 295.535C207.378 295.574 207.363 295.611 207.336 295.639C207.308 295.667 207.271 295.683 207.232 295.684C207.192 295.684 207.154 295.669 207.126 295.64C207.098 295.612 207.083 295.574 207.083 295.535C207.083 295.496 207.1 295.459 207.128 295.431C207.156 295.404 207.193 295.389 207.232 295.389C207.251 295.389 207.27 295.393 207.288 295.4C207.306 295.407 207.322 295.418 207.336 295.432C207.349 295.445 207.36 295.461 207.367 295.479C207.375 295.497 207.378 295.516 207.378 295.535Z" fill="#DAB689" stroke="#DAB689"/>
<path d="M187.714 297.474C187.713 297.705 187.62 297.926 187.456 298.089C187.293 298.252 187.071 298.344 186.84 298.344C186.609 298.344 186.388 298.252 186.224 298.089C186.061 297.926 185.969 297.705 185.969 297.474C185.969 297.243 186.061 297.022 186.224 296.858C186.387 296.694 186.609 296.602 186.84 296.601C187.072 296.601 187.294 296.693 187.458 296.857C187.622 297.021 187.714 297.243 187.714 297.474Z" fill="#DAB689" stroke="#DAB689"/>
<path d="M180.503 300.354C180.503 300.534 180.431 300.707 180.304 300.834C180.176 300.962 180.003 301.033 179.823 301.033C179.642 301.033 179.469 300.962 179.342 300.834C179.214 300.707 179.143 300.534 179.143 300.354C179.143 300.174 179.214 300.001 179.342 299.874C179.469 299.746 179.642 299.675 179.823 299.675C180.003 299.675 180.176 299.746 180.304 299.874C180.431 300.001 180.503 300.174 180.503 300.354Z" fill="#DAB689" stroke="#DAB689"/>
<path d="M213.287 313.8C213.482 313.8 213.641 313.642 213.641 313.447C213.641 313.252 213.482 313.094 213.287 313.094C213.092 313.094 212.934 313.252 212.934 313.447C212.934 313.642 213.092 313.8 213.287 313.8Z" fill="#DAB689" stroke="#DAB689"/>
</svg>
