<svg width="162" height="168" viewBox="0 0 162 168" fill="none" xmlns="http://www.w3.org/2000/svg">
<g clip-path="url(#clip0_254:4644)">
<path d="M85.5199 60.94C85.5199 60.94 64.9499 60.34 70.6099 52.63C76.2699 44.92 101 45.52 105.22 51.49C110.47 58.94 89.4699 60.94 89.4699 60.94" stroke="#DAB689" stroke-width="1.3" stroke-linecap="round" stroke-linejoin="round"/>
<path d="M90.2398 53.36C89.1189 52.8557 87.8683 52.7147 86.6632 52.9568C85.4582 53.1989 84.359 53.8119 83.5198 54.71C82.7198 55.57 82.2098 56.57 82.7898 57.5C84.2098 59.76 91.3498 59.71 92.0498 57.55C92.2231 57.158 92.3134 56.7344 92.3152 56.3059C92.317 55.8773 92.2302 55.453 92.0602 55.0596C91.8903 54.6661 91.6409 54.3121 91.3276 54.0196C91.0143 53.7271 90.644 53.5026 90.2398 53.36V53.36Z" stroke="#DAB689" stroke-width="1.3" stroke-linecap="round" stroke-linejoin="round"/>
<path d="M85.4 58.94C85.4 58.94 86.4 68.07 83.46 83.78C80.8 98.02 72.04 112.69 76.15 125.5C76.3045 125.968 76.569 126.392 76.9213 126.736C77.2736 127.081 77.7034 127.336 78.1746 127.48C78.6458 127.624 79.1447 127.653 79.6294 127.564C80.1141 127.475 80.5704 127.272 80.96 126.97V126.97C81.4952 126.565 81.8828 125.995 82.0634 125.349C82.244 124.702 82.2077 124.014 81.96 123.39C80.78 120.44 79.42 114.3 82.79 105.27C87.71 92.14 90.3801 67.34 89.0201 59.08" stroke="#DAB689" stroke-width="1.3" stroke-linecap="round" stroke-linejoin="round"/>
<path d="M83.5198 58.21L77.5298 60.03" stroke="#DAB689" stroke-width="1.3" stroke-linecap="round" stroke-linejoin="round"/>
<path d="M82.66 56H69.79" stroke="#DAB689" stroke-width="1.3" stroke-linecap="round" stroke-linejoin="round"/>
<path d="M84.0702 54.2L72.9902 50.47" stroke="#DAB689" stroke-width="1.3" stroke-linecap="round" stroke-linejoin="round"/>
<path d="M80.5298 47.7L85.5098 53.32" stroke="#DAB689" stroke-width="1.3" stroke-linecap="round" stroke-linejoin="round"/>
<path d="M87.4102 46.93V52.85" stroke="#DAB689" stroke-width="1.3" stroke-linecap="round" stroke-linejoin="round"/>
<path d="M89.8701 53.2L94.2701 47.24" stroke="#DAB689" stroke-width="1.3" stroke-linecap="round" stroke-linejoin="round"/>
<path d="M91.8198 54.62L101.35 48.87" stroke="#DAB689" stroke-width="1.3" stroke-linecap="round" stroke-linejoin="round"/>
<path d="M92.2798 56.41L106.14 54.34C106.14 54.34 107.82 35.72 88.0398 35.65C68.2598 35.58 69.5398 55.13 69.5398 55.13" stroke="#DAB689" stroke-width="1.3" stroke-linecap="round" stroke-linejoin="round"/>
<path d="M91.5698 58.21L97.2398 59.58" stroke="#DAB689" stroke-width="1.3" stroke-linecap="round" stroke-linejoin="round"/>
<path d="M76.4791 43.9468C77.0509 43.5599 77.3012 42.9311 77.0381 42.5423C76.7751 42.1535 76.0983 42.1519 75.5265 42.5388C74.9547 42.9256 74.7045 43.5544 74.9675 43.9432C75.2306 44.332 75.9073 44.3336 76.4791 43.9468Z" fill="#DAB689"/>
<path d="M71.2099 47.22C71.4699 47.61 72.1499 47.61 72.7299 47.22C73.3099 46.83 73.5499 46.22 73.2899 45.82C73.0299 45.42 72.3499 45.43 71.7699 45.82C71.1899 46.21 70.9499 46.78 71.2099 47.22Z" fill="#DAB689"/>
<path d="M81.4602 43.83C81.5902 44.28 82.2302 44.49 82.9002 44.3C83.5702 44.11 84.0002 43.59 83.9002 43.14C83.8002 42.69 83.1202 42.48 82.4602 42.67C81.8002 42.86 81.3302 43.38 81.4602 43.83Z" fill="#DAB689"/>
<path d="M78.3887 40.026C79.0523 39.8359 79.4855 39.3159 79.3562 38.8646C79.2269 38.4133 78.584 38.2016 77.9204 38.3918C77.2567 38.582 76.8236 39.102 76.9529 39.5533C77.0822 40.0046 77.725 40.2162 78.3887 40.026Z" fill="#DAB689"/>
<path d="M96.84 43.55C96.73 44.01 97.19 44.55 97.84 44.67C98.49 44.79 99.14 44.59 99.25 44.13C99.36 43.67 98.9 43.13 98.25 43.02C97.6 42.91 96.94 43.1 96.84 43.55Z" fill="#DAB689"/>
<path d="M100.13 41.7C100.02 42.16 100.48 42.7 101.13 42.82C101.78 42.94 102.43 42.74 102.54 42.28C102.65 41.82 102.19 41.28 101.54 41.17C100.89 41.06 100.24 41.22 100.13 41.7Z" fill="#DAB689"/>
<path d="M102.33 45.62C102.22 46.07 102.68 46.57 103.33 46.73C103.98 46.89 104.64 46.65 104.75 46.2C104.86 45.75 104.4 45.2 103.75 45.08C103.1 44.96 102.44 45.16 102.33 45.62Z" fill="#DAB689"/>
<path d="M88.6501 40.51C88.5501 40.97 89.0001 41.51 89.6501 41.63C90.3001 41.75 90.9501 41.55 91.0601 41.09C91.1701 40.63 90.7101 40.09 90.0601 39.97C89.4101 39.85 88.7601 40.05 88.6501 40.51Z" fill="#DAB689"/>
<path d="M87.5901 35.85C87.4901 36.31 87.9401 36.85 88.5901 36.97C89.2401 37.09 89.8901 36.89 90.0001 36.43C90.1101 35.97 89.6501 35.48 89.0001 35.32C88.3501 35.16 87.7001 35.4 87.5901 35.85Z" fill="#DAB689"/>
<path d="M83.0398 39.31C83.2298 39.88 84.0398 40.12 84.9098 39.83C85.7798 39.54 86.2798 38.83 86.0798 38.29C85.8798 37.75 85.0798 37.49 84.2098 37.77C83.3398 38.05 82.8698 38.74 83.0398 39.31Z" fill="#DAB689"/>
<path d="M92.0402 39.02C91.9702 39.62 92.6402 40.18 93.5202 40.28C94.4002 40.38 95.1702 39.97 95.2302 39.37C95.2902 38.77 94.6402 38.21 93.7502 38.11C92.8602 38.01 92.1402 38.42 92.0402 39.02Z" fill="#DAB689"/>
<path d="M67.38 87.33C67.38 87.33 53.31 88.85 56.38 83.04C59.45 77.23 76.29 75.04 79.77 78.7C84.11 83.21 70.05 86.7 70.05 86.7" stroke="#DAB689" stroke-width="1.3" stroke-linecap="round" stroke-linejoin="round"/>
<path d="M69.7702 81.51C68.9564 81.2747 68.089 81.3038 67.2928 81.5932C66.4967 81.8825 65.813 82.4171 65.3402 83.12C64.8902 83.78 64.6401 84.51 65.1401 85.12C66.3301 86.51 71.1401 85.73 71.4301 84.2C71.5134 83.914 71.5357 83.6137 71.4956 83.3185C71.4556 83.0233 71.3541 82.7398 71.1976 82.4863C71.0412 82.2328 70.8333 82.0149 70.5874 81.8468C70.3415 81.6786 70.0631 81.5639 69.7702 81.51Z" stroke="#DAB689" stroke-width="1.3" stroke-linecap="round" stroke-linejoin="round"/>
<path d="M67.0401 85.8C67.0401 85.8 68.6601 91.9 68.2801 102.87C67.9401 112.87 63.5101 123.72 67.6301 132C67.7861 132.297 68.0108 132.553 68.2855 132.746C68.5601 132.939 68.8768 133.063 69.2093 133.109C69.5417 133.155 69.8803 133.121 70.197 133.01C70.5137 132.899 70.7993 132.714 71.0301 132.47V132.47C71.3489 132.143 71.5519 131.72 71.6078 131.267C71.6638 130.814 71.5698 130.355 71.3401 129.96C70.2401 128.09 68.6601 124.05 70.0301 117.54C72.0301 108.12 71.2801 90.99 69.5001 85.54" stroke="#DAB689" stroke-width="1.3" stroke-linecap="round" stroke-linejoin="round"/>
<path d="M55.9101 84.84C55.9101 84.84 53.0401 71.69 66.4701 69.7C79.9001 67.71 80.6801 80.54 80.6801 80.54" stroke="#DAB689" stroke-width="1.3" stroke-linecap="round" stroke-linejoin="round"/>
<path d="M65.13 85.08L59.46 87.17" stroke="#DAB689" stroke-width="1.3" stroke-linecap="round" stroke-linejoin="round"/>
<path d="M65.3399 83.11L56.3599 83.03" stroke="#DAB689" stroke-width="1.3" stroke-linecap="round" stroke-linejoin="round"/>
<path d="M61.4302 79.12L66.1902 82.21" stroke="#DAB689" stroke-width="1.3" stroke-linecap="round" stroke-linejoin="round"/>
<path d="M68.16 81.39L67.73 77.35" stroke="#DAB689" stroke-width="1.3" stroke-linecap="round" stroke-linejoin="round"/>
<path d="M70.3301 81.73L74.1701 76.95" stroke="#DAB689" stroke-width="1.3" stroke-linecap="round" stroke-linejoin="round"/>
<path d="M71.48 83.11L80.11 79.12" stroke="#DAB689" stroke-width="1.3" stroke-linecap="round" stroke-linejoin="round"/>
<path d="M71.1802 84.64L76.9402 84.2" stroke="#DAB689" stroke-width="1.3" stroke-linecap="round" stroke-linejoin="round"/>
</g>
<defs>
<clipPath id="clip0_254:4644">
<rect width="51.83" height="98.78" fill="white" transform="translate(55 35)"/>
</clipPath>
</defs>
</svg>
