<svg width="100" height="100" viewBox="0 0 100 100" fill="none" xmlns="http://www.w3.org/2000/svg">
<g clip-path="url(#clip0_535:2818)">
<path d="M49.5066 20.3949H53.8695C53.8695 20.3949 53.6904 28.6641 60.8424 44.2431C67.9945 59.8221 72.012 63.9504 70.2591 73.9366C69.6719 76.9634 68.541 79.8622 66.9198 82.4962C65.1193 85.4615 62.5661 87.912 59.5123 89.6057C56.4584 91.2995 53.0097 92.1779 49.5066 92.1542C45.9984 92.1724 42.5459 91.2877 39.49 89.5874C36.4341 87.8871 33.8803 85.4299 32.0806 82.4583C30.4594 79.8243 29.3285 76.9255 28.7412 73.8987C27.0012 63.9125 31.0058 59.7842 38.1579 44.2052C45.31 28.6263 45.1437 20.3571 45.1437 20.3571L49.5066 20.3949Z" stroke="#DAB689" stroke-width="1.3" stroke-linecap="round" stroke-linejoin="round"/>
<path d="M49.5065 7.64386H43.749L45.1436 15.9131H49.5065H53.8566L55.264 7.64386H49.5065Z" fill="#DAB689" stroke="#DAB689" stroke-width="1.03" stroke-linecap="round" stroke-linejoin="round"/>
<path d="M44.4399 20.3949H54.5603C55.1609 20.3949 55.7369 20.1595 56.1616 19.7404C56.5863 19.3213 56.8249 18.753 56.8249 18.1603V18.1603C56.8249 17.5665 56.5867 16.9968 56.1624 16.5757C55.7381 16.1547 55.1621 15.9164 54.5603 15.9131H44.4399C43.8381 15.9164 43.2621 16.1547 42.8378 16.5757C42.4135 16.9968 42.1753 17.5665 42.1753 18.1603V18.1603C42.1787 18.752 42.4183 19.3184 42.8423 19.7367C43.2663 20.1551 43.8403 20.3916 44.4399 20.3949V20.3949Z" stroke="#DAB689" stroke-width="1.3" stroke-linecap="round" stroke-linejoin="round"/>
<path d="M35.8545 56.2871C35.8545 57.6254 41.9702 58.6985 49.5061 58.6985C57.042 58.6985 63.145 57.6254 63.145 56.2871C63.145 54.9489 57.042 53.8884 49.5061 53.8884C41.9702 53.8884 35.8545 54.9615 35.8545 56.2871Z" stroke="#DAB689" stroke-width="1.3" stroke-linecap="round" stroke-linejoin="round"/>
<path d="M35.8544 56.2871C33.3575 61.342 32.0457 66.8866 32.0161 72.5099C32.6175 94.2877 65.7806 94.313 66.9065 72.5099C67.0027 66.8654 65.712 61.2817 63.1449 56.2366" stroke="#DAB689" stroke-width="1.3" stroke-linecap="round" stroke-linejoin="round"/>
<path d="M46.743 68.2933C48.0573 68.2933 49.1228 67.2419 49.1228 65.9451C49.1228 64.6482 48.0573 63.5969 46.743 63.5969C45.4287 63.5969 44.3633 64.6482 44.3633 65.9451C44.3633 67.2419 45.4287 68.2933 46.743 68.2933Z" stroke="#DAB689" stroke-width="1.3" stroke-linecap="round" stroke-linejoin="round"/>
<path d="M49.481 82.6098C49.481 82.9165 49.5422 83.2202 49.6611 83.5036C49.7801 83.787 49.9544 84.0444 50.1742 84.2613C50.394 84.4782 50.655 84.6502 50.9421 84.7676C51.2293 84.885 51.5371 84.9454 51.8479 84.9454C52.1588 84.9454 52.4665 84.885 52.7537 84.7676C53.0409 84.6502 53.3018 84.4782 53.5216 84.2613C53.7414 84.0444 53.9158 83.787 54.0347 83.5036C54.1537 83.2202 54.2149 82.9165 54.2149 82.6098C54.2149 81.9904 53.9655 81.3963 53.5216 80.9583C53.0777 80.5203 52.4757 80.2742 51.8479 80.2742C51.2202 80.2742 50.6181 80.5203 50.1742 80.9583C49.7303 81.3963 49.481 81.9904 49.481 82.6098V82.6098Z" stroke="#DAB689" stroke-width="1.3" stroke-linecap="round" stroke-linejoin="round"/>
<path d="M58.0787 68.7983C58.4673 68.7983 58.7824 68.4875 58.7824 68.104C58.7824 67.7205 58.4673 67.4096 58.0787 67.4096C57.6901 67.4096 57.375 67.7205 57.375 68.104C57.375 68.4875 57.6901 68.7983 58.0787 68.7983Z" stroke="#DAB689" stroke-width="1.3" stroke-linecap="round" stroke-linejoin="round"/>
<path d="M58.7823 77.8376C59.1709 77.8376 59.486 77.5268 59.486 77.1433C59.486 76.7598 59.1709 76.4489 58.7823 76.4489C58.3937 76.4489 58.0786 76.7598 58.0786 77.1433C58.0786 77.5268 58.3937 77.8376 58.7823 77.8376Z" stroke="#DAB689" stroke-width="1.3" stroke-linecap="round" stroke-linejoin="round"/>
<path d="M44.5421 80.956C44.9307 80.956 45.2458 80.6451 45.2458 80.2616C45.2458 79.8781 44.9307 79.5673 44.5421 79.5673C44.1534 79.5673 43.8384 79.8781 43.8384 80.2616C43.8384 80.6451 44.1534 80.956 44.5421 80.956Z" stroke="#DAB689" stroke-width="1.3" stroke-linecap="round" stroke-linejoin="round"/>
<path d="M37.9786 70.9192C38.3672 70.9192 38.6823 70.6084 38.6823 70.2249C38.6823 69.8414 38.3672 69.5305 37.9786 69.5305C37.59 69.5305 37.2749 69.8414 37.2749 70.2249C37.2749 70.6084 37.59 70.9192 37.9786 70.9192Z" stroke="#DAB689" stroke-width="1.3" stroke-linecap="round" stroke-linejoin="round"/>
</g>
<defs>
<clipPath id="clip0_535:2818">
<rect width="44" height="86" fill="white" transform="translate(27.5 7)"/>
</clipPath>
</defs>
</svg>
