<svg width="200" height="200" viewBox="0 0 200 200" fill="none" xmlns="http://www.w3.org/2000/svg">
<path d="M100.012 45.765H107.944C107.944 45.765 107.619 61.0534 120.622 89.8564C133.626 118.659 140.931 126.292 137.744 144.755C136.676 150.351 134.62 155.71 131.672 160.58C128.399 166.062 123.756 170.593 118.204 173.724C112.652 176.856 106.381 178.48 100.012 178.436C93.6333 178.47 87.3561 176.834 81.7999 173.691C76.2437 170.547 71.6004 166.004 68.3282 160.51C65.3806 155.64 63.3244 150.281 62.2567 144.685C59.093 126.222 66.3742 118.589 79.3779 89.7864C92.3817 60.9834 92.0793 45.6949 92.0793 45.6949L100.012 45.765Z" stroke="#DAB689" stroke-width="1.3" stroke-linecap="round" stroke-linejoin="round"/>
<path d="M100.012 22.1904H89.5437L92.0793 37.4789H100.012H107.921L110.48 22.1904H100.012Z" fill="#DAB689" stroke="#DAB689" stroke-width="1.03" stroke-linecap="round" stroke-linejoin="round"/>
<path d="M90.7999 45.765H109.201C110.293 45.765 111.34 45.3297 112.112 44.555C112.884 43.7802 113.318 42.7294 113.318 41.6337V41.6337C113.318 40.5358 112.885 39.4825 112.113 38.704C111.342 37.9255 110.295 37.485 109.201 37.4789H90.7999C89.7057 37.485 88.6585 37.9255 87.887 38.704C87.1155 39.4825 86.6824 40.5358 86.6824 41.6337V41.6337C86.6885 42.7275 87.1243 43.7747 87.8951 44.5482C88.666 45.3216 89.7097 45.7589 90.7999 45.765V45.765Z" stroke="#DAB689" stroke-width="1.3" stroke-linecap="round" stroke-linejoin="round"/>
<path d="M75.1903 112.124C75.1903 114.598 86.3098 116.582 100.011 116.582C113.713 116.582 124.809 114.598 124.809 112.124C124.809 109.65 113.713 107.689 100.011 107.689C86.3098 107.689 75.1903 109.673 75.1903 112.124Z" stroke="#DAB689" stroke-width="1.3" stroke-linecap="round" stroke-linejoin="round"/>
<path d="M75.1903 112.124C70.6504 121.47 68.2652 131.721 68.2115 142.117C69.3048 182.381 129.601 182.428 131.649 142.117C131.823 131.681 129.477 121.358 124.809 112.031" stroke="#DAB689" stroke-width="1.3" stroke-linecap="round" stroke-linejoin="round"/>
<path d="M94.9871 134.321C97.3767 134.321 99.3139 132.378 99.3139 129.98C99.3139 127.582 97.3767 125.638 94.9871 125.638C92.5974 125.638 90.6602 127.582 90.6602 129.98C90.6602 132.378 92.5974 134.321 94.9871 134.321Z" stroke="#DAB689" stroke-width="1.3" stroke-linecap="round" stroke-linejoin="round"/>
<path d="M99.9653 160.79C99.9653 161.357 100.077 161.919 100.293 162.443C100.509 162.967 100.826 163.443 101.226 163.844C101.625 164.244 102.1 164.563 102.622 164.78C103.144 164.997 103.704 165.108 104.269 165.108C104.834 165.108 105.394 164.997 105.916 164.78C106.438 164.563 106.912 164.244 107.312 163.844C107.712 163.443 108.029 162.967 108.245 162.443C108.461 161.919 108.572 161.357 108.572 160.79C108.572 159.645 108.119 158.547 107.312 157.737C106.505 156.927 105.41 156.472 104.269 156.472C103.127 156.472 102.033 156.927 101.226 157.737C100.419 158.547 99.9653 159.645 99.9653 160.79V160.79Z" stroke="#DAB689" stroke-width="1.3" stroke-linecap="round" stroke-linejoin="round"/>
<path d="M115.598 135.255C116.304 135.255 116.877 134.68 116.877 133.971C116.877 133.262 116.304 132.688 115.598 132.688C114.891 132.688 114.318 133.262 114.318 133.971C114.318 134.68 114.891 135.255 115.598 135.255Z" stroke="#DAB689" stroke-width="1.3" stroke-linecap="round" stroke-linejoin="round"/>
<path d="M116.877 151.967C117.584 151.967 118.156 151.392 118.156 150.683C118.156 149.974 117.584 149.4 116.877 149.4C116.17 149.4 115.597 149.974 115.597 150.683C115.597 151.392 116.17 151.967 116.877 151.967Z" stroke="#DAB689" stroke-width="1.3" stroke-linecap="round" stroke-linejoin="round"/>
<path d="M90.9858 157.733C91.6924 157.733 92.2652 157.158 92.2652 156.449C92.2652 155.74 91.6924 155.165 90.9858 155.165C90.2792 155.165 89.7063 155.74 89.7063 156.449C89.7063 157.158 90.2792 157.733 90.9858 157.733Z" stroke="#DAB689" stroke-width="1.3" stroke-linecap="round" stroke-linejoin="round"/>
<path d="M79.0522 139.176C79.7588 139.176 80.3316 138.602 80.3316 137.893C80.3316 137.184 79.7588 136.609 79.0522 136.609C78.3456 136.609 77.7728 137.184 77.7728 137.893C77.7728 138.602 78.3456 139.176 79.0522 139.176Z" stroke="#DAB689" stroke-width="1.3" stroke-linecap="round" stroke-linejoin="round"/>
</svg>
