<svg width="100" height="100" viewBox="0 0 100 100" fill="none" xmlns="http://www.w3.org/2000/svg">
<g clip-path="url(#clip0_535:2833)">
<path d="M31.0997 38.9423C31.0997 38.9423 32.0281 42.6693 30.0784 45.0895C28.1287 47.5098 28.5067 48.9099 29.0637 52.1702C29.6208 55.4305 25.9137 58.6909 27.3926 61.6712C28.8714 64.6514 33.0427 63.998 36.0137 63.2513C37.6288 62.7782 39.3528 62.8436 40.9278 63.438" stroke="#DAB689" stroke-width="1.3" stroke-linecap="round" stroke-linejoin="round"/>
<path d="M38.9581 62.9913C38.5462 63.7019 38.3005 64.4973 38.2396 65.3175C38.1787 66.1376 38.3042 66.961 38.6067 67.7251C38.6067 67.7251 46.2596 69.1586 49.9999 69.0253V75.3259C49.9999 75.3259 43.1891 75.3259 39.051 72.4656C38.8242 72.2991 38.6441 72.0767 38.5279 71.8197C38.4117 71.5627 38.3635 71.28 38.3878 70.9988L38.6332 67.7251" stroke="#DAB689" stroke-width="1.3" stroke-linecap="round" stroke-linejoin="round"/>
<path d="M46.7706 49.85C46.7655 48.8359 46.3643 47.8644 45.6535 47.1448C44.9428 46.4253 43.9793 46.0152 42.9707 46.003C41.5058 45.9941 40.0419 46.0765 38.5872 46.2496C33.5603 46.803 33.0762 50.2034 34.3164 53.9504C35.5565 57.6974 42.8712 58.2508 45.3581 54.3638C46.2518 53.0275 46.7423 51.46 46.7706 49.85V49.85Z" stroke="#DAB689" stroke-width="1.3" stroke-linecap="round" stroke-linejoin="round"/>
<path d="M38.4145 71.5321C38.4145 71.5321 37.0483 71.7788 37.0483 73.8657" stroke="#DAB689" stroke-width="1.3" stroke-linecap="round" stroke-linejoin="round"/>
<path d="M38.4478 69.8519C38.4478 69.8519 42.2079 72.3055 50.0001 72.3055" stroke="#DAB689" stroke-width="1.3" stroke-linecap="round" stroke-linejoin="round"/>
<path d="M47.7256 68.9652V75.1925" stroke="#DAB689" stroke-width="1.3" stroke-linecap="round" stroke-linejoin="round"/>
<path d="M45.4507 68.7518V74.8724" stroke="#DAB689" stroke-width="1.3" stroke-linecap="round" stroke-linejoin="round"/>
<path d="M43.4082 68.4918V74.4057" stroke="#DAB689" stroke-width="1.3" stroke-linecap="round" stroke-linejoin="round"/>
<path d="M41.3989 68.1985V73.7724" stroke="#DAB689" stroke-width="1.3" stroke-linecap="round" stroke-linejoin="round"/>
<path d="M39.6348 72.8389L39.9531 67.9584" stroke="#DAB689" stroke-width="1.3" stroke-linecap="round" stroke-linejoin="round"/>
<path d="M68.8938 38.9423C68.8938 38.9423 67.972 42.6693 69.915 45.0895C71.8581 47.5098 71.4934 48.9099 70.9363 52.1702C70.3793 55.4305 74.0864 58.6909 72.6009 61.6712C71.1154 64.6514 66.9507 63.998 63.9797 63.2513C62.3669 62.7777 60.6448 62.8432 59.0723 63.438" stroke="#DAB689" stroke-width="1.3" stroke-linecap="round" stroke-linejoin="round"/>
<path d="M61.0417 62.9913C61.4518 63.7026 61.6965 64.4979 61.7573 65.3177C61.8182 66.1375 61.6937 66.9606 61.3932 67.7251C61.3932 67.7251 53.7336 69.1586 50 69.0253V75.3259C50 75.3259 56.8107 75.3259 60.9422 72.4656C61.17 72.3 61.3509 72.0777 61.4671 71.8205C61.5834 71.5633 61.6311 71.2801 61.6054 70.9988L61.3667 67.7251" stroke="#DAB689" stroke-width="1.3" stroke-linecap="round" stroke-linejoin="round"/>
<path d="M69.9147 45.0895C69.9147 45.0895 78.2507 37.1754 69.729 26.0877C69.5035 25.7943 69.2714 25.5009 69.0658 25.2209C59.1979 13.5064 40.8613 13.5064 31.0001 25.2209C30.7613 25.5009 30.5292 25.7943 30.2971 26.0877C21.7754 37.1754 30.1114 45.0895 30.1114 45.0895" stroke="#DAB689" stroke-width="1.3" stroke-linecap="round" stroke-linejoin="round"/>
<path d="M66.0153 63.678C64.9763 66.6913 64.4386 69.8563 64.4237 73.0456C64.3944 74.2721 64.0942 75.4767 63.5448 76.5721C62.9954 77.6676 62.2106 78.6266 61.2472 79.3795C58.117 81.8664 54.6155 83.5733 49.9733 83.5733C45.3312 83.5733 41.8495 81.8664 38.6995 79.3795C37.7467 78.6209 36.9729 77.6594 36.434 76.5642C35.8951 75.469 35.6043 74.2673 35.5826 73.0456C35.5678 69.8558 35.0277 66.6904 33.9844 63.678" stroke="#DAB689" stroke-width="1.3" stroke-linecap="round" stroke-linejoin="round"/>
<path d="M53.2295 49.85C53.2346 48.8359 53.6358 47.8644 54.3466 47.1448C55.0573 46.4252 56.0208 46.0152 57.0294 46.0029C58.4921 45.9943 59.9538 46.0767 61.4063 46.2496C66.4398 46.803 66.9239 50.2033 65.6771 53.9504C64.4304 57.6974 57.1223 58.2508 54.642 54.3637C53.7456 53.0288 53.2548 51.4605 53.2295 49.85V49.85Z" stroke="#DAB689" stroke-width="1.3" stroke-linecap="round" stroke-linejoin="round"/>
<path d="M50 61.3778C50 61.3778 52.0889 62.8313 53.2296 60.9644C54.5559 56.524 50 53.4703 50 53.4703C50 53.4703 45.4241 56.524 46.7703 60.9644C47.911 62.8246 50 61.3778 50 61.3778Z" stroke="#DAB689" stroke-width="1.3" stroke-linecap="round" stroke-linejoin="round"/>
<path d="M61.5854 71.5321C61.5854 71.5321 62.9516 71.7788 62.9516 73.8657" stroke="#DAB689" stroke-width="1.3" stroke-linecap="round" stroke-linejoin="round"/>
<path d="M61.5524 69.8519C61.5524 69.8519 57.7922 72.3055 50 72.3055" stroke="#DAB689" stroke-width="1.3" stroke-linecap="round" stroke-linejoin="round"/>
<path d="M52.2749 68.9652V75.1925" stroke="#DAB689" stroke-width="1.3" stroke-linecap="round" stroke-linejoin="round"/>
<path d="M54.5425 68.7518V74.8724" stroke="#DAB689" stroke-width="1.3" stroke-linecap="round" stroke-linejoin="round"/>
<path d="M56.5918 68.4918V74.4057" stroke="#DAB689" stroke-width="1.3" stroke-linecap="round" stroke-linejoin="round"/>
<path d="M58.6011 68.1985V73.7724" stroke="#DAB689" stroke-width="1.3" stroke-linecap="round" stroke-linejoin="round"/>
<path d="M60.3652 72.8389L60.0469 67.9584" stroke="#DAB689" stroke-width="1.3" stroke-linecap="round" stroke-linejoin="round"/>
</g>
<defs>
<clipPath id="clip0_535:2833">
<rect width="48" height="68" fill="white" transform="translate(26 16)"/>
</clipPath>
</defs>
</svg>
