<svg width="200" height="200" viewBox="0 0 200 200" fill="none" xmlns="http://www.w3.org/2000/svg">
<path d="M56.0056 73.9818C56.0056 73.9818 58.1913 82.7513 53.6013 88.446C49.0114 94.1406 49.9013 97.4351 51.2127 105.106C52.5241 112.778 43.7969 120.449 47.2784 127.462C50.7599 134.474 60.5799 132.937 67.5741 131.18C71.3762 130.066 75.4349 130.22 79.1426 131.619" stroke="#DAB689" stroke-width="1.3" stroke-linecap="round" stroke-linejoin="round"/>
<path d="M74.5059 130.568C73.5361 132.239 72.9576 134.111 72.8142 136.041C72.6709 137.971 72.9664 139.908 73.6784 141.706C73.6784 141.706 91.6947 145.079 100.5 144.765V159.59C100.5 159.59 84.4664 159.59 74.7244 152.86C74.1907 152.468 73.7665 151.945 73.493 151.34C73.2195 150.736 73.1059 150.07 73.1632 149.409L73.7409 141.706" stroke="#DAB689" stroke-width="1.3" stroke-linecap="round" stroke-linejoin="round"/>
<path d="M92.897 99.647C92.8849 97.2609 91.9405 94.975 90.2672 93.2819C88.594 91.5888 86.3258 90.6239 83.9513 90.5951C80.5029 90.5744 77.0564 90.7682 73.6318 91.1756C61.7979 92.4777 60.6582 100.478 63.5776 109.295C66.4971 118.112 83.7172 119.414 89.5717 110.268C91.6756 107.123 92.8304 103.435 92.897 99.647V99.647Z" stroke="#DAB689" stroke-width="1.3" stroke-linecap="round" stroke-linejoin="round"/>
<path d="M73.2257 150.664C73.2257 150.664 70.0096 151.244 70.0096 156.155" stroke="#DAB689" stroke-width="1.3" stroke-linecap="round" stroke-linejoin="round"/>
<path d="M73.3038 146.71C73.3038 146.71 82.1558 152.484 100.5 152.484" stroke="#DAB689" stroke-width="1.3" stroke-linecap="round" stroke-linejoin="round"/>
<path d="M95.1451 144.624V159.276" stroke="#DAB689" stroke-width="1.3" stroke-linecap="round" stroke-linejoin="round"/>
<path d="M89.7902 144.122V158.523" stroke="#DAB689" stroke-width="1.3" stroke-linecap="round" stroke-linejoin="round"/>
<path d="M84.9816 143.51V157.425" stroke="#DAB689" stroke-width="1.3" stroke-linecap="round" stroke-linejoin="round"/>
<path d="M80.2512 142.82V155.935" stroke="#DAB689" stroke-width="1.3" stroke-linecap="round" stroke-linejoin="round"/>
<path d="M76.0984 153.739L76.8478 142.255" stroke="#DAB689" stroke-width="1.3" stroke-linecap="round" stroke-linejoin="round"/>
<path d="M144.979 73.9818C144.979 73.9818 142.809 82.7513 147.383 88.446C151.957 94.1406 151.099 97.4351 149.787 105.106C148.476 112.778 157.203 120.449 153.706 127.462C150.209 134.474 140.405 132.937 133.41 131.18C129.614 130.065 125.559 130.219 121.857 131.619" stroke="#DAB689" stroke-width="1.3" stroke-linecap="round" stroke-linejoin="round"/>
<path d="M126.494 130.568C127.459 132.241 128.035 134.112 128.179 136.041C128.322 137.97 128.029 139.907 127.321 141.706C127.321 141.706 109.29 145.079 100.5 144.765V159.59C100.5 159.59 116.534 159.59 126.26 152.86C126.796 152.47 127.222 151.947 127.496 151.342C127.769 150.737 127.881 150.071 127.821 149.409L127.259 141.706" stroke="#DAB689" stroke-width="1.3" stroke-linecap="round" stroke-linejoin="round"/>
<path d="M147.383 88.4459C147.383 88.4459 167.007 69.8244 146.946 43.7356C146.415 43.0453 145.869 42.3551 145.385 41.6962C122.154 14.1327 78.9865 14.1327 55.7714 41.6962C55.2094 42.3551 54.663 43.0453 54.1165 43.7356C34.0551 69.8244 53.6794 88.4459 53.6794 88.4459" stroke="#DAB689" stroke-width="1.3" stroke-linecap="round" stroke-linejoin="round"/>
<path d="M138.203 132.184C135.757 139.274 134.491 146.721 134.456 154.225C134.387 157.111 133.681 159.945 132.387 162.523C131.094 165.1 129.246 167.357 126.978 169.128C119.609 174.98 111.366 178.996 100.438 178.996C89.5092 178.996 81.3128 174.98 73.8971 169.128C71.654 167.344 69.8325 165.081 68.5638 162.504C67.295 159.927 66.6105 157.1 66.5594 154.225C66.5246 146.72 65.2532 139.272 62.7969 132.184" stroke="#DAB689" stroke-width="1.3" stroke-linecap="round" stroke-linejoin="round"/>
<path d="M108.103 99.6471C108.115 97.2609 109.06 94.9751 110.733 93.282C112.406 91.5888 114.674 90.624 117.049 90.5952C120.492 90.5749 123.933 90.7687 127.353 91.1756C139.202 92.4777 140.342 100.479 137.407 109.295C134.472 118.112 117.267 119.414 111.428 110.268C109.318 107.127 108.163 103.436 108.103 99.6471V99.6471Z" stroke="#DAB689" stroke-width="1.3" stroke-linecap="round" stroke-linejoin="round"/>
<path d="M100.5 126.771C100.5 126.771 105.418 130.191 108.103 125.799C111.226 115.351 100.5 108.166 100.5 108.166C100.5 108.166 89.7278 115.351 92.897 125.799C95.5823 130.176 100.5 126.771 100.5 126.771Z" stroke="#DAB689" stroke-width="1.3" stroke-linecap="round" stroke-linejoin="round"/>
<path d="M127.774 150.664C127.774 150.664 130.99 151.244 130.99 156.155" stroke="#DAB689" stroke-width="1.3" stroke-linecap="round" stroke-linejoin="round"/>
<path d="M127.696 146.71C127.696 146.71 118.844 152.484 100.5 152.484" stroke="#DAB689" stroke-width="1.3" stroke-linecap="round" stroke-linejoin="round"/>
<path d="M105.855 144.624V159.276" stroke="#DAB689" stroke-width="1.3" stroke-linecap="round" stroke-linejoin="round"/>
<path d="M111.194 144.122V158.523" stroke="#DAB689" stroke-width="1.3" stroke-linecap="round" stroke-linejoin="round"/>
<path d="M116.018 143.51V157.425" stroke="#DAB689" stroke-width="1.3" stroke-linecap="round" stroke-linejoin="round"/>
<path d="M120.749 142.82V155.935" stroke="#DAB689" stroke-width="1.3" stroke-linecap="round" stroke-linejoin="round"/>
<path d="M124.902 153.739L124.152 142.255" stroke="#DAB689" stroke-width="1.3" stroke-linecap="round" stroke-linejoin="round"/>
</svg>
